<svg width="100%" height="100%" style="overflow:visible;" preserveAspectRatio="none" viewBox="0 0 206.05 206.17" fill="none" xmlns="http://www.w3.org/2000/svg" xmlns:xlink="http://www.w3.org/1999/xlink">
<path d="M21 3.09804C44.8279 -7.68031 206.552 18.7151 206.552 18.7151V196.905C206.552 196.905 25.6368 213.804 15.0722 203.166C4.50763 192.527 22.9841 192.48 6.67173 143.291C-9.64063 94.1021 11.0932 62.7642 15.0722 42.2039C19.0512 21.6436 -2.82795 13.8764 21 3.09804Z" fill="#1699F8" style="fill:#1699F8;fill:color(display-p3 0.0863 0.6000 0.9725);fill-opacity:1;"/>
<path d="M21 3.09804C44.8279 -7.68031 206.552 18.7151 206.552 18.7151V196.905C206.552 196.905 25.6368 213.804 15.0722 203.166C4.50763 192.527 22.9841 192.48 6.67173 143.291C-9.64063 94.1021 11.0932 62.7642 15.0722 42.2039C19.0512 21.6436 -2.82795 13.8764 21 3.09804Z" fill="url(#pattern0_3394_485)" style=""/>
<path d="M21 3.09804C44.8279 -7.68031 206.552 18.7151 206.552 18.7151V196.905C206.552 196.905 25.6368 213.804 15.0722 203.166C4.50763 192.527 22.9841 192.48 6.67173 143.291C-9.64063 94.1021 11.0932 62.7642 15.0722 42.2039C19.0512 21.6436 -2.82795 13.8764 21 3.09804Z" fill="url(#pattern1_3394_485)" style=""/>
<defs>
<pattern id="pattern0_3394_485" patternContentUnits="objectBoundingBox" width="1" height="1">
<use xlink:href="#image0_3394_485" transform="translate(-0.124237 0.095215) scale(0.000311644)"/>
</pattern>
<pattern id="pattern1_3394_485" patternContentUnits="objectBoundingBox" width="1" height="1">
<use xlink:href="#image0_3394_485" transform="translate(-0.0808098) scale(0.000428326)"/>
</pattern>
<image id="image0_3394_485" width="2712" height="2336" preserveAspectRatio="none" xlink:href="/assets/bg-394298164_a-41077c-0ed-9b-429d-9ba-06dae-74f-3454c.png"/>
</defs>
</svg>
