<svg width="100%" height="100%" style="overflow:visible;" preserveAspectRatio="none" viewBox="0 0 200 95" fill="none" xmlns="http://www.w3.org/2000/svg">
<mask id="path-1-inside-1_2835_3662" fill="white">
<path d="M0 0.777344H200V95.7773H0V0.777344Z"/>
</mask>
<path d="M0 0.777344V-0.222656H-1V0.777344H0ZM0 1.77734H200V-0.222656H0V1.77734ZM1 95.7773V0.777344H-1V95.7773H1Z" fill="#ADADAD" fill-opacity="0.26" style="fill:#ADADAD;fill:color(display-p3 0.6784 0.6784 0.6784);fill-opacity:0.26;" mask="url(#path-1-inside-1_2835_3662)"/>
<path d="M102.382 48.2773L112.506 38.1531C113.165 37.4945 113.165 36.4298 112.506 35.7712C111.847 35.1127 110.783 35.1127 110.124 35.7712L99.9998 45.8954L89.876 35.7712C89.2171 35.1127 88.1527 35.1127 87.4941 35.7712C86.8353 36.4298 86.8353 37.4945 87.4941 38.1531L97.618 48.2773L87.4941 58.4015C86.8353 59.06 86.8353 60.1248 87.4941 60.7833C87.8223 61.1118 88.2538 61.2768 88.6851 61.2768C89.1163 61.2768 89.5475 61.1118 89.876 60.7833L99.9998 50.6591L110.124 60.7833C110.453 61.1118 110.884 61.2768 111.315 61.2768C111.746 61.2768 112.177 61.1118 112.506 60.7833C113.165 60.1248 113.165 59.06 112.506 58.4015L102.382 48.2773Z" fill="#F58720" style="fill:#F58720;fill:color(display-p3 0.9608 0.5294 0.1255);fill-opacity:1;"/>
</svg>
