<svg width="100%" height="100%" style="overflow:visible;" preserveAspectRatio="none" viewBox="0 0 14 14" fill="none" xmlns="http://www.w3.org/2000/svg">
<path d="M9.81575 0.892578H5.51575C4.23011 0.89443 2.99767 1.40604 2.08868 2.31522C1.17969 3.2244 0.668335 4.45694 0.666748 5.74258V10.0426C0.668336 11.3286 1.17996 12.5614 2.08939 13.4706C2.99881 14.3799 4.23176 14.8913 5.51775 14.8926H9.81775C11.1034 14.8907 12.3358 14.3791 13.2448 13.4699C14.1538 12.5608 14.6652 11.3282 14.6667 10.0426V5.74258C14.6652 4.45659 14.1535 3.22375 13.2441 2.31451C12.3347 1.40527 11.1017 0.893901 9.81575 0.892578ZM11.7037 6.42658L7.22875 10.9016C7.11953 11.0109 6.98983 11.0976 6.84707 11.1568C6.70431 11.216 6.55129 11.2465 6.39675 11.2465C6.24221 11.2465 6.08918 11.216 5.94642 11.1568C5.80366 11.0976 5.67397 11.0109 5.56475 10.9016L3.62975 8.96658C3.42658 8.75831 3.31366 8.47837 3.31546 8.18742C3.31727 7.89647 3.43365 7.61795 3.63938 7.41221C3.84512 7.20648 4.12364 7.0901 4.41459 7.08829C4.70554 7.08649 4.98548 7.19941 5.19375 7.40258L6.29375 8.50258C6.30769 8.51664 6.32428 8.5278 6.34256 8.53541C6.36084 8.54303 6.38045 8.54695 6.40025 8.54695C6.42005 8.54695 6.43966 8.54303 6.45793 8.53541C6.47621 8.5278 6.4928 8.51664 6.50675 8.50258L10.1397 4.86258C10.242 4.75779 10.364 4.67433 10.4987 4.61705C10.6334 4.55977 10.7782 4.52981 10.9246 4.5289C11.071 4.528 11.2161 4.55616 11.3515 4.61177C11.4869 4.66737 11.61 4.74931 11.7135 4.85282C11.817 4.95634 11.899 5.07938 11.9546 5.2148C12.0102 5.35023 12.0383 5.49535 12.0374 5.64174C12.0365 5.78813 12.0066 5.93289 11.9493 6.06761C11.892 6.20234 11.8085 6.32435 11.7037 6.42658Z" fill="#1699F8" style="fill:#1699F8;fill:color(display-p3 0.0863 0.6000 0.9725);fill-opacity:1;"/>
</svg>
