<svg width="100%" height="100%" style="overflow:visible;" preserveAspectRatio="none" viewBox="0 0 14 14" fill="none" xmlns="http://www.w3.org/2000/svg">
<path d="M9.4825 0.892578H5.1825C3.89686 0.89443 2.66442 1.40604 1.75543 2.31522C0.846436 3.2244 0.335083 4.45694 0.333496 5.74258V10.0426C0.335084 11.3286 0.846712 12.5614 1.75614 13.4706C2.66556 14.3799 3.89851 14.8913 5.1845 14.8926H9.4845C10.7701 14.8907 12.0026 14.3791 12.9116 13.4699C13.8206 12.5608 14.3319 11.3282 14.3335 10.0426V5.74258C14.3319 4.45659 13.8203 3.22375 12.9109 2.31451C12.0014 1.40527 10.7685 0.893901 9.4825 0.892578ZM11.3705 6.42658L6.8955 10.9016C6.78628 11.0109 6.65658 11.0976 6.51382 11.1568C6.37106 11.216 6.21804 11.2465 6.0635 11.2465C5.90896 11.2465 5.75593 11.216 5.61317 11.1568C5.47041 11.0976 5.34071 11.0109 5.2315 10.9016L3.2965 8.96658C3.09333 8.75831 2.98041 8.47837 2.98221 8.18742C2.98402 7.89647 3.1004 7.61795 3.30613 7.41221C3.51187 7.20648 3.79039 7.0901 4.08134 7.08829C4.37228 7.08649 4.65223 7.19941 4.8605 7.40258L5.9605 8.50258C5.97444 8.51664 5.99103 8.5278 6.00931 8.53541C6.02759 8.54303 6.04719 8.54695 6.067 8.54695C6.0868 8.54695 6.1064 8.54303 6.12468 8.53541C6.14296 8.5278 6.15955 8.51664 6.1735 8.50258L9.8065 4.86258C9.90872 4.75779 10.0307 4.67433 10.1655 4.61705C10.3002 4.55977 10.4449 4.52981 10.5913 4.5289C10.7377 4.528 10.8828 4.55616 11.0183 4.61177C11.1537 4.66737 11.2767 4.74931 11.3803 4.85282C11.4838 4.95634 11.5657 5.07938 11.6213 5.2148C11.6769 5.35023 11.7051 5.49535 11.7042 5.64174C11.7033 5.78813 11.6733 5.93289 11.616 6.06761C11.5587 6.20234 11.4753 6.32435 11.3705 6.42658Z" fill="#1699F8" style="fill:#1699F8;fill:color(display-p3 0.0863 0.6000 0.9725);fill-opacity:1;"/>
</svg>
