<svg width="100%" height="100%" style="overflow:visible;" preserveAspectRatio="none" viewBox="0 0 14 14" fill="none" xmlns="http://www.w3.org/2000/svg">
<path d="M9.149 0.892578H4.849C3.56336 0.89443 2.33092 1.40604 1.42193 2.31522C0.51294 3.2244 0.00158718 4.45694 0 5.74258V10.0426C0.00158826 11.3286 0.513216 12.5614 1.42264 13.4706C2.33206 14.3799 3.56501 14.8913 4.851 14.8926H9.151C10.4366 14.8907 11.6691 14.3791 12.5781 13.4699C13.4871 12.5608 13.9984 11.3282 14 10.0426V5.74258C13.9984 4.45659 13.4868 3.22375 12.5774 2.31451C11.6679 1.40527 10.435 0.893901 9.149 0.892578ZM11.037 6.42658L6.562 10.9016C6.45278 11.0109 6.32309 11.0976 6.18033 11.1568C6.03756 11.216 5.88454 11.2465 5.73 11.2465C5.57546 11.2465 5.42244 11.216 5.27968 11.1568C5.13691 11.0976 5.00722 11.0109 4.898 10.9016L2.963 8.96658C2.75983 8.75831 2.64691 8.47837 2.64872 8.18742C2.65052 7.89647 2.7669 7.61795 2.97264 7.41221C3.17837 7.20648 3.45689 7.0901 3.74784 7.08829C4.03879 7.08649 4.31873 7.19941 4.527 7.40258L5.627 8.50258C5.64094 8.51664 5.65753 8.5278 5.67581 8.53541C5.69409 8.54303 5.7137 8.54695 5.7335 8.54695C5.7533 8.54695 5.77291 8.54303 5.79119 8.53541C5.80947 8.5278 5.82606 8.51664 5.84 8.50258L9.473 4.86258C9.57523 4.75779 9.69724 4.67433 9.83197 4.61705C9.96669 4.55977 10.1114 4.52981 10.2578 4.5289C10.4042 4.528 10.5493 4.55616 10.6848 4.61177C10.8202 4.66737 10.9432 4.74931 11.0468 4.85282C11.1503 4.95634 11.2322 5.07938 11.2878 5.2148C11.3434 5.35023 11.3716 5.49535 11.3707 5.64174C11.3698 5.78813 11.3398 5.93289 11.2825 6.06761C11.2252 6.20234 11.1418 6.32435 11.037 6.42658Z" fill="#1699F8" style="fill:#1699F8;fill:color(display-p3 0.0863 0.6000 0.9725);fill-opacity:1;"/>
</svg>
