<svg width="100%" height="100%" style="overflow:visible;" preserveAspectRatio="none" viewBox="0 0 26.25 28.47" fill="none" xmlns="http://www.w3.org/2000/svg">
<path d="M12.1798 11.2912C12.9674 10.061 13.2649 9.00094 13.064 8.13984C12.6932 6.55109 10.719 6.20153 10.2652 4.16021C10.0215 3.06364 10.3085 1.83319 11.118 0.502641C11.1875 0.390997 11.2944 0.313818 11.4155 0.287874C11.5367 0.261929 11.6624 0.289316 11.7652 0.364082C11.868 0.438849 11.9397 0.554955 11.9646 0.687172C11.9896 0.819389 11.9658 0.957034 11.8985 1.0702C11.2398 2.153 10.9967 3.11094 11.1761 3.91798C11.533 5.52389 13.5017 5.8687 13.9724 7.8866C14.2439 9.04997 13.8992 10.393 12.9479 11.8787C12.8761 11.9886 12.7675 12.063 12.6458 12.0858C12.5241 12.1087 12.3991 12.078 12.2979 12.0006C12.1967 11.9232 12.1275 11.8053 12.1054 11.6724C12.0833 11.5396 12.11 11.4026 12.1798 11.2912Z" fill="#060346" style="fill:#060346;fill:color(display-p3 0.0235 0.0118 0.2745);fill-opacity:1;"/>
<path d="M15.1204 9.7796C15.7629 8.80841 16.0094 7.98009 15.8526 7.3177C15.5613 6.085 13.9154 5.80212 13.5343 4.11106C13.328 3.19417 13.5755 2.16992 14.2699 1.06609C14.3409 0.955553 14.4489 0.880133 14.5705 0.856233C14.6921 0.832332 14.8174 0.861885 14.9192 0.938463C15.021 1.01504 15.091 1.13245 15.114 1.26517C15.137 1.39788 15.1112 1.53516 15.0421 1.64716C14.5061 2.49924 14.3051 3.24572 14.4448 3.86582C14.726 5.11394 16.3645 5.38773 16.7603 7.06094C16.9904 8.03315 16.694 9.14998 15.8798 10.3802C15.8067 10.4894 15.697 10.5626 15.5747 10.5837C15.4523 10.6048 15.3273 10.5721 15.227 10.4927C15.1267 10.4134 15.0591 10.2938 15.0392 10.1602C15.0192 10.0266 15.0484 9.88974 15.1204 9.7796Z" fill="#060346" style="fill:#060346;fill:color(display-p3 0.0235 0.0118 0.2745);fill-opacity:1;"/>
<path d="M9.07061 10.709C9.71308 9.73829 9.95959 8.90996 9.8028 8.24756C9.5114 7.01467 7.86564 6.7322 7.48445 5.04069C7.27823 4.12404 7.52565 3.09979 8.22008 1.99597C8.29106 1.88536 8.39912 1.80988 8.52075 1.78594C8.64238 1.762 8.76773 1.79155 8.86953 1.86815C8.97134 1.94475 9.04136 2.06221 9.06435 2.19496C9.08735 2.32772 9.06147 2.46504 8.99233 2.57703C8.45629 3.42912 8.25534 4.17559 8.39495 4.79545C8.67624 6.04451 10.3145 6.31683 10.7105 7.99081C10.9406 8.96302 10.6442 10.0799 9.83004 11.3101C9.75685 11.4194 9.64707 11.4925 9.52468 11.5136C9.40229 11.5347 9.27726 11.5019 9.1769 11.4225C9.07654 11.343 9.00903 11.2234 8.98911 11.0897C8.96919 10.956 8.99849 10.8191 9.07061 10.709Z" fill="#060346" style="fill:#060346;fill:color(display-p3 0.0235 0.0118 0.2745);fill-opacity:1;"/>
<path d="M21.7914 14.0938H2.46015C2.22589 14.0988 2.00303 14.2052 1.84045 14.3897C1.67788 14.5742 1.58887 14.8216 1.59297 15.0777V15.6979C1.58318 17.5108 1.94727 19.3029 2.65818 20.9408C3.36909 22.5787 4.40852 24.0204 5.69922 25.1586H18.5523C19.8429 24.0203 20.8822 22.5786 21.5931 20.9407C22.304 19.3028 22.6682 17.5108 22.6586 15.6979V15.0777C22.6627 14.8216 22.5737 14.5742 22.4111 14.3897C22.2485 14.2052 22.0257 14.0988 21.7914 14.0938ZM2.79739 18.2627C2.73902 17.9874 2.68989 17.7082 2.64999 17.4251C2.63216 17.2913 2.66343 17.1552 2.73697 17.0465C2.81051 16.9378 2.92038 16.8653 3.04261 16.8447C3.16485 16.8242 3.28956 16.8573 3.38957 16.9369C3.48957 17.0164 3.55676 17.136 3.5765 17.2694C3.61267 17.5264 3.65737 17.7801 3.71062 18.0304C3.73866 18.1628 3.7175 18.3019 3.65177 18.4172C3.58605 18.5325 3.48114 18.6146 3.36011 18.6453C3.23908 18.6761 3.11182 18.6531 3.0063 18.5813C2.90079 18.5096 2.82564 18.395 2.79739 18.2627ZM5.65017 23.7503C4.6524 22.7104 3.86276 21.4556 3.33114 20.0652C3.28423 19.9401 3.2844 19.7999 3.33159 19.675C3.37879 19.5501 3.4692 19.4506 3.58314 19.3982C3.69709 19.3458 3.82535 19.3447 3.94002 19.3952C4.05468 19.4457 4.14646 19.5437 4.19539 19.6678C4.67705 20.9283 5.39266 22.0659 6.29699 23.0085C6.38523 23.1028 6.43596 23.2312 6.43816 23.366C6.44036 23.5009 6.39387 23.6312 6.30876 23.7288C6.22365 23.8264 6.10678 23.8834 5.98349 23.8874C5.86021 23.8914 5.74045 23.8421 5.65017 23.7503Z" fill="#060346" style="fill:#060346;fill:color(display-p3 0.0235 0.0118 0.2745);fill-opacity:1;"/>
<path d="M23.5868 16.1899C23.5731 16.7258 23.5261 17.26 23.4461 17.7889C24.4096 17.5171 25.244 17.6381 25.0165 18.7012C24.8758 19.3315 23.8868 20.4488 22.4665 21.3252C22.1248 22.1379 21.7036 22.9077 21.2102 23.6212C23.8915 22.6474 26.0571 20.5513 26.3852 19.0548C26.7612 17.3128 25.6662 15.811 23.5868 16.1899Z" fill="#060346" style="fill:#060346;fill:color(display-p3 0.0235 0.0118 0.2745);fill-opacity:1;"/>
<path d="M24.5523 26.445C24.332 28.1568 21.9976 28.7461 20.3992 28.7461H4.36326C2.75076 28.7461 0.430448 28.1465 0.210112 26.445C0.205826 26.4122 0.208104 26.3788 0.216788 26.347C0.225472 26.3153 0.240355 26.2859 0.26041 26.2611C0.280466 26.2362 0.305215 26.2164 0.332949 26.2031C0.360683 26.1897 0.390742 26.1831 0.42105 26.1836H24.3414C24.3715 26.1835 24.4014 26.1904 24.4289 26.204C24.4565 26.2175 24.4811 26.2373 24.501 26.262C24.521 26.2868 24.5359 26.3159 24.5448 26.3475C24.5536 26.379 24.5562 26.4123 24.5523 26.445Z" fill="#060346" style="fill:#060346;fill:color(display-p3 0.0235 0.0118 0.2745);fill-opacity:1;"/>
</svg>
