<svg width="100%" height="100%" style="overflow:visible;" preserveAspectRatio="none" viewBox="0 0 210.09 206.17" fill="none" xmlns="http://www.w3.org/2000/svg" xmlns:xlink="http://www.w3.org/1999/xlink">
<path d="M25.0001 3.09804C48.8281 -7.68031 210.552 18.7151 210.552 18.7151V196.905C210.552 196.905 29.637 213.804 19.0723 203.166C8.50773 192.527 26.9842 192.48 10.6718 143.291C-5.64052 94.1021 1.521 62.2439 5.5 41.6836C9.479 21.1233 1.17216 13.8764 25.0001 3.09804Z" fill="#1699F8" style="fill:#1699F8;fill:color(display-p3 0.0863 0.6000 0.9725);fill-opacity:1;"/>
<path d="M25.0001 3.09804C48.8281 -7.68031 210.552 18.7151 210.552 18.7151V196.905C210.552 196.905 29.637 213.804 19.0723 203.166C8.50773 192.527 26.9842 192.48 10.6718 143.291C-5.64052 94.1021 1.521 62.2439 5.5 41.6836C9.479 21.1233 1.17216 13.8764 25.0001 3.09804Z" fill="url(#pattern0_3394_470)" style=""/>
<defs>
<pattern id="pattern0_3394_470" patternContentUnits="objectBoundingBox" width="1" height="1">
<use xlink:href="#image0_3394_470" transform="matrix(0.000185587 0 0 0.000189119 0.125838 0.12295)"/>
</pattern>
<image id="image0_3394_470" width="4096" height="4096" preserveAspectRatio="none" xlink:href="/assets/bg-188280794_794048e-1739e-45bb-af-30c10ec-77983c.png"/>
</defs>
</svg>
