<svg width="100%" height="100%" style="overflow:visible;" preserveAspectRatio="none" viewBox="0 0 19.4 19.4" fill="none" xmlns="http://www.w3.org/2000/svg">
<path d="M6.29901 16.6687C6.15832 16.6687 6.02119 16.6244 5.90723 16.5419C5.70674 16.3965 5.60338 16.1519 5.63881 15.9068L6.25816 11.5696L3.82663 9.13801C3.64998 8.96132 3.58692 8.70072 3.66324 8.4628C3.73935 8.22509 3.94213 8.05 4.1884 8.00934L7.85446 7.39748L9.70333 3.70052C9.8179 3.47423 10.0499 3.3315 10.3035 3.33124C10.5574 3.33263 10.7884 3.47806 10.8995 3.70635L12.6692 7.34246L16.4186 8.01017C16.6631 8.05361 16.8632 8.22931 16.9379 8.46614C17.0129 8.70334 16.9492 8.96253 16.7729 9.13801L14.3414 11.5696L14.9616 15.9068C14.9967 16.1532 14.8916 16.3988 14.6889 16.5437C14.4871 16.6886 14.2213 16.7092 13.9995 16.597L10.3468 14.7464L6.59409 16.5995C6.50242 16.6451 6.4014 16.6687 6.29901 16.6687Z" fill="#F5CA20" style="fill:#F5CA20;fill:color(display-p3 0.9608 0.7937 0.1255);fill-opacity:1;"/>
</svg>
