<svg width="100%" height="100%" style="overflow:visible;" preserveAspectRatio="none" viewBox="0 0 28 28" fill="none" xmlns="http://www.w3.org/2000/svg">
<path d="M8.22523 24.27C8.02217 24.27 7.82426 24.2061 7.65978 24.087C7.37041 23.877 7.22124 23.5241 7.27237 23.1703L8.16627 16.9104L4.65685 13.4009C4.40189 13.1459 4.31088 12.7698 4.42103 12.4264C4.53088 12.0833 4.82355 11.8306 5.17899 11.7719L10.4702 10.8888L13.1387 5.553C13.304 5.22641 13.6389 5.0204 14.0049 5.02002C14.3713 5.02203 14.7048 5.23192 14.8651 5.56143L17.4193 10.8094L22.8308 11.7731C23.1838 11.8358 23.4725 12.0894 23.5803 12.4312C23.6885 12.7736 23.5967 13.1477 23.3422 13.4009L19.8327 16.9104L20.7279 23.1703C20.7786 23.526 20.6269 23.8805 20.3343 24.0895C20.0431 24.2988 19.6595 24.3285 19.3394 24.1665L14.0675 21.4955L8.65113 24.1701C8.51882 24.2359 8.37302 24.27 8.22523 24.27Z" fill="#F5CA20" style="fill:#F5CA20;fill:color(display-p3 0.9608 0.7937 0.1255);fill-opacity:1;"/>
</svg>
