<svg width="100%" height="100%" style="overflow:visible;" preserveAspectRatio="none" viewBox="0 0 19.4 19.4" fill="none" xmlns="http://www.w3.org/2000/svg">
<path d="M6.09881 16.6687C5.95812 16.6687 5.82099 16.6244 5.70703 16.5419C5.50654 16.3965 5.40319 16.1519 5.43862 15.9068L6.05796 11.5696L3.62643 9.13801C3.44979 8.96132 3.38672 8.70072 3.46305 8.4628C3.53916 8.22509 3.74193 8.05 3.9882 8.00934L7.65426 7.39748L9.50313 3.70052C9.6177 3.47423 9.84968 3.3315 10.1033 3.33124C10.3572 3.33263 10.5882 3.47806 10.6993 3.70635L12.469 7.34246L16.2184 8.01017C16.4629 8.05361 16.663 8.22931 16.7377 8.46614C16.8127 8.70334 16.749 8.96253 16.5727 9.13801L14.1412 11.5696L14.7614 15.9068C14.7965 16.1532 14.6914 16.3988 14.4887 16.5437C14.2869 16.6886 14.0211 16.7092 13.7993 16.597L10.1467 14.7464L6.3939 16.5995C6.30223 16.6451 6.20121 16.6687 6.09881 16.6687Z" fill="#F5CA20" style="fill:#F5CA20;fill:color(display-p3 0.9608 0.7937 0.1255);fill-opacity:1;"/>
</svg>
