<svg width="100%" height="100%" style="overflow:visible;" preserveAspectRatio="none" viewBox="0 0 19.4 19.4" fill="none" xmlns="http://www.w3.org/2000/svg">
<path d="M6.49872 16.6687C6.35802 16.6687 6.2209 16.6244 6.10694 16.5419C5.90645 16.3965 5.80309 16.1519 5.83852 15.9068L6.45787 11.5696L4.02633 9.13801C3.84969 8.96132 3.78663 8.70072 3.86295 8.4628C3.93906 8.22509 4.14184 8.05 4.3881 8.00934L8.05416 7.39748L9.90304 3.70052C10.0176 3.47423 10.2496 3.3315 10.5032 3.33124C10.7571 3.33263 10.9881 3.47806 11.0992 3.70635L12.8689 7.34246L16.6183 8.01017C16.8628 8.05361 17.0629 8.22931 17.1376 8.46614C17.2126 8.70334 17.1489 8.96253 16.9726 9.13801L14.5411 11.5696L15.1613 15.9068C15.1964 16.1532 15.0913 16.3988 14.8886 16.5437C14.6868 16.6886 14.421 16.7092 14.1992 16.597L10.5466 14.7464L6.7938 16.5995C6.70213 16.6451 6.60111 16.6687 6.49872 16.6687Z" fill="#F5CA20" style="fill:#F5CA20;fill:color(display-p3 0.9608 0.7937 0.1255);fill-opacity:1;"/>
</svg>
