<svg width="100%" height="100%" style="overflow:visible;" preserveAspectRatio="none" viewBox="0 0 19.4 19.4" fill="none" xmlns="http://www.w3.org/2000/svg">
<path d="M5.89764 16.6687C5.75695 16.6687 5.61982 16.6244 5.50586 16.5419C5.30537 16.3965 5.20202 16.1519 5.23745 15.9068L5.85679 11.5696L3.42526 9.13801C3.24861 8.96132 3.18555 8.70072 3.26188 8.4628C3.33799 8.22509 3.54076 8.05 3.78703 8.00934L7.45309 7.39748L9.30196 3.70052C9.41653 3.47423 9.64851 3.3315 9.90213 3.33124C10.156 3.33263 10.3871 3.47806 10.4981 3.70635L12.2679 7.34246L16.0172 8.01017C16.2618 8.05361 16.4618 8.22931 16.5365 8.46614C16.6115 8.70334 16.5479 8.96253 16.3715 9.13801L13.94 11.5696L14.5602 15.9068C14.5953 16.1532 14.4903 16.3988 14.2875 16.5437C14.0858 16.6886 13.82 16.7092 13.5982 16.597L9.94548 14.7464L6.19272 16.5995C6.10106 16.6451 6.00004 16.6687 5.89764 16.6687Z" fill="#F5CA20" style="fill:#F5CA20;fill:color(display-p3 0.9608 0.7937 0.1255);fill-opacity:1;"/>
</svg>
