<svg width="100%" height="100%" style="overflow:visible;" preserveAspectRatio="none" viewBox="0 0 19.4 19.4" fill="none" xmlns="http://www.w3.org/2000/svg">
<path d="M5.69793 16.6687C5.55724 16.6687 5.42011 16.6244 5.30616 16.5419C5.10566 16.3965 5.00231 16.1519 5.03774 15.9068L5.65708 11.5696L3.22555 9.13801C3.04891 8.96132 2.98584 8.70072 3.06217 8.4628C3.13828 8.22509 3.34106 8.05 3.58732 8.00934L7.25338 7.39748L9.10226 3.70052C9.21682 3.47423 9.4488 3.3315 9.70242 3.33124C9.9563 3.33263 10.1874 3.47806 10.2984 3.70635L12.0681 7.34246L15.8175 8.01017C16.0621 8.05361 16.2621 8.22931 16.3368 8.46614C16.4118 8.70334 16.3481 8.96253 16.1718 9.13801L13.7403 11.5696L14.3605 15.9068C14.3956 16.1532 14.2906 16.3988 14.0878 16.5437C13.886 16.6886 13.6202 16.7092 13.3985 16.597L9.74577 14.7464L5.99302 16.5995C5.90135 16.6451 5.80033 16.6687 5.69793 16.6687Z" fill="#F5CA20" style="fill:#F5CA20;fill:color(display-p3 0.9608 0.7937 0.1255);fill-opacity:1;"/>
</svg>
