<svg width="100%" height="100%" style="overflow:visible;" preserveAspectRatio="none" viewBox="0 0 48.73 48.73" fill="none" xmlns="http://www.w3.org/2000/svg" xmlns:xlink="http://www.w3.org/1999/xlink">
<path d="M47.9444 24.7127C47.9444 37.7142 37.4046 48.2539 24.4031 48.2539C11.4017 48.2539 0.861897 37.7142 0.861897 24.7127C0.861897 11.7112 11.4017 1.17147 24.4031 1.17147C37.4046 1.17147 47.9444 11.7112 47.9444 24.7127Z" fill="#D9D9D9" style="fill:#D9D9D9;fill:color(display-p3 0.8510 0.8510 0.8510);fill-opacity:1;"/>
<path d="M47.9444 24.7127C47.9444 37.7142 37.4046 48.2539 24.4031 48.2539C11.4017 48.2539 0.861897 37.7142 0.861897 24.7127C0.861897 11.7112 11.4017 1.17147 24.4031 1.17147C37.4046 1.17147 47.9444 11.7112 47.9444 24.7127Z" fill="url(#pattern0_2835_3217)" style=""/>
<path d="M47.9444 24.7127C47.9444 37.7142 37.4046 48.2539 24.4031 48.2539C11.4017 48.2539 0.861897 37.7142 0.861897 24.7127C0.861897 11.7112 11.4017 1.17147 24.4031 1.17147C37.4046 1.17147 47.9444 11.7112 47.9444 24.7127Z" stroke="#0B0B0B" style="stroke:#0B0B0B;stroke:color(display-p3 0.0417 0.0417 0.0417);stroke-opacity:1;" stroke-width="1.65202"/>
<defs>
<pattern id="pattern0_2835_3217" patternContentUnits="objectBoundingBox" width="1" height="1">
<use xlink:href="#image0_2835_3217" transform="translate(-0.0542763 -0.475099) scale(0.00106142)"/>
</pattern>
<image id="image0_2835_3217" width="1080" height="1440" preserveAspectRatio="none" xlink:href="/assets/ellipse-1.png"/>
</defs>
</svg>
