<svg width="100%" height="100%" style="overflow:visible;" preserveAspectRatio="none" viewBox="0 0 48.73 48.73" fill="none" xmlns="http://www.w3.org/2000/svg" xmlns:xlink="http://www.w3.org/1999/xlink">
<path d="M48.1382 24.7127C48.1382 37.7142 37.5984 48.2539 24.597 48.2539C11.5955 48.2539 1.05574 37.7142 1.05574 24.7127C1.05574 11.7112 11.5955 1.17147 24.597 1.17147C37.5984 1.17147 48.1382 11.7112 48.1382 24.7127Z" fill="#D9D9D9" style="fill:#D9D9D9;fill:color(display-p3 0.8510 0.8510 0.8510);fill-opacity:1;"/>
<path d="M48.1382 24.7127C48.1382 37.7142 37.5984 48.2539 24.597 48.2539C11.5955 48.2539 1.05574 37.7142 1.05574 24.7127C1.05574 11.7112 11.5955 1.17147 24.597 1.17147C37.5984 1.17147 48.1382 11.7112 48.1382 24.7127Z" fill="url(#pattern0_2835_3218)" style=""/>
<path d="M48.1382 24.7127C48.1382 37.7142 37.5984 48.2539 24.597 48.2539C11.5955 48.2539 1.05574 37.7142 1.05574 24.7127C1.05574 11.7112 11.5955 1.17147 24.597 1.17147C37.5984 1.17147 48.1382 11.7112 48.1382 24.7127Z" stroke="#0B0B0B" style="stroke:#0B0B0B;stroke:color(display-p3 0.0417 0.0417 0.0417);stroke-opacity:1;" stroke-width="1.65202"/>
<defs>
<pattern id="pattern0_2835_3218" patternContentUnits="objectBoundingBox" width="1" height="1">
<use xlink:href="#image0_2835_3218" transform="translate(0 -0.166667) scale(0.000925926)"/>
</pattern>
<image id="image0_2835_3218" width="1080" height="1440" preserveAspectRatio="none" xlink:href="/assets/ellipse-2.png"/>
</defs>
</svg>
