<svg width="100%" height="100%" style="overflow:visible;" preserveAspectRatio="none" viewBox="0 0 9.9 9.9" fill="none" xmlns="http://www.w3.org/2000/svg">
<mask id="path-1-inside-1_3215_530" fill="white">
<path d="M7.46539 2.51633C7.14593 2.18587 6.7645 1.92158 6.34289 1.73854C5.92129 1.5555 5.46776 1.45729 5.0082 1.44952C4.54864 1.44175 4.09205 1.52457 3.66449 1.69326C3.23694 1.86195 2.8468 2.1132 2.51635 2.43267C2.1859 2.75213 1.92161 3.13356 1.73856 3.55516C1.55552 3.97677 1.45731 4.4303 1.44954 4.88986C1.44177 5.34942 1.5246 5.80601 1.69329 6.23356C1.86197 6.66112 2.11322 7.05126 2.43269 7.38171L4.94904 4.94902L7.46539 2.51633Z"/>
</mask>
<path d="M7.46539 2.51633C7.14593 2.18587 6.7645 1.92158 6.34289 1.73854C5.92129 1.5555 5.46776 1.45729 5.0082 1.44952C4.54864 1.44175 4.09205 1.52457 3.66449 1.69326C3.23694 1.86195 2.8468 2.1132 2.51635 2.43267C2.1859 2.75213 1.92161 3.13356 1.73856 3.55516C1.55552 3.97677 1.45731 4.4303 1.44954 4.88986C1.44177 5.34942 1.5246 5.80601 1.69329 6.23356C1.86197 6.66112 2.11322 7.05126 2.43269 7.38171L4.94904 4.94902L7.46539 2.51633Z" stroke="#3A31C5" style="stroke:#3A31C5;stroke:color(display-p3 0.2280 0.1915 0.7728);stroke-opacity:1;" stroke-width="2" mask="url(#path-1-inside-1_3215_530)"/>
</svg>
