<svg width="100%" height="100%" style="overflow:visible;" preserveAspectRatio="none" viewBox="0 0 20 20" fill="none" xmlns="http://www.w3.org/2000/svg">
<path d="M5.03561 19.9303C5.29439 20.0692 5.61525 19.9947 5.78693 19.7579L15.1619 6.82829C15.2912 6.65001 15.3095 6.41427 15.2095 6.21806C15.1094 6.02189 14.9078 5.89838 14.6876 5.89838H12.2033L15.1908 0.885895C15.2988 0.704841 15.3011 0.479764 15.197 0.296483C15.0929 0.113203 14.8983 0 14.6876 0H7.65634C7.38724 0 7.15275 0.183281 7.08775 0.444373L4.74401 9.8584C4.70045 10.0334 4.7399 10.2187 4.85092 10.3608C4.96197 10.5029 5.13225 10.5859 5.31256 10.5859H7.98391L4.76369 19.209C4.66111 19.4836 4.77729 19.7918 5.03561 19.9303ZM9.37711 10.205C9.44434 10.0251 9.41906 9.82367 9.30957 9.6659C9.20008 9.50813 9.02024 9.41403 8.82821 9.41403H6.06228L8.11427 1.17187H13.6562L10.6687 6.18435C10.5607 6.36541 10.5584 6.59048 10.6625 6.77376C10.7666 6.95704 10.9612 7.07025 11.172 7.07025H13.539L7.37095 15.577L9.37711 10.205Z" fill="#3A31C5" style="fill:#3A31C5;fill:color(display-p3 0.2280 0.1915 0.7728);fill-opacity:1;"/>
</svg>
