<svg width="100%" height="100%" style="overflow:visible;" preserveAspectRatio="none" viewBox="0 0 19 19" fill="none" xmlns="http://www.w3.org/2000/svg">
<g clip-path="url(#clip0_2945_2590)">
<path d="M17.7145 11.3573C17.4803 11.6283 17.1907 11.8461 16.8653 11.9959C16.5399 12.1456 16.1861 12.224 15.8279 12.2256C15.8012 12.2256 15.776 12.2256 15.7492 12.2241C15.7099 12.2235 15.6724 12.2073 15.6449 12.179C15.6175 12.1508 15.6025 12.1128 15.6031 12.0734C15.6037 12.034 15.6199 11.9965 15.6482 11.9691C15.6765 11.9417 15.7145 11.9266 15.7538 11.9273H15.7581C15.7819 11.9287 15.8042 11.9287 15.8279 11.9287C17.0748 11.9287 18.0886 10.8719 18.0886 9.57304C18.092 9.25833 18.0324 8.94611 17.9134 8.65476C17.7943 8.36342 17.6182 8.09882 17.3954 7.87655C17.3858 7.86641 17.3778 7.8549 17.3717 7.84241C17.3717 7.84092 17.3702 7.83944 17.3702 7.83795C17.3597 7.81874 17.3537 7.7974 17.3527 7.77555C17.3517 7.7537 17.3556 7.73189 17.3642 7.71178C17.4402 7.47274 17.4787 7.22339 17.4785 6.97256C17.4785 5.67077 16.4632 4.61404 15.2165 4.61404C13.9698 4.61404 12.9543 5.67077 12.9543 6.97256C12.9543 7.01193 12.9387 7.04969 12.9108 7.07752C12.883 7.10536 12.8452 7.121 12.8059 7.121C12.7665 7.121 12.7287 7.10536 12.7009 7.07752C12.6731 7.04969 12.6574 7.01193 12.6574 6.97256C12.6574 5.50749 13.8049 4.31716 15.2165 4.31716H15.2284C15.3057 4.10242 15.3453 3.87595 15.3456 3.64771C15.3456 2.64873 14.6168 1.83529 13.7232 1.83529C13.4251 1.8426 13.1349 1.93268 12.8851 2.09547C12.6353 2.25827 12.4357 2.48734 12.3086 2.75709C12.3001 2.77469 12.2882 2.7904 12.2735 2.80328C12.2588 2.81616 12.2416 2.82594 12.223 2.83204C12.2045 2.83814 12.1849 2.84043 12.1654 2.83877C12.1459 2.83711 12.127 2.83155 12.1097 2.8224C12.0747 2.8046 12.0482 2.77369 12.036 2.73642C12.0238 2.69915 12.0268 2.65855 12.0444 2.62349C12.1922 2.31332 12.4212 2.04891 12.7071 1.8583C12.993 1.66769 13.3251 1.55798 13.6683 1.54079C12.9656 1.05095 11.6035 0.230829 10.67 0.493563C10.2841 0.603407 10.0154 0.883954 9.84766 1.3545V4.85466C9.99656 4.64812 10.2009 4.48801 10.4371 4.39291C10.6733 4.2978 10.9316 4.27159 11.1821 4.31731C11.2213 4.32223 11.2569 4.34251 11.2811 4.37369C11.3053 4.40487 11.3162 4.44439 11.3113 4.48356C11.3063 4.52273 11.286 4.55835 11.2549 4.58256C11.2237 4.60678 11.1842 4.61762 11.145 4.6127C10.1237 4.48356 9.87586 5.4067 9.84766 5.52545V16.4588C9.84766 18.1033 11.0545 19.4424 12.5387 19.4424C13.5095 19.4424 14.4001 18.8516 14.8617 17.9016C14.8632 17.8986 14.8662 17.8971 14.8677 17.8941C14.8727 17.886 14.8787 17.8786 14.8855 17.8719C14.8911 17.8643 14.8976 17.8573 14.9048 17.8511C14.9116 17.8458 14.9191 17.8413 14.927 17.8377C14.9357 17.8323 14.9453 17.8283 14.9552 17.8259L14.9641 17.8214C15.4844 17.6976 15.9472 17.4008 16.2768 16.9796C16.6063 16.5584 16.783 16.0377 16.7779 15.503C16.7765 15.321 16.7546 15.1397 16.7126 14.9627C16.7133 14.9572 16.7133 14.9517 16.7126 14.9463C16.7119 14.9369 16.7119 14.9275 16.7126 14.9181C16.7128 14.9101 16.7138 14.9022 16.7156 14.8944C16.719 14.8814 16.7239 14.869 16.7304 14.8573C16.7318 14.8535 16.7338 14.85 16.7363 14.8469C16.7457 14.8333 16.7573 14.8212 16.7705 14.8113L16.7735 14.8083C16.7809 14.8038 16.7853 14.7979 16.7927 14.7934C17.0894 14.6389 17.3508 14.4244 17.5602 14.1635C17.7696 13.9027 17.9225 13.6011 18.0091 13.278C18.0958 12.9549 18.1144 12.6173 18.0637 12.2867C18.013 11.956 17.8941 11.6395 17.7145 11.3573ZM14.2205 14.5574C14.0173 14.564 13.8154 14.5914 13.6178 14.6391C13.5906 14.6638 13.5552 14.6776 13.5184 14.6777H13.5148C13.5052 14.6771 13.4957 14.6751 13.4866 14.6717C12.7875 14.8662 11.8404 15.3916 11.8523 16.8092C11.8523 16.8487 11.8367 16.8866 11.8089 16.9147C11.7811 16.9427 11.7434 16.9587 11.7039 16.9591C11.6845 16.9593 11.6652 16.9555 11.6473 16.9482C11.6293 16.9409 11.613 16.9301 11.5992 16.9165C11.5854 16.9028 11.5744 16.8866 11.5669 16.8687C11.5594 16.8508 11.5555 16.8316 11.5554 16.8122C11.5422 15.2432 12.5841 14.6391 13.3679 14.406C13.3396 11.9555 11.1489 11.7269 11.0539 11.718C11.0146 11.714 10.9785 11.6949 10.9533 11.6647C10.928 11.6344 10.9156 11.5954 10.9188 11.5562C10.9225 11.517 10.9417 11.4809 10.972 11.4559C11.0024 11.4308 11.0414 11.4188 11.0806 11.4226C11.1058 11.4241 13.5905 11.6734 13.6634 14.3319C13.8455 14.2922 14.0308 14.2684 14.2171 14.2607H14.2185C14.2579 14.2605 14.2957 14.2759 14.3237 14.3036C14.3517 14.3313 14.3675 14.369 14.3677 14.4084C14.3679 14.4478 14.3525 14.4856 14.3248 14.5136C14.2971 14.5415 14.2594 14.5574 14.22 14.5576L14.2205 14.5574ZM15.2165 10.7234H15.2061C13.6891 10.6151 13.3566 9.41421 13.2883 9.01209C12.6323 8.95083 12.025 8.63997 11.5916 8.14373C11.5673 8.11383 11.5555 8.07562 11.5588 8.03718C11.5622 7.99875 11.5803 7.96312 11.6094 7.93784C11.6386 7.91256 11.6764 7.89962 11.7149 7.90175C11.7535 7.90389 11.7896 7.92094 11.8158 7.94928C12.0309 8.19525 12.2964 8.39212 12.5942 8.52657C12.8921 8.66102 13.2153 8.72991 13.5421 8.72858C14.1298 8.7374 14.697 8.5128 15.1194 8.10404C15.5418 7.69528 15.7848 7.13571 15.7953 6.54803C15.7953 6.50866 15.8109 6.47091 15.8387 6.44307C15.8666 6.41523 15.9043 6.39959 15.9437 6.39959C15.9831 6.39959 16.0208 6.41523 16.0486 6.44307C16.0765 6.47091 16.0921 6.50866 16.0921 6.54803C16.0818 7.20599 15.8138 7.83366 15.3458 8.29623C14.8778 8.75881 14.2471 9.0194 13.589 9.02204C13.6618 9.40486 13.9675 10.337 15.2263 10.4261C15.2657 10.4275 15.3029 10.4444 15.3297 10.4733C15.3566 10.5021 15.3709 10.5404 15.3695 10.5797C15.3682 10.6191 15.3512 10.6563 15.3224 10.6832C15.2936 10.71 15.2553 10.7244 15.2159 10.723L15.2165 10.7234Z" fill="white" style="fill:white;fill-opacity:1;"/>
<path d="M8.21788 4.31662C8.46832 4.27063 8.72667 4.29677 8.96282 4.39202C9.19896 4.48726 9.40316 4.64768 9.5516 4.85456V1.35441C9.38535 0.884007 9.11519 0.603461 8.73074 0.493468C7.79484 0.229398 6.43233 1.051 5.73022 1.54084C6.07348 1.55814 6.4057 1.66781 6.69179 1.85828C6.97788 2.04875 7.20723 2.31294 7.35561 2.62295C7.37333 2.65819 7.37632 2.69902 7.36393 2.73646C7.35154 2.7739 7.32479 2.80489 7.28956 2.8226C7.25432 2.84032 7.21349 2.84331 7.17605 2.83092C7.13861 2.81853 7.10762 2.79178 7.08991 2.75655C6.96298 2.48699 6.76361 2.25803 6.51406 2.09525C6.26452 1.93247 5.97463 1.84228 5.67678 1.83475C4.7817 1.83475 4.05436 2.64819 4.05436 3.64717C4.05394 3.87547 4.09363 4.10206 4.17163 4.31662H4.1835C5.59366 4.31662 6.74256 5.50694 6.74256 6.97202C6.74256 7.01139 6.72693 7.04915 6.69909 7.07698C6.67125 7.10482 6.63349 7.12046 6.59413 7.12046C6.55476 7.12046 6.517 7.10482 6.48917 7.07698C6.46133 7.04915 6.44569 7.01139 6.44569 6.97202C6.44569 5.67023 5.43038 4.6135 4.1835 4.6135C2.93663 4.6135 1.91998 5.67082 1.91998 6.97262C1.91977 7.22344 1.95832 7.47279 2.03427 7.71184C2.0431 7.73184 2.04729 7.75358 2.04651 7.77543C2.04574 7.79728 2.04004 7.81868 2.02982 7.83801C2.02871 7.84024 2.0272 7.84225 2.02537 7.84395C2.02024 7.85623 2.01266 7.86734 2.0031 7.8766C1.78045 8.09893 1.60455 8.36356 1.48575 8.65492C1.36695 8.94628 1.30767 9.25847 1.31138 9.57309C1.31138 10.8719 2.32521 11.9288 3.57209 11.9288C3.5942 11.9288 3.61795 11.9288 3.64022 11.9273C3.67911 11.9278 3.71639 11.9429 3.7447 11.9695C3.77301 11.9962 3.79029 12.0325 3.79311 12.0713C3.79388 12.0908 3.79076 12.1103 3.78392 12.1286C3.77708 12.1469 3.76666 12.1637 3.75327 12.1779C3.73987 12.1921 3.72378 12.2036 3.70593 12.2115C3.68807 12.2195 3.66881 12.2238 3.64927 12.2242C3.62389 12.2257 3.59717 12.2257 3.57209 12.2257C3.2137 12.224 2.85983 12.1456 2.53424 11.9959C2.20865 11.8461 1.91888 11.6284 1.68441 11.3573C1.5054 11.6397 1.38693 11.9562 1.3365 12.2867C1.28606 12.6173 1.30475 12.9547 1.39138 13.2776C1.47802 13.6006 1.63071 13.9021 1.83982 14.163C2.04892 14.4239 2.30988 14.6386 2.6062 14.7935C2.61291 14.7981 2.61935 14.803 2.6255 14.8083C2.62699 14.8098 2.62847 14.8098 2.62995 14.8113C2.6428 14.8217 2.65428 14.8337 2.6641 14.8469C2.6655 14.8507 2.66751 14.8542 2.67003 14.8573C2.67602 14.8691 2.68051 14.8815 2.68339 14.8944C2.68572 14.9022 2.68722 14.9101 2.68784 14.9182C2.68809 14.9276 2.68759 14.937 2.68636 14.9464C2.6871 14.9518 2.6871 14.9573 2.68636 14.9627C2.64508 15.1399 2.62318 15.3211 2.62105 15.503C2.61603 16.0379 2.79288 16.5587 3.12261 16.9799C3.45233 17.4012 3.91538 17.6979 4.43584 17.8215C4.43866 17.8232 4.44164 17.8247 4.44475 17.8259C4.45392 17.8293 4.46285 17.8332 4.47147 17.8378C4.47969 17.8417 4.48763 17.8461 4.49522 17.8512C4.50155 17.8572 4.5075 17.8637 4.51303 17.8705C4.52062 17.8779 4.52711 17.8864 4.53233 17.8957C4.53381 17.8972 4.53678 17.8987 4.53678 17.9016C4.99991 18.8516 5.88905 19.4424 6.86131 19.4424C8.34406 19.4424 9.5516 18.1035 9.5516 16.4588V5.52535C9.52488 5.4066 9.27699 4.48495 8.25425 4.61261C8.21508 4.61733 8.17564 4.6063 8.1446 4.58195C8.11356 4.55759 8.09347 4.5219 8.08874 4.48273C8.08402 4.44355 8.09505 4.40411 8.11941 4.37307C8.14377 4.34203 8.17946 4.32194 8.21863 4.31722L8.21788 4.31662ZM4.19389 10.7235H4.1835C4.14413 10.7249 4.10583 10.7105 4.07702 10.6837C4.04821 10.6568 4.03125 10.6196 4.02987 10.5802C4.02849 10.5409 4.04281 10.5026 4.06967 10.4738C4.09653 10.4449 4.13374 10.428 4.17311 10.4266C5.43038 10.3375 5.73764 9.40536 5.81038 9.02254C5.15214 9.02005 4.52113 8.75948 4.05293 8.2968C3.58472 7.83412 3.31668 7.20625 3.30638 6.54809C3.30638 6.50872 3.32202 6.47096 3.34986 6.44312C3.3777 6.41529 3.41545 6.39965 3.45482 6.39965C3.49419 6.39965 3.53195 6.41529 3.55978 6.44312C3.58762 6.47096 3.60326 6.50872 3.60326 6.54809C3.61372 7.13578 3.8568 7.69535 4.27919 8.1041C4.70158 8.51286 5.26882 8.73745 5.85654 8.72863C6.18337 8.73027 6.50671 8.66151 6.8046 8.52704C7.10248 8.39257 7.36792 8.19554 7.58287 7.94934C7.59535 7.9337 7.61087 7.92074 7.62848 7.91125C7.6461 7.90176 7.66545 7.89593 7.68537 7.89411C7.7053 7.89229 7.72539 7.89452 7.74443 7.90066C7.76348 7.9068 7.78108 7.91673 7.79619 7.92984C7.8113 7.94296 7.8236 7.959 7.83236 7.97699C7.84111 7.99498 7.84614 8.01456 7.84714 8.03454C7.84813 8.05453 7.84508 8.0745 7.83816 8.09328C7.83124 8.11205 7.82059 8.12923 7.80686 8.14379C7.3742 8.63999 6.76734 8.95089 6.11185 9.01215C6.04194 9.41427 5.71092 10.6151 4.19389 10.7235ZM8.31956 11.4226C8.3389 11.4206 8.35844 11.4226 8.37704 11.4282C8.39563 11.4339 8.4129 11.4432 8.42783 11.4557C8.44277 11.4681 8.45506 11.4834 8.464 11.5007C8.47294 11.518 8.47834 11.5368 8.47988 11.5562C8.4833 11.5956 8.47102 11.6347 8.44571 11.665C8.4204 11.6953 8.38412 11.7144 8.3448 11.718C8.25128 11.7269 6.05886 11.9555 6.03081 14.4061C6.81456 14.6391 7.85659 15.2433 7.84456 16.8122C7.84417 16.8514 7.82836 16.8887 7.80057 16.9162C7.77277 16.9438 7.73524 16.9592 7.69613 16.9592H7.69464C7.67515 16.959 7.65588 16.955 7.63795 16.9473C7.62001 16.9397 7.60376 16.9286 7.59011 16.9147C7.57647 16.9007 7.5657 16.8843 7.55842 16.8662C7.55114 16.8481 7.54749 16.8288 7.54769 16.8093C7.55808 15.3902 6.61565 14.8662 5.91488 14.6718C5.90467 14.6746 5.89424 14.6766 5.8837 14.6777H5.88222C5.86302 14.678 5.84395 14.6744 5.82612 14.6673C5.80829 14.6602 5.79204 14.6496 5.77831 14.6361C5.58212 14.5896 5.38167 14.5632 5.18011 14.5575C5.14074 14.5573 5.10307 14.5415 5.07537 14.5135C5.04767 14.4855 5.03222 14.4477 5.03242 14.4083C5.03261 14.3689 5.04844 14.3313 5.07642 14.3036C5.10439 14.2759 5.14223 14.2604 5.1816 14.2606H5.18308C5.36887 14.2682 5.55363 14.2921 5.73527 14.3319C5.80889 11.6735 8.2921 11.4241 8.31956 11.4226Z" fill="white" style="fill:white;fill-opacity:1;"/>
</g>
<defs>
<clipPath id="clip0_2945_2590">
<rect width="19" height="19" fill="white" style="fill:white;fill-opacity:1;" transform="translate(0.199951 0.442383)"/>
</clipPath>
</defs>
</svg>
