<svg width="100%" height="100%" style="overflow:visible;" preserveAspectRatio="none" viewBox="0 0 19 19" fill="none" xmlns="http://www.w3.org/2000/svg">
<g clip-path="url(#clip0_2945_2618)">
<path d="M17.5146 11.598C17.2804 11.869 16.9908 12.0868 16.6654 12.2366C16.3399 12.3864 15.9862 12.4647 15.628 12.4663C15.6012 12.4663 15.576 12.4663 15.5493 12.4649C15.5099 12.4642 15.4724 12.448 15.445 12.4198C15.4176 12.3915 15.4025 12.3535 15.4031 12.3141C15.4038 12.2747 15.42 12.2372 15.4483 12.2098C15.4765 12.1824 15.5145 12.1674 15.5539 12.168H15.5582C15.5819 12.1695 15.6042 12.1695 15.628 12.1695C16.8748 12.1695 17.8887 11.1126 17.8887 9.81376C17.8921 9.49905 17.8325 9.18683 17.7134 8.89549C17.5944 8.60414 17.4183 8.33954 17.1955 8.11727C17.1859 8.10713 17.1779 8.09563 17.1717 8.08313C17.1717 8.08165 17.1702 8.08016 17.1702 8.07868C17.1598 8.05946 17.1538 8.03813 17.1528 8.01627C17.1517 7.99442 17.1557 7.97262 17.1643 7.9525C17.2402 7.71346 17.2788 7.46411 17.2786 7.21329C17.2786 5.91149 16.2633 4.85476 15.0165 4.85476C13.7698 4.85476 12.7544 5.91149 12.7544 7.21329C12.7544 7.25265 12.7387 7.29041 12.7109 7.31825C12.683 7.34608 12.6453 7.36172 12.6059 7.36172C12.5665 7.36172 12.5288 7.34608 12.501 7.31825C12.4731 7.29041 12.4575 7.25265 12.4575 7.21329C12.4575 5.74821 13.6049 4.55789 15.0165 4.55789H15.0284C15.1057 4.34314 15.1454 4.11667 15.1457 3.88843C15.1457 2.88945 14.4169 2.07601 13.5233 2.07601C13.2252 2.08332 12.935 2.17341 12.6852 2.3362C12.4353 2.49899 12.2357 2.72806 12.1086 2.99781C12.1002 3.01541 12.0882 3.03113 12.0735 3.04401C12.0588 3.05689 12.0417 3.06667 12.0231 3.07276C12.0045 3.07886 11.9849 3.08115 11.9654 3.07949C11.946 3.07784 11.927 3.07227 11.9097 3.06312C11.8748 3.04533 11.8483 3.01442 11.836 2.97714C11.8238 2.93987 11.8268 2.89927 11.8444 2.86422C11.9923 2.55404 12.2213 2.28963 12.5071 2.09902C12.793 1.90842 13.1252 1.7987 13.4683 1.78151C12.7656 1.29167 11.4036 0.471551 10.47 0.734286C10.0841 0.844129 9.81544 1.12468 9.64771 1.59522V5.09538C9.79661 4.88884 10.001 4.72874 10.2372 4.63363C10.4734 4.53853 10.7317 4.51231 10.9822 4.55804C11.0213 4.56296 11.0569 4.58324 11.0812 4.61441C11.1054 4.64559 11.1162 4.68511 11.1113 4.72429C11.1064 4.76346 11.0861 4.79907 11.0549 4.82329C11.0237 4.84751 10.9842 4.85835 10.945 4.85343C9.9238 4.72429 9.67591 5.64742 9.64771 5.76617V16.6995C9.64771 18.344 10.8545 19.6831 12.3387 19.6831C13.3095 19.6831 14.2001 19.0923 14.6618 18.1423C14.6633 18.1393 14.6662 18.1378 14.6677 18.1349C14.6727 18.1268 14.6787 18.1193 14.6855 18.1126C14.6912 18.105 14.6976 18.098 14.7048 18.0918C14.7117 18.0865 14.7192 18.082 14.7271 18.0785C14.7358 18.073 14.7453 18.069 14.7553 18.0666L14.7642 18.0621C15.2845 17.9384 15.7473 17.6415 16.0768 17.2203C16.4063 16.7991 16.583 16.2785 16.578 15.7437C16.5766 15.5617 16.5547 15.3805 16.5126 15.2034C16.5134 15.198 16.5134 15.1925 16.5126 15.1871C16.5119 15.1777 16.5119 15.1682 16.5126 15.1588C16.5128 15.1509 16.5138 15.1429 16.5156 15.1351C16.519 15.1222 16.524 15.1097 16.5305 15.098C16.5319 15.0942 16.5339 15.0907 16.5364 15.0876C16.5458 15.074 16.5573 15.0619 16.5705 15.052L16.5735 15.049C16.5809 15.0446 16.5854 15.0386 16.5928 15.0342C16.8895 14.8796 17.1508 14.6651 17.3602 14.4043C17.5696 14.1434 17.7225 13.8418 17.8092 13.5187C17.8959 13.1956 17.9144 12.8581 17.8637 12.5274C17.813 12.1968 17.6941 11.8802 17.5146 11.598ZM14.0205 14.7981C13.8174 14.8048 13.6155 14.8321 13.4179 14.8798C13.3906 14.9045 13.3552 14.9183 13.3184 14.9184H13.3149C13.3052 14.9178 13.2957 14.9158 13.2867 14.9124C12.5875 15.1069 11.6405 15.6324 11.6524 17.0499C11.6523 17.0894 11.6367 17.1273 11.6089 17.1554C11.5811 17.1835 11.5434 17.1994 11.5039 17.1999C11.4845 17.2 11.4653 17.1963 11.4473 17.1889C11.4293 17.1816 11.413 17.1708 11.3992 17.1572C11.3854 17.1435 11.3745 17.1273 11.367 17.1094C11.3595 17.0915 11.3556 17.0723 11.3555 17.0529C11.3423 15.4839 12.3842 14.8798 13.1679 14.6467C13.1397 12.1962 10.9489 11.9676 10.8539 11.9587C10.8147 11.9548 10.7786 11.9356 10.7533 11.9054C10.7281 11.8751 10.7157 11.8362 10.7188 11.7969C10.7226 11.7577 10.7417 11.7217 10.7721 11.6966C10.8024 11.6716 10.8415 11.6596 10.8806 11.6633C10.9059 11.6648 13.3906 11.9142 13.4634 14.5727C13.6456 14.5329 13.8308 14.5091 14.0171 14.5014H14.0186C14.058 14.5012 14.0958 14.5167 14.1238 14.5444C14.1518 14.5721 14.1676 14.6097 14.1678 14.6491C14.168 14.6885 14.1525 14.7263 14.1248 14.7543C14.0971 14.7823 14.0594 14.7981 14.0201 14.7983L14.0205 14.7981ZM15.0165 10.9642H15.0062C13.4891 10.8558 13.1566 9.65493 13.0883 9.25282C12.4324 9.19155 11.825 8.88069 11.3917 8.38446C11.3673 8.35455 11.3556 8.31634 11.3589 8.27791C11.3622 8.23947 11.3804 8.20384 11.4095 8.17856C11.4386 8.15328 11.4765 8.14034 11.515 8.14248C11.5535 8.14461 11.5897 8.16166 11.6158 8.19C11.831 8.43597 12.0965 8.63284 12.3943 8.76729C12.6921 8.90174 13.0154 8.97063 13.3422 8.9693C13.9299 8.97812 14.4971 8.75352 14.9195 8.34476C15.3418 7.936 15.5849 7.37644 15.5953 6.78875C15.5953 6.74939 15.6109 6.71163 15.6388 6.68379C15.6666 6.65596 15.7044 6.64032 15.7437 6.64032C15.7831 6.64032 15.8209 6.65596 15.8487 6.68379C15.8765 6.71163 15.8922 6.74939 15.8922 6.78875C15.8818 7.44671 15.6139 8.07438 15.1459 8.53696C14.6779 8.99953 14.0471 9.26012 13.3891 9.26276C13.4618 9.64558 13.7676 10.5778 15.0263 10.6668C15.0657 10.6682 15.1029 10.6852 15.1298 10.714C15.1566 10.7428 15.171 10.7811 15.1696 10.8205C15.1682 10.8598 15.1512 10.897 15.1224 10.9239C15.0936 10.9508 15.0553 10.9651 15.0159 10.9637L15.0165 10.9642Z" fill="white" style="fill:white;fill-opacity:1;"/>
<path d="M8.01793 4.55686C8.26837 4.51086 8.52672 4.53701 8.76287 4.63225C8.99901 4.7275 9.2032 4.88791 9.35164 5.0948V1.59464C9.18539 1.12424 8.91524 0.843695 8.53079 0.733703C7.59489 0.469632 6.23238 1.29123 5.53027 1.78108C5.87353 1.79838 6.20575 1.90805 6.49184 2.09852C6.77793 2.28898 7.00728 2.55317 7.15566 2.86319C7.17338 2.89842 7.17637 2.93925 7.16398 2.97669C7.15159 3.01413 7.12484 3.04512 7.08961 3.06284C7.05437 3.08055 7.01354 3.08354 6.9761 3.07116C6.93866 3.05877 6.90767 3.03202 6.88996 2.99678C6.76303 2.72723 6.56366 2.49827 6.31411 2.33549C6.06457 2.17271 5.77468 2.08251 5.47683 2.07498C4.58175 2.07498 3.85441 2.88842 3.85441 3.88741C3.85398 4.1157 3.89368 4.3423 3.97168 4.55686H3.98355C5.39371 4.55686 6.54261 5.74718 6.54261 7.21226C6.54261 7.25163 6.52697 7.28938 6.49914 7.31722C6.4713 7.34506 6.43354 7.36069 6.39418 7.36069C6.35481 7.36069 6.31705 7.34506 6.28921 7.31722C6.26138 7.28938 6.24574 7.25163 6.24574 7.21226C6.24574 5.91046 5.23042 4.85373 3.98355 4.85373C2.73668 4.85373 1.72003 5.91105 1.72003 7.21285C1.71982 7.46367 1.75837 7.71302 1.83432 7.95207C1.84315 7.97207 1.84733 7.99382 1.84656 8.01567C1.84579 8.03752 1.84009 8.05891 1.82987 8.07824C1.82876 8.08048 1.82725 8.08249 1.82542 8.08418C1.82028 8.09646 1.81271 8.10757 1.80315 8.11684C1.5805 8.33916 1.4046 8.6038 1.2858 8.89516C1.167 9.18652 1.10772 9.4987 1.11143 9.81333C1.11143 11.1122 2.12526 12.169 3.37214 12.169C3.39425 12.169 3.418 12.169 3.44027 12.1675C3.47915 12.168 3.51644 12.1831 3.54475 12.2098C3.57306 12.2364 3.59034 12.2727 3.59316 12.3115C3.59393 12.3311 3.59081 12.3505 3.58397 12.3688C3.57713 12.3872 3.5667 12.4039 3.55331 12.4181C3.53992 12.4324 3.52383 12.4438 3.50598 12.4517C3.48812 12.4597 3.46886 12.464 3.44932 12.4644C3.42394 12.4659 3.39722 12.4659 3.37214 12.4659C3.01375 12.4642 2.65988 12.3859 2.33429 12.2361C2.0087 12.0863 1.71893 11.8686 1.48446 11.5975C1.30545 11.88 1.18698 12.1964 1.13654 12.527C1.08611 12.8575 1.1048 13.1949 1.19143 13.5179C1.27807 13.8408 1.43076 14.1423 1.63987 14.4032C1.84897 14.6641 2.10993 14.8788 2.40625 15.0337C2.41296 15.0383 2.4194 15.0433 2.42555 15.0486C2.42703 15.0501 2.42852 15.0501 2.43 15.0515C2.44285 15.0619 2.45433 15.0739 2.46414 15.0872C2.46555 15.0909 2.46756 15.0944 2.47008 15.0976C2.47607 15.1093 2.48056 15.1218 2.48344 15.1347C2.48577 15.1424 2.48727 15.1504 2.48789 15.1584C2.48814 15.1678 2.48764 15.1773 2.48641 15.1866C2.48715 15.192 2.48715 15.1975 2.48641 15.2029C2.44513 15.3802 2.42323 15.5613 2.4211 15.7433C2.41608 16.2782 2.59293 16.7989 2.92266 17.2202C3.25238 17.6414 3.71543 17.9381 4.23589 18.0617C4.2387 18.0635 4.24169 18.065 4.2448 18.0662C4.25397 18.0695 4.2629 18.0735 4.27152 18.078C4.27974 18.0819 4.28768 18.0864 4.29527 18.0914C4.3016 18.0974 4.30755 18.1039 4.31308 18.1107C4.32067 18.1182 4.32716 18.1266 4.33238 18.1359C4.33386 18.1374 4.33683 18.1389 4.33683 18.1419C4.79996 19.0919 5.6891 19.6826 6.66136 19.6826C8.1441 19.6826 9.35164 18.3437 9.35164 16.699V5.76559C9.32493 5.64684 9.07703 4.72519 8.0543 4.85284C8.01513 4.85757 7.97569 4.84654 7.94465 4.82218C7.91361 4.79782 7.89352 4.76213 7.88879 4.72296C7.88407 4.68379 7.8951 4.64435 7.91946 4.61331C7.94381 4.58227 7.9795 4.56218 8.01868 4.55745L8.01793 4.55686ZM3.99394 10.9637H3.98355C3.94418 10.9651 3.90588 10.9508 3.87707 10.9239C3.84826 10.8971 3.8313 10.8598 3.82992 10.8205C3.82854 10.7811 3.84286 10.7428 3.86972 10.714C3.89658 10.6852 3.93379 10.6682 3.97316 10.6668C5.23043 10.5778 5.53769 9.64559 5.61043 9.26277C4.95218 9.26029 4.32118 8.99971 3.85298 8.53703C3.38477 8.07435 3.11673 7.44649 3.10643 6.78832C3.10643 6.74895 3.12207 6.7112 3.14991 6.68336C3.17775 6.65552 3.2155 6.63988 3.25487 6.63988C3.29424 6.63988 3.33199 6.65552 3.35983 6.68336C3.38767 6.7112 3.40331 6.74895 3.40331 6.78832C3.41377 7.37602 3.65685 7.93558 4.07924 8.34434C4.50163 8.75309 5.06887 8.97768 5.65659 8.96887C5.98341 8.9705 6.30676 8.90174 6.60465 8.76727C6.90253 8.6328 7.16797 8.43577 7.38292 8.18957C7.3954 8.17393 7.41091 8.16098 7.42853 8.15149C7.44615 8.142 7.4655 8.13617 7.48542 8.13435C7.50535 8.13253 7.52544 8.13475 7.54448 8.14089C7.56353 8.14703 7.58113 8.15696 7.59624 8.17008C7.61135 8.18319 7.62365 8.19923 7.63241 8.21722C7.64116 8.23522 7.64619 8.25479 7.64718 8.27478C7.64818 8.29476 7.64513 8.31474 7.63821 8.33351C7.63128 8.35229 7.62064 8.36947 7.60691 8.38402C7.17425 8.88023 6.56739 9.19112 5.9119 9.25238C5.84199 9.6545 5.51097 10.8554 3.99394 10.9637ZM8.11961 11.6629C8.13895 11.6609 8.15849 11.6628 8.17708 11.6685C8.19568 11.6741 8.21295 11.6835 8.22788 11.6959C8.24282 11.7084 8.25511 11.7237 8.26405 11.7409C8.27299 11.7582 8.27838 11.7771 8.27993 11.7965C8.28335 11.8358 8.27107 11.8749 8.24576 11.9052C8.22045 11.9355 8.18417 11.9546 8.14485 11.9582C8.05133 11.9672 5.85891 12.1957 5.83085 14.6463C6.6146 14.8794 7.65664 15.4835 7.64461 17.0525C7.64422 17.0916 7.62841 17.129 7.60062 17.1565C7.57282 17.184 7.53529 17.1994 7.49618 17.1994H7.49469C7.4752 17.1992 7.45593 17.1952 7.438 17.1876C7.42006 17.1799 7.40381 17.1688 7.39016 17.1549C7.37652 17.141 7.36575 17.1245 7.35847 17.1064C7.35119 17.0883 7.34754 17.069 7.34774 17.0495C7.35813 15.6304 6.4157 15.1065 5.71493 14.912C5.70472 14.9148 5.69429 14.9168 5.68375 14.9179H5.68227C5.66306 14.9182 5.644 14.9147 5.62617 14.9075C5.60834 14.9004 5.59209 14.8898 5.57836 14.8764C5.38217 14.8298 5.18172 14.8035 4.98016 14.7977C4.94079 14.7975 4.90311 14.7817 4.87542 14.7537C4.84772 14.7257 4.83227 14.6879 4.83246 14.6485C4.83266 14.6092 4.84849 14.5715 4.87647 14.5438C4.90444 14.5161 4.94228 14.5006 4.98164 14.5008H4.98313C5.16891 14.5085 5.35368 14.5323 5.53532 14.5721C5.60894 11.9137 8.09215 11.6643 8.11961 11.6629Z" fill="white" style="fill:white;fill-opacity:1;"/>
</g>
<defs>
<clipPath id="clip0_2945_2618">
<rect width="19" height="19" fill="white" style="fill:white;fill-opacity:1;" transform="translate(0 0.682617)"/>
</clipPath>
</defs>
</svg>
