<svg width="100%" height="100%" style="overflow:visible;" preserveAspectRatio="none" viewBox="0 0 18 18" fill="none" xmlns="http://www.w3.org/2000/svg">
<g clip-path="url(#clip0_3394_492)">
<path d="M10.0827 18.3896H10.0776C7.39196 18.3714 5.32737 17.486 3.94018 15.7572C2.70531 14.2189 2.06874 12.0785 2.04736 9.39615V9.38314C2.06877 6.70016 2.70531 4.56034 3.94018 3.02211C5.3267 1.29327 7.39196 0.407789 10.0769 0.389648H10.0873C12.146 0.403254 13.8684 0.932848 15.2069 1.96226C16.4652 2.93007 17.3507 4.3095 17.8394 6.06295L16.3096 6.4895C15.4819 3.51996 13.3868 2.00181 10.0821 1.97783C7.90018 1.99337 6.25043 2.6792 5.17764 4.01588C4.17288 5.26761 3.65365 7.07552 3.63484 9.38902C3.65429 11.7032 4.17351 13.5111 5.17764 14.7622C6.25047 16.0988 7.90018 16.7846 10.0821 16.8002C12.0488 16.7859 13.3505 16.3277 14.4331 15.2671C15.6685 14.0569 15.6459 12.5724 15.2504 11.6695C15.0177 11.1373 14.595 10.6939 14.0252 10.3581C13.882 11.3707 13.5598 12.1926 13.062 12.8117C12.3982 13.6381 11.457 14.09 10.2655 14.1541C9.36384 14.2027 8.49523 13.9895 7.82107 13.5532C7.02373 13.0372 6.55703 12.2477 6.50711 11.3298C6.45849 10.4372 6.81244 9.61655 7.50344 9.01886C8.16399 8.44778 9.09289 8.11267 10.1903 8.05107C10.9993 8.00569 11.7558 8.04137 12.4552 8.15802C12.3625 7.60118 12.1746 7.15976 11.8945 6.84082C11.5095 6.40196 10.9137 6.1777 10.1249 6.1725H10.1028C9.46952 6.1725 8.60931 6.34621 8.06091 7.16169L6.74308 6.27558C7.47686 5.18461 8.66897 4.58435 10.1022 4.58435H10.1346C12.5311 4.59926 13.9579 6.06489 14.0998 8.62472C14.1814 8.65914 14.2612 8.69471 14.3403 8.7317C15.4585 9.25743 16.2759 10.0535 16.705 11.0336C17.3027 12.4 17.3578 14.6267 15.5434 16.4028C14.1575 17.7602 12.4747 18.3728 10.0873 18.389H10.0821L10.0827 18.3896ZM10.8347 9.62105C10.6532 9.62105 10.4691 9.62621 10.2811 9.63725C8.9036 9.71505 8.04534 10.3458 8.09396 11.2442C8.14518 12.1854 9.18362 12.623 10.1813 12.5692C11.0998 12.5199 12.2952 12.1627 12.4954 9.78632C11.9885 9.67811 11.4311 9.62105 10.8347 9.62105H10.8347Z" fill="white" style="fill:white;fill-opacity:1;"/>
</g>
<defs>
<clipPath id="clip0_3394_492">
<rect width="18" height="18" fill="white" style="fill:white;fill-opacity:1;" transform="translate(0.943359 0.389648)"/>
</clipPath>
</defs>
</svg>
