<svg width="100%" height="100%" style="overflow:visible;" preserveAspectRatio="none" viewBox="0 0 19 19" fill="none" xmlns="http://www.w3.org/2000/svg">
<g clip-path="url(#clip0_2945_2575)">
<path d="M18.1147 11.598C17.8805 11.869 17.5909 12.0868 17.2655 12.2366C16.94 12.3864 16.5863 12.4647 16.2281 12.4663C16.2013 12.4663 16.1761 12.4663 16.1494 12.4649C16.11 12.4642 16.0725 12.448 16.0451 12.4198C16.0177 12.3915 16.0026 12.3535 16.0032 12.3141C16.0039 12.2747 16.0201 12.2372 16.0483 12.2098C16.0766 12.1824 16.1146 12.1674 16.154 12.168H16.1583C16.182 12.1695 16.2043 12.1695 16.2281 12.1695C17.4749 12.1695 18.4888 11.1126 18.4888 9.81376C18.4922 9.49905 18.4326 9.18683 18.3135 8.89549C18.1945 8.60414 18.0184 8.33954 17.7956 8.11727C17.786 8.10713 17.778 8.09563 17.7718 8.08313C17.7718 8.08165 17.7703 8.08016 17.7703 8.07868C17.7599 8.05946 17.7539 8.03813 17.7529 8.01627C17.7518 7.99442 17.7558 7.97262 17.7644 7.9525C17.8403 7.71346 17.8789 7.46411 17.8787 7.21329C17.8787 5.91149 16.8634 4.85476 15.6166 4.85476C14.3699 4.85476 13.3545 5.91149 13.3545 7.21329C13.3545 7.25265 13.3388 7.29041 13.311 7.31825C13.2831 7.34608 13.2454 7.36172 13.206 7.36172C13.1666 7.36172 13.1289 7.34608 13.1011 7.31825C13.0732 7.29041 13.0576 7.25265 13.0576 7.21329C13.0576 5.74821 14.205 4.55789 15.6166 4.55789H15.6285C15.7058 4.34314 15.7455 4.11667 15.7458 3.88843C15.7458 2.88945 15.017 2.07601 14.1234 2.07601C13.8253 2.08332 13.5351 2.17341 13.2853 2.3362C13.0354 2.49899 12.8358 2.72806 12.7087 2.99781C12.7003 3.01541 12.6883 3.03113 12.6736 3.04401C12.6589 3.05689 12.6418 3.06667 12.6232 3.07276C12.6046 3.07886 12.585 3.08115 12.5655 3.07949C12.5461 3.07784 12.5271 3.07227 12.5098 3.06312C12.4749 3.04533 12.4484 3.01442 12.4361 2.97714C12.4239 2.93987 12.4269 2.89927 12.4445 2.86422C12.5924 2.55404 12.8214 2.28963 13.1072 2.09902C13.3931 1.90842 13.7253 1.7987 14.0684 1.78151C13.3657 1.29167 12.0037 0.471551 11.0701 0.734286C10.6842 0.844129 10.4155 1.12468 10.2478 1.59522V5.09538C10.3967 4.88884 10.6011 4.72874 10.8373 4.63363C11.0735 4.53853 11.3318 4.51231 11.5823 4.55804C11.6214 4.56296 11.657 4.58324 11.6813 4.61441C11.7055 4.64559 11.7163 4.68511 11.7114 4.72429C11.7065 4.76346 11.6862 4.79907 11.655 4.82329C11.6238 4.84751 11.5843 4.85835 11.5451 4.85343C10.5239 4.72429 10.276 5.64742 10.2478 5.76617V16.6995C10.2478 18.344 11.4546 19.6831 12.9388 19.6831C13.9096 19.6831 14.8002 19.0923 15.2619 18.1423C15.2634 18.1393 15.2663 18.1378 15.2678 18.1349C15.2728 18.1268 15.2788 18.1193 15.2856 18.1126C15.2913 18.105 15.2977 18.098 15.3049 18.0918C15.3118 18.0865 15.3193 18.082 15.3272 18.0785C15.3359 18.073 15.3454 18.069 15.3554 18.0666L15.3643 18.0621C15.8846 17.9384 16.3474 17.6415 16.6769 17.2203C17.0064 16.7991 17.1831 16.2785 17.1781 15.7437C17.1767 15.5617 17.1547 15.3805 17.1127 15.2034C17.1135 15.198 17.1135 15.1925 17.1127 15.1871C17.112 15.1777 17.112 15.1682 17.1127 15.1588C17.1129 15.1509 17.1139 15.1429 17.1157 15.1351C17.1191 15.1222 17.1241 15.1097 17.1306 15.098C17.132 15.0942 17.134 15.0907 17.1365 15.0876C17.1459 15.074 17.1574 15.0619 17.1706 15.052L17.1736 15.049C17.181 15.0446 17.1855 15.0386 17.1929 15.0342C17.4896 14.8796 17.7509 14.6651 17.9603 14.4043C18.1697 14.1434 18.3226 13.8418 18.4093 13.5187C18.496 13.1956 18.5145 12.8581 18.4638 12.5274C18.4131 12.1968 18.2942 11.8802 18.1147 11.598ZM14.6206 14.7981C14.4175 14.8048 14.2155 14.8321 14.018 14.8798C13.9907 14.9045 13.9553 14.9183 13.9185 14.9184H13.915C13.9053 14.9178 13.8958 14.9158 13.8867 14.9124C13.1876 15.1069 12.2406 15.6324 12.2525 17.0499C12.2524 17.0894 12.2368 17.1273 12.209 17.1554C12.1812 17.1835 12.1435 17.1994 12.104 17.1999C12.0846 17.2 12.0654 17.1963 12.0474 17.1889C12.0294 17.1816 12.0131 17.1708 11.9993 17.1572C11.9855 17.1435 11.9746 17.1273 11.9671 17.1094C11.9596 17.0915 11.9557 17.0723 11.9556 17.0529C11.9424 15.4839 12.9842 14.8798 13.768 14.6467C13.7398 12.1962 11.549 11.9676 11.454 11.9587C11.4148 11.9548 11.3787 11.9356 11.3534 11.9054C11.3282 11.8751 11.3158 11.8362 11.3189 11.7969C11.3227 11.7577 11.3418 11.7217 11.3722 11.6966C11.4025 11.6716 11.4416 11.6596 11.4807 11.6633C11.506 11.6648 13.9907 11.9142 14.0635 14.5727C14.2457 14.5329 14.4309 14.5091 14.6172 14.5014H14.6187C14.6581 14.5012 14.6959 14.5167 14.7239 14.5444C14.7518 14.5721 14.7677 14.6097 14.7679 14.6491C14.7681 14.6885 14.7526 14.7263 14.7249 14.7543C14.6972 14.7823 14.6595 14.7981 14.6202 14.7983L14.6206 14.7981ZM15.6166 10.9642H15.6062C14.0892 10.8558 13.7567 9.65493 13.6884 9.25282C13.0325 9.19155 12.4251 8.88069 11.9918 8.38446C11.9674 8.35455 11.9557 8.31634 11.959 8.27791C11.9623 8.23947 11.9805 8.20384 12.0096 8.17856C12.0387 8.15328 12.0766 8.14034 12.1151 8.14248C12.1536 8.14461 12.1898 8.16166 12.2159 8.19C12.4311 8.43597 12.6966 8.63284 12.9944 8.76729C13.2922 8.90174 13.6155 8.97063 13.9423 8.9693C14.53 8.97812 15.0972 8.75352 15.5196 8.34476C15.9419 7.936 16.185 7.37644 16.1954 6.78875C16.1954 6.74939 16.211 6.71163 16.2389 6.68379C16.2667 6.65596 16.3045 6.64032 16.3438 6.64032C16.3832 6.64032 16.421 6.65596 16.4488 6.68379C16.4766 6.71163 16.4923 6.74939 16.4923 6.78875C16.4819 7.44671 16.214 8.07438 15.746 8.53696C15.278 8.99953 14.6472 9.26012 13.9892 9.26276C14.0619 9.64558 14.3677 10.5778 15.6264 10.6668C15.6658 10.6682 15.703 10.6852 15.7299 10.714C15.7567 10.7428 15.7711 10.7811 15.7697 10.8205C15.7683 10.8598 15.7513 10.897 15.7225 10.9239C15.6937 10.9508 15.6554 10.9651 15.616 10.9637L15.6166 10.9642Z" fill="white" style="fill:white;fill-opacity:1;"/>
<path d="M8.61779 4.55686C8.86822 4.51086 9.12658 4.53701 9.36272 4.63225C9.59886 4.7275 9.80306 4.88791 9.9515 5.0948V1.59464C9.78525 1.12424 9.51509 0.843695 9.13064 0.733703C8.19474 0.469632 6.83223 1.29123 6.13012 1.78108C6.47338 1.79838 6.8056 1.90805 7.09169 2.09852C7.37778 2.28898 7.60713 2.55317 7.75551 2.86319C7.77323 2.89842 7.77622 2.93925 7.76383 2.97669C7.75145 3.01413 7.72469 3.04512 7.68946 3.06284C7.65422 3.08055 7.6134 3.08354 7.57595 3.07116C7.53851 3.05877 7.50753 3.03202 7.48981 2.99678C7.36288 2.72723 7.16351 2.49827 6.91397 2.33549C6.66442 2.17271 6.37453 2.08251 6.07668 2.07498C5.18161 2.07498 4.45426 2.88842 4.45426 3.88741C4.45384 4.1157 4.49353 4.3423 4.57153 4.55686H4.5834C5.99356 4.55686 7.14247 5.74718 7.14247 7.21226C7.14247 7.25163 7.12683 7.28938 7.09899 7.31722C7.07115 7.34506 7.0334 7.36069 6.99403 7.36069C6.95466 7.36069 6.9169 7.34506 6.88907 7.31722C6.86123 7.28938 6.84559 7.25163 6.84559 7.21226C6.84559 5.91046 5.83028 4.85373 4.5834 4.85373C3.33653 4.85373 2.31988 5.91105 2.31988 7.21285C2.31967 7.46367 2.35822 7.71302 2.43418 7.95207C2.443 7.97207 2.44719 7.99382 2.44642 8.01567C2.44565 8.03752 2.43994 8.05891 2.42972 8.07824C2.42861 8.08048 2.4271 8.08249 2.42527 8.08418C2.42014 8.09646 2.41256 8.10757 2.40301 8.11684C2.18035 8.33916 2.00445 8.6038 1.88565 8.89516C1.76685 9.18652 1.70757 9.4987 1.71129 9.81333C1.71129 11.1122 2.72511 12.169 3.97199 12.169C3.99411 12.169 4.01786 12.169 4.04012 12.1675C4.07901 12.168 4.11629 12.1831 4.1446 12.2098C4.17292 12.2364 4.19019 12.2727 4.19301 12.3115C4.19379 12.3311 4.19066 12.3505 4.18382 12.3688C4.17698 12.3872 4.16656 12.4039 4.15317 12.4181C4.13978 12.4324 4.12368 12.4438 4.10583 12.4517C4.08797 12.4597 4.06872 12.464 4.04918 12.4644C4.02379 12.4659 3.99708 12.4659 3.97199 12.4659C3.61361 12.4642 3.25973 12.3859 2.93414 12.2361C2.60855 12.0863 2.31878 11.8686 2.08431 11.5975C1.9053 11.88 1.78684 12.1964 1.7364 12.527C1.68596 12.8575 1.70465 13.1949 1.79129 13.5179C1.87792 13.8408 2.03062 14.1423 2.23972 14.4032C2.44882 14.6641 2.70978 14.8788 3.00611 15.0337C3.01281 15.0383 3.01925 15.0433 3.0254 15.0486C3.02689 15.0501 3.02837 15.0501 3.02986 15.0515C3.04271 15.0619 3.05418 15.0739 3.064 15.0872C3.0654 15.0909 3.06741 15.0944 3.06993 15.0976C3.07592 15.1093 3.08041 15.1218 3.08329 15.1347C3.08563 15.1424 3.08712 15.1504 3.08775 15.1584C3.08799 15.1678 3.0875 15.1773 3.08626 15.1866C3.08701 15.192 3.08701 15.1975 3.08626 15.2029C3.04498 15.3802 3.02308 15.5613 3.02095 15.7433C3.01593 16.2782 3.19278 16.7989 3.52251 17.2202C3.85224 17.6414 4.31528 17.9381 4.83575 18.0617C4.83856 18.0635 4.84154 18.065 4.84465 18.0662C4.85382 18.0695 4.86275 18.0735 4.87137 18.078C4.8796 18.0819 4.88753 18.0864 4.89512 18.0914C4.90146 18.0974 4.9074 18.1039 4.91293 18.1107C4.92052 18.1182 4.92702 18.1266 4.93223 18.1359C4.93372 18.1374 4.93668 18.1389 4.93668 18.1419C5.39981 19.0919 6.28895 19.6826 7.26122 19.6826C8.74396 19.6826 9.9515 18.3437 9.9515 16.699V5.76559C9.92478 5.64684 9.67689 4.72519 8.65415 4.85284C8.61498 4.85757 8.57554 4.84654 8.5445 4.82218C8.51346 4.79782 8.49337 4.76213 8.48865 4.72296C8.48392 4.68379 8.49495 4.64435 8.51931 4.61331C8.54367 4.58227 8.57936 4.56218 8.61853 4.55745L8.61779 4.55686ZM4.59379 10.9637H4.5834C4.54404 10.9651 4.50573 10.9508 4.47692 10.9239C4.44811 10.8971 4.43115 10.8598 4.42977 10.8205C4.42839 10.7811 4.44271 10.7428 4.46957 10.714C4.49644 10.6852 4.53364 10.6682 4.57301 10.6668C5.83028 10.5778 6.13754 9.64559 6.21028 9.26277C5.55204 9.26029 4.92103 8.99971 4.45283 8.53703C3.98463 8.07435 3.71658 7.44649 3.70629 6.78832C3.70629 6.74895 3.72193 6.7112 3.74976 6.68336C3.7776 6.65552 3.81536 6.63988 3.85472 6.63988C3.89409 6.63988 3.93185 6.65552 3.95969 6.68336C3.98752 6.7112 4.00316 6.74895 4.00316 6.78832C4.01363 7.37602 4.2567 7.93558 4.67909 8.34434C5.10148 8.75309 5.66872 8.97768 6.25644 8.96887C6.58327 8.9705 6.90661 8.90174 7.2045 8.76727C7.50238 8.6328 7.76782 8.43577 7.98277 8.18957C7.99525 8.17393 8.01077 8.16098 8.02838 8.15149C8.046 8.142 8.06535 8.13617 8.08528 8.13435C8.1052 8.13253 8.12529 8.13475 8.14434 8.14089C8.16338 8.14703 8.18098 8.15696 8.19609 8.17008C8.2112 8.18319 8.22351 8.19923 8.23226 8.21722C8.24101 8.23522 8.24604 8.25479 8.24704 8.27478C8.24803 8.29476 8.24498 8.31474 8.23806 8.33351C8.23114 8.35229 8.22049 8.36947 8.20676 8.38402C7.7741 8.88023 7.16724 9.19112 6.51176 9.25238C6.44184 9.6545 6.11083 10.8554 4.59379 10.9637ZM8.71947 11.6629C8.73881 11.6609 8.75835 11.6628 8.77694 11.6685C8.79553 11.6741 8.8128 11.6835 8.82774 11.6959C8.84267 11.7084 8.85497 11.7237 8.8639 11.7409C8.87284 11.7582 8.87824 11.7771 8.87978 11.7965C8.8832 11.8358 8.87092 11.8749 8.84561 11.9052C8.8203 11.9355 8.78402 11.9546 8.7447 11.9582C8.65119 11.9672 6.45876 12.1957 6.43071 14.6463C7.21446 14.8794 8.25649 15.4835 8.24447 17.0525C8.24408 17.0916 8.22826 17.129 8.20047 17.1565C8.17267 17.184 8.13514 17.1994 8.09603 17.1994H8.09454C8.07505 17.1992 8.05579 17.1952 8.03785 17.1876C8.01992 17.1799 8.00366 17.1688 7.99002 17.1549C7.97637 17.141 7.9656 17.1245 7.95832 17.1064C7.95104 17.0883 7.9474 17.069 7.94759 17.0495C7.95798 15.6304 7.01555 15.1065 6.31478 14.912C6.30457 14.9148 6.29414 14.9168 6.28361 14.9179H6.28212C6.26292 14.9182 6.24385 14.9147 6.22602 14.9075C6.20819 14.9004 6.19194 14.8898 6.17822 14.8764C5.98202 14.8298 5.78158 14.8035 5.58001 14.7977C5.54064 14.7975 5.50297 14.7817 5.47527 14.7537C5.44757 14.7257 5.43212 14.6879 5.43232 14.6485C5.43251 14.6092 5.44834 14.5715 5.47632 14.5438C5.5043 14.5161 5.54213 14.5006 5.5815 14.5008H5.58298C5.76877 14.5085 5.95353 14.5323 6.13517 14.5721C6.20879 11.9137 8.69201 11.6643 8.71947 11.6629Z" fill="white" style="fill:white;fill-opacity:1;"/>
</g>
<defs>
<clipPath id="clip0_2945_2575">
<rect width="19" height="19" fill="white" style="fill:white;fill-opacity:1;" transform="translate(0.600098 0.682617)"/>
</clipPath>
</defs>
</svg>
