<svg width="100%" height="100%" style="overflow:visible;" preserveAspectRatio="none" viewBox="0 0 19 19" fill="none" xmlns="http://www.w3.org/2000/svg">
<g clip-path="url(#clip0_2945_2593)">
<path d="M14.4374 0.724525C14.3384 0.55 14.1536 0.442383 13.953 0.442383H7.27334C7.01784 0.442383 6.79552 0.616352 6.73355 0.864205L4.50698 9.80756C4.46512 9.97389 4.50264 10.15 4.60811 10.2848C4.71357 10.4202 4.87555 10.499 5.04678 10.499H7.5832L4.5255 18.69C4.42764 18.9509 4.53801 19.244 4.78315 19.376C5.02941 19.508 5.33408 19.4374 5.49688 19.2129L14.4031 6.92973C14.5265 6.76066 14.5439 6.53671 14.4493 6.34971C14.3542 6.16328 14.1623 6.04586 13.953 6.04586H11.5965L14.4303 1.28547C14.5336 1.11317 14.5363 0.899014 14.4374 0.724525Z" fill="white" style="fill:white;fill-opacity:1;"/>
</g>
<defs>
<clipPath id="clip0_2945_2593">
<rect width="19" height="19" fill="white" style="fill:white;fill-opacity:1;" transform="translate(0 0.442383)"/>
</clipPath>
</defs>
</svg>
