<svg width="100%" height="100%" style="overflow:visible;" preserveAspectRatio="none" viewBox="0 0 20 20" fill="none" xmlns="http://www.w3.org/2000/svg">
<path d="M19.0625 19.375C19.0175 19.375 18.9719 19.365 18.93 19.3456L14.2425 17.1581C14.1381 17.1094 14.0694 17.0069 14.0631 16.8913C14.0569 16.7756 14.115 16.6663 14.2144 16.6069L15.66 15.7388L12.3844 11.9125L6.3256 13.4281C6.24185 13.4481 6.15248 13.4344 6.07998 13.3875L0.767478 9.95C0.622478 9.85625 0.581228 9.6625 0.674978 9.51813C0.769353 9.3725 0.963728 9.33375 1.10685 9.42563L6.30498 12.7894L12.42 11.26C12.5369 11.2319 12.6562 11.2706 12.7331 11.36L16.375 15.6144C16.435 15.6844 16.4612 15.7769 16.4456 15.8675C16.4312 15.9588 16.3775 16.0375 16.2981 16.0856L15.0387 16.8413L18.75 18.5719V14.6144L17.54 15.34C17.4644 15.3856 17.3712 15.3963 17.2875 15.3706C17.2025 15.3444 17.1331 15.2831 17.0956 15.2025L13.5637 7.53L7.23123 8.43438C7.12748 8.4475 7.02123 8.41 6.95185 8.33L1.72373 2.3175C1.60998 2.1875 1.62435 1.99 1.75435 1.87688C1.88498 1.76188 2.08185 1.7775 2.19498 1.9075L7.31185 7.79188L13.7062 6.87813C13.8412 6.86 13.9769 6.93063 14.0337 7.05688L17.5175 14.6244L18.9019 13.7944C18.9981 13.7356 19.1187 13.735 19.2162 13.79C19.3144 13.8456 19.375 13.95 19.375 14.0625V19.0625C19.375 19.1694 19.3206 19.2688 19.2306 19.3263C19.18 19.3588 19.1212 19.375 19.0625 19.375Z" fill="#3A31C5" stroke="#3A31C5" style="fill:#3A31C5;fill:color(display-p3 0.2280 0.1915 0.7728);fill-opacity:1;stroke:#3A31C5;stroke:color(display-p3 0.2280 0.1915 0.7728);stroke-opacity:1;" stroke-width="0.4"/>
<path d="M0.9375 19.375C0.765 19.375 0.625 19.235 0.625 19.0625V11.5625C0.625 11.39 0.765 11.25 0.9375 11.25C1.11 11.25 1.25 11.39 1.25 11.5625V19.0625C1.25 19.235 1.11 19.375 0.9375 19.375Z" fill="#3A31C5" stroke="#3A31C5" style="fill:#3A31C5;fill:color(display-p3 0.2280 0.1915 0.7728);fill-opacity:1;stroke:#3A31C5;stroke:color(display-p3 0.2280 0.1915 0.7728);stroke-opacity:1;" stroke-width="0.4"/>
<path d="M14.1875 19.375H0.9375C0.765 19.375 0.625 19.235 0.625 19.0625C0.625 18.89 0.765 18.75 0.9375 18.75H14.1875C14.36 18.75 14.5 18.89 14.5 19.0625C14.5 19.235 14.36 19.375 14.1875 19.375Z" fill="#3A31C5" stroke="#3A31C5" style="fill:#3A31C5;fill:color(display-p3 0.2280 0.1915 0.7728);fill-opacity:1;stroke:#3A31C5;stroke:color(display-p3 0.2280 0.1915 0.7728);stroke-opacity:1;" stroke-width="0.4"/>
</svg>
