<svg width="100%" height="100%" style="overflow:visible;" preserveAspectRatio="none" viewBox="0 0 19 19" fill="none" xmlns="http://www.w3.org/2000/svg">
<g clip-path="url(#clip0_2945_2579)">
<path d="M14.8375 0.96476C14.7386 0.790234 14.5537 0.682617 14.3532 0.682617H7.67348C7.41799 0.682617 7.19566 0.856586 7.13369 1.10444L4.90713 10.0478C4.86527 10.2141 4.90279 10.3903 5.00825 10.5251C5.11372 10.6604 5.2757 10.7392 5.44692 10.7392H7.98335L4.92565 18.9303C4.82779 19.1912 4.93815 19.4842 5.1833 19.6163C5.42955 19.7482 5.73422 19.6776 5.89702 19.4532L14.8033 7.16997C14.9267 7.0009 14.9441 6.77694 14.8495 6.58995C14.7544 6.40351 14.5625 6.2861 14.3532 6.2861H11.9967L14.8304 1.52571C14.9337 1.35341 14.9365 1.13925 14.8375 0.96476Z" fill="white" style="fill:white;fill-opacity:1;"/>
</g>
<defs>
<clipPath id="clip0_2945_2579">
<rect width="19" height="19" fill="white" style="fill:white;fill-opacity:1;" transform="translate(0.399902 0.682617)"/>
</clipPath>
</defs>
</svg>
