<svg width="100%" height="100%" style="overflow:visible;" preserveAspectRatio="none" viewBox="0 0 20 20" fill="none" xmlns="http://www.w3.org/2000/svg">
<g clip-path="url(#clip0_3215_535)">
<path d="M18.7499 9.16663H1.24992C1.02075 9.16663 0.833252 9.35413 0.833252 9.58329V10.8333C0.833252 15.4291 4.57075 19.1666 9.16659 19.1666H10.8333C15.4291 19.1666 19.1666 15.4291 19.1666 10.8333V9.58329C19.1666 9.35413 18.9791 9.16663 18.7499 9.16663ZM18.3333 10.8333C18.3333 14.9666 14.9666 18.3333 10.8333 18.3333H9.16659C5.03325 18.3333 1.66659 14.9666 1.66659 10.8333V9.99996H18.3333V10.8333Z" fill="#3A31C5" stroke="#3A31C5" style="fill:#3A31C5;fill:color(display-p3 0.2280 0.1915 0.7728);fill-opacity:1;stroke:#3A31C5;stroke:color(display-p3 0.2280 0.1915 0.7728);stroke-opacity:1;" stroke-width="0.3"/>
<path d="M5.12512 5.89996L5.94178 6.0333C5.96262 6.0333 5.98762 6.03746 6.00845 6.03746C6.20845 6.03746 6.38345 5.8958 6.41678 5.69163C6.54595 4.9583 6.37512 4.21663 5.94178 3.60413C5.49178 2.9708 4.82095 2.55413 4.04178 2.42496L3.22512 2.29163C3.00012 2.25413 2.78762 2.40413 2.74595 2.62913C2.61678 3.36246 2.78762 4.10413 3.22095 4.71663C3.67095 5.34996 4.34178 5.76663 5.12095 5.8958L5.12512 5.89996ZM3.90845 3.24996C4.46262 3.34163 4.94595 3.63747 5.26262 4.08747C5.48345 4.39997 5.60845 4.76246 5.62512 5.13746L5.25845 5.07913C4.70428 4.98746 4.22095 4.69163 3.90428 4.24163C3.68345 3.92913 3.55845 3.56663 3.54178 3.19163L3.90428 3.24996H3.90845Z" fill="#3A31C5" stroke="#3A31C5" style="fill:#3A31C5;fill:color(display-p3 0.2280 0.1915 0.7728);fill-opacity:1;stroke:#3A31C5;stroke:color(display-p3 0.2280 0.1915 0.7728);stroke-opacity:1;" stroke-width="0.3"/>
<path d="M7.45 7.89161C7.59167 7.90827 7.72917 7.91661 7.86667 7.91661C9.49167 7.91661 10.9083 6.74994 11.125 5.15411L11.2458 4.24577C11.2625 4.13744 11.2292 4.02494 11.1625 3.93744C11.0958 3.84994 10.9958 3.79161 10.8833 3.77911C9.09167 3.56244 7.44167 4.78744 7.20833 6.51661L7.0875 7.42494C7.07083 7.53327 7.10417 7.64577 7.17083 7.73327C7.2375 7.82077 7.3375 7.87911 7.45 7.89161ZM8.0375 6.62494C8.19167 5.48327 9.19167 4.63744 10.3625 4.58744L10.3 5.04577C10.1458 6.18744 9.14583 7.03327 7.975 7.08327L8.0375 6.62494Z" fill="#3A31C5" stroke="#3A31C5" style="fill:#3A31C5;fill:color(display-p3 0.2280 0.1915 0.7728);fill-opacity:1;stroke:#3A31C5;stroke:color(display-p3 0.2280 0.1915 0.7728);stroke-opacity:1;" stroke-width="0.3"/>
<path d="M12.9126 8.76253C12.9709 8.7917 13.0376 8.80837 13.1001 8.80837C13.2543 8.80837 13.4001 8.72503 13.4709 8.5792L16.6959 2.17503C16.8834 1.7542 17.3668 1.55837 17.7959 1.73337C18.1668 1.88337 18.3876 2.27503 18.3293 2.63753L16.9709 8.2792C16.9168 8.5042 17.0543 8.7292 17.2793 8.78337C17.5043 8.83753 17.7293 8.70003 17.7834 8.47503L19.1459 2.8042C19.2751 2.0292 18.8376 1.25003 18.1084 0.958367C17.2668 0.620867 16.3126 1.0042 15.9501 1.8167L12.7334 8.2042C12.6293 8.40837 12.7126 8.65837 12.9168 8.76253H12.9126Z" fill="#3A31C5" stroke="#3A31C5" style="fill:#3A31C5;fill:color(display-p3 0.2280 0.1915 0.7728);fill-opacity:1;stroke:#3A31C5;stroke:color(display-p3 0.2280 0.1915 0.7728);stroke-opacity:1;" stroke-width="0.3"/>
</g>
<defs>
<clipPath id="clip0_3215_535">
<rect width="20" height="20" fill="white" style="fill:white;fill-opacity:1;"/>
</clipPath>
</defs>
</svg>
