<svg width="100%" height="100%" style="overflow:visible;" preserveAspectRatio="none" viewBox="0 0 62.52 62.52" fill="none" xmlns="http://www.w3.org/2000/svg">
<path d="M23.413 32.5284C16.9666 31.8304 11.6128 32.6498 5.99194 33.8274C8.19538 34.653 11.6614 35.4664 16.4931 36.0551C18.8787 34.3859 20.0988 33.7364 23.322 33.4147C23.3523 33.1173 23.3887 32.8319 23.413 32.5284Z" fill="#333333" style="fill:#333333;fill:color(display-p3 0.2000 0.2000 0.2000);fill-opacity:1;"/>
<path d="M16.8635 28.771C16.4507 28.8378 16.0258 28.8985 15.6191 28.9714C18.3264 29.1656 21.0154 29.5966 23.6316 30.2521C23.6437 30.1793 23.6498 30.1065 23.6559 30.0336C23.6802 29.7484 23.8016 28.3522 23.838 27.9395C23.4252 27.9698 23.0185 28.0123 22.6119 28.0487C21.4466 28.1605 20.1618 28.2606 16.8635 28.771Z" fill="#333333" style="fill:#333333;fill:color(display-p3 0.2000 0.2000 0.2000);fill-opacity:1;"/>
<path d="M39.2075 27.8363C34.2333 27.499 29.9198 27.506 25.1735 27.8363C25.1674 27.897 25.1613 27.9455 25.1553 28.0062C24.8974 31.2548 24.5579 34.4416 24.2023 37.4148C24.0141 39.0477 23.7956 40.7473 23.5224 42.5987L23.3889 43.4788C23.1279 45.2088 22.8547 46.9995 22.703 48.7658C22.5815 50.3137 22.5694 51.6674 22.6544 52.9056C22.8669 55.8557 23.8077 59.692 27.1038 61.2095C30.1449 62.6117 34.5092 62.5449 37.4714 61.0516C40.2697 59.6555 41.2349 56.6084 41.5566 54.3017C41.7812 52.6689 41.8115 50.8539 41.6598 48.7537C41.3916 45.034 40.1218 38.629 39.2075 27.8363ZM36.2862 34.6304C37.4599 34.6304 37.4579 36.4514 36.2862 36.4514C35.1125 36.4514 35.1145 34.6304 36.2862 34.6304ZM32.4449 35.007C33.6186 35.007 33.6167 36.828 32.4449 36.828C31.2712 36.828 31.2732 35.007 32.4449 35.007ZM29.1308 30.5631C30.3045 30.5631 30.3026 32.3842 29.1308 32.3842C27.9572 32.3842 27.9591 30.5631 29.1308 30.5631ZM27.6245 46.2429C26.4508 46.2429 26.4527 44.4219 27.6245 44.4219C28.7981 44.4219 28.7962 46.2429 27.6245 46.2429ZM29.6581 37.5678C30.8318 37.5678 30.8298 39.3888 29.6581 39.3888C28.4844 39.3888 28.4863 37.5678 29.6581 37.5678ZM29.884 52.1178C28.7104 52.1178 28.7123 50.2968 29.884 50.2968C31.0577 50.2968 31.0558 52.1178 29.884 52.1178ZM32.4449 48.5025C31.2712 48.5025 31.2732 46.6815 32.4449 46.6815C33.6186 46.6815 33.6167 48.5025 32.4449 48.5025ZM32.8215 42.7029C31.6478 42.7029 31.6498 40.8819 32.8215 40.8819C33.9952 40.8819 33.9932 42.7029 32.8215 42.7029ZM34.5538 31.241C35.7275 31.241 35.7256 33.062 34.5538 33.062C33.3802 33.062 33.3821 31.241 34.5538 31.241ZM35.9849 42.6142C37.1586 42.6142 37.1567 44.4353 35.9849 44.4353C34.8112 44.4353 34.8132 42.6142 35.9849 42.6142ZM36.2862 53.5489C35.1125 53.5489 35.1145 51.7279 36.2862 51.7279C37.4599 51.7279 37.4579 53.5489 36.2862 53.5489ZM37.0394 50.3102C35.8657 50.3102 35.8677 48.4892 37.0394 48.4892C38.2131 48.4892 38.2111 50.3102 37.0394 50.3102Z" fill="#333333" style="fill:#333333;fill:color(display-p3 0.2000 0.2000 0.2000);fill-opacity:1;"/>
<path d="M23.2491 34.0885C20.5782 34.3677 19.3521 34.908 17.4946 36.1645C19.17 36.3526 20.9789 36.5165 22.9638 36.6379C23.126 35.2791 23.2103 34.5657 23.2491 34.0885Z" fill="#333333" style="fill:#333333;fill:color(display-p3 0.2000 0.2000 0.2000);fill-opacity:1;"/>
<path d="M29.0401 1.86247C29.0097 1.86247 28.9794 1.86851 28.9551 1.86851C29.902 2.61515 31.2738 3.05825 32.7489 3.05825C34.1389 3.05825 35.4622 2.65157 36.4031 1.97172C36.3484 1.96565 36.2877 1.95957 36.2331 1.9535C34.1825 1.71998 31.4115 1.66483 29.0401 1.86247Z" fill="#333333" style="fill:#333333;fill:color(display-p3 0.2000 0.2000 0.2000);fill-opacity:1;"/>
<path d="M3.24829 32.2613C3.53357 32.6134 4.09811 32.9958 4.92363 33.3783C10.9451 32.0853 16.5842 31.1262 23.4798 31.8729C23.5102 31.5572 23.5405 31.2355 23.5709 30.9138C20.0624 30.0276 16.4385 29.5602 12.7904 29.5177C9.98855 30.0922 6.02227 31.1801 3.24829 32.2613Z" fill="#333333" style="fill:#333333;fill:color(display-p3 0.2000 0.2000 0.2000);fill-opacity:1;"/>
<path d="M48.7252 10.4032C50.6373 10.4032 52.3551 9.66263 53.211 8.5093C53.1624 8.47896 53.1199 8.44254 53.0774 8.41219C51.1458 6.91526 48.502 5.38047 45.8298 4.32705C45.7751 4.30275 45.7205 4.27848 45.6659 4.26025C44.4215 4.90368 43.6931 5.90525 43.6931 6.96752C43.6931 8.86137 45.9512 10.4032 48.7252 10.4032Z" fill="#333333" style="fill:#333333;fill:color(display-p3 0.2000 0.2000 0.2000);fill-opacity:1;"/>
<path d="M40.5427 27.9395C40.5731 28.3037 40.6034 28.6679 40.6398 29.0321C40.6641 29.287 40.6823 29.5359 40.7066 29.7908C40.7066 29.803 40.7127 29.8151 40.7127 29.8272C41.8113 28.9835 42.9222 28.5343 44.1483 28.3037C43.7963 28.2612 43.4503 28.2126 43.0982 28.1762C42.4862 28.1109 41.1596 27.9862 40.5427 27.9395Z" fill="#333333" style="fill:#333333;fill:color(display-p3 0.2000 0.2000 0.2000);fill-opacity:1;"/>
<path d="M54.2309 9.34077C53.1141 10.7915 51.0199 11.7203 48.7254 11.7203C45.223 11.7263 42.37 9.58967 42.37 6.9674C42.37 5.71696 43.0013 4.5576 44.1121 3.68955C42.1758 3.02793 40.1605 2.53018 38.0846 2.20241C36.9191 3.54995 34.9281 4.38154 32.749 4.38154C30.4666 4.38154 28.4332 3.48926 27.292 2.05066C12.8695 3.92021 2.04053 13.9783 2.04053 25.5843C2.04053 27.4053 2.30761 29.2202 2.82355 30.9988C10.3709 28.209 20.1253 26.2641 32.1784 26.2641C34.7642 26.2641 37.3562 26.3613 39.8692 26.5494C47.5816 27.1463 54.4762 28.4372 61.5393 30.9927C62.0552 29.2263 62.3163 27.4053 62.3163 25.5782C62.3102 19.5021 59.4451 13.7659 54.2309 9.34077ZM12.5842 25.5964C9.08179 25.5964 6.22885 23.4658 6.22885 20.8436C6.22885 18.2213 9.07571 16.0846 12.5781 16.0846C16.0867 16.0846 18.9335 18.2152 18.9335 20.8375C18.9335 23.4597 16.0867 25.5964 12.5842 25.5964ZM23.7713 13.9055C21.1855 13.9055 19.0853 12.3151 19.0853 10.3545C19.0853 8.39992 21.1855 6.80349 23.7653 6.80349C26.3511 6.80349 28.4514 8.39385 28.4514 10.3545C28.4514 12.3151 26.3511 13.9055 23.7713 13.9055ZM35.6687 21.9058C32.4819 21.9058 29.8839 19.9573 29.8839 17.5597C29.8839 15.1681 32.4819 13.2135 35.6687 13.2135C38.8615 13.2135 41.4534 15.162 41.4534 17.5597C41.4534 19.9573 38.8615 21.9058 35.6687 21.9058ZM58.4921 20.8375C58.4921 23.0045 56.1551 24.7709 53.2779 24.7709C50.4068 24.7709 48.0638 23.0045 48.0638 20.8375C48.0638 18.6644 50.4068 16.898 53.2779 16.898C56.1551 16.898 58.4921 18.6644 58.4921 20.8375Z" fill="#333333" style="fill:#333333;fill:color(display-p3 0.2000 0.2000 0.2000);fill-opacity:1;"/>
<path d="M35.6685 14.5369C33.2101 14.5369 31.207 15.8966 31.207 17.5597C31.207 19.229 33.2101 20.5887 35.6685 20.5887C38.133 20.5887 40.1361 19.229 40.1361 17.5597C40.1361 15.8905 38.133 14.5369 35.6685 14.5369Z" fill="#333333" style="fill:#333333;fill:color(display-p3 0.2000 0.2000 0.2000);fill-opacity:1;"/>
<path d="M47.1228 28.7103C44.5066 28.7589 42.6613 29.0199 40.7917 30.6103C40.8282 30.9988 40.8646 31.3872 40.9071 31.7818C40.9071 31.806 40.9132 31.8364 40.9132 31.8607C47.1957 31.1444 53.545 31.1201 59.8275 31.7939C55.5896 30.3106 51.473 29.3965 47.1228 28.7103Z" fill="#333333" style="fill:#333333;fill:color(display-p3 0.2000 0.2000 0.2000);fill-opacity:1;"/>
<path d="M49.387 20.8375C49.387 22.2518 51.1716 23.4537 53.2779 23.4537C55.3903 23.4537 57.1749 22.2518 57.1749 20.8375C57.1749 19.4171 55.3903 18.2213 53.2779 18.2213C51.1655 18.2213 49.387 19.4171 49.387 20.8375Z" fill="#333333" style="fill:#333333;fill:color(display-p3 0.2000 0.2000 0.2000);fill-opacity:1;"/>
<path d="M23.7649 8.12073C21.9439 8.12073 20.4082 9.14657 20.4082 10.3545C20.4082 11.5685 21.9439 12.5883 23.771 12.5883C25.592 12.5883 27.1278 11.5624 27.1278 10.3545C27.1278 9.14657 25.5859 8.12073 23.7649 8.12073Z" fill="#333333" style="fill:#333333;fill:color(display-p3 0.2000 0.2000 0.2000);fill-opacity:1;"/>
<path d="M41.4532 36.6379C44.5611 36.4375 47.3108 36.1462 49.7206 35.7941C46.9466 34.9564 44.0755 34.3859 41.1558 34.1006C41.164 34.1638 41.4459 36.5736 41.4532 36.6379Z" fill="#333333" style="fill:#333333;fill:color(display-p3 0.2000 0.2000 0.2000);fill-opacity:1;"/>
<path d="M12.578 17.408C9.80394 17.408 7.5459 18.9498 7.5459 20.8436C7.5459 22.7375 9.80394 24.2793 12.584 24.2732C15.3581 24.2732 17.6161 22.7314 17.6161 20.8375C17.6161 18.9437 15.3581 17.4019 12.578 17.408Z" fill="#333333" style="fill:#333333;fill:color(display-p3 0.2000 0.2000 0.2000);fill-opacity:1;"/>
<path d="M40.9797 32.5163C41.0162 32.8198 41.0465 33.1233 41.083 33.4268C44.5429 33.7606 47.93 34.4769 51.1835 35.5695C56.3006 34.7257 59.5723 33.6089 60.7742 32.5648C54.2064 31.7818 47.5536 31.7635 40.9797 32.5163Z" fill="#333333" style="fill:#333333;fill:color(display-p3 0.2000 0.2000 0.2000);fill-opacity:1;"/>
<path d="M41.7681 59.4788C41.8757 59.5564 42.0002 59.5938 42.1235 59.5938C42.3117 59.5938 42.4973 59.5066 42.6158 59.3424C43.9448 57.5062 44.6723 55.3372 44.986 53.0833C45.032 52.7513 44.7999 52.4449 44.4677 52.3992C44.1381 52.35 43.8292 52.5848 43.7833 52.9173C43.764 53.0578 43.7427 53.1977 43.7202 53.3352C43.3796 55.4052 42.6772 57.1871 41.6324 58.6311C41.4359 58.9026 41.4967 59.282 41.7681 59.4788Z" fill="#333333" style="fill:#333333;fill:color(display-p3 0.2000 0.2000 0.2000);fill-opacity:1;"/>
<path d="M44.5764 50.9919H44.5927C44.9205 50.9919 45.1905 50.7305 45.1991 50.4009C45.2168 49.7328 45.2097 49.1074 45.187 48.4608C45.1748 48.1264 44.9119 47.8425 44.5586 47.8763C44.2234 47.8881 43.9617 48.1691 43.9735 48.5046C43.996 49.1207 44.0022 49.7408 43.9857 50.3689C43.9768 50.7038 44.2412 50.983 44.5764 50.9919Z" fill="#333333" style="fill:#333333;fill:color(display-p3 0.2000 0.2000 0.2000);fill-opacity:1;"/>
<path d="M20.6483 52.9174C20.4468 51.4525 20.4028 49.9596 20.4584 48.5053C20.4708 48.1704 20.2094 47.8888 19.8745 47.8764C19.5404 47.842 19.2577 48.1253 19.2449 48.4603C19.1876 50.0133 19.2346 51.5499 19.4456 53.0833C19.7835 55.5303 20.5808 57.6365 21.8155 59.3425C21.9341 59.5067 22.1196 59.5938 22.3078 59.5938C22.4311 59.5938 22.5556 59.5565 22.6632 59.4788C22.9347 59.282 22.9954 58.9027 22.7989 58.6312C21.6821 57.0876 20.9584 55.1652 20.6483 52.9174Z" fill="#333333" style="fill:#333333;fill:color(display-p3 0.2000 0.2000 0.2000);fill-opacity:1;"/>
<path d="M20.6955 40.9253C20.3639 40.8737 20.0556 41.1055 20.007 41.4374C19.8674 42.3894 19.7254 43.358 19.6015 44.3391C19.5595 44.6716 19.7951 44.9751 20.1279 45.0172C20.1537 45.0202 20.1792 45.022 20.2047 45.022C20.5058 45.022 20.7672 44.7979 20.8061 44.4908C20.9288 43.5181 21.0696 42.5578 21.208 41.6141C21.2566 41.2821 21.0272 40.9739 20.6955 40.9253Z" fill="#333333" style="fill:#333333;fill:color(display-p3 0.2000 0.2000 0.2000);fill-opacity:1;"/>
<path d="M59.8759 41.7489C59.8637 41.4636 59.6938 41.2086 59.4328 41.0934L57.9942 40.4378C57.9517 40.4195 57.9213 40.3831 57.9092 40.3346L57.63 38.7806C57.5814 38.4953 57.375 38.2647 57.0897 38.1858C56.8166 38.1069 56.5191 38.1918 56.331 38.4043L55.2626 39.5758C55.2262 39.6123 55.1837 39.6244 55.1351 39.6183L53.5751 39.4119C53.2899 39.3634 53.0045 39.4908 52.8407 39.7336C52.6768 39.9764 52.6707 40.2799 52.8164 40.5288L53.5994 41.9006C53.6176 41.9431 53.6237 41.9917 53.5994 42.0342L52.9135 43.4607C52.786 43.7156 52.8164 44.0191 52.9924 44.2437C53.1745 44.4804 53.4598 44.5897 53.7451 44.529L55.293 44.2073C55.3415 44.2012 55.3901 44.2073 55.4205 44.2437L56.5616 45.3363C56.7073 45.4759 56.8955 45.5488 57.0897 45.5488C57.1747 45.5488 57.2657 45.5306 57.3507 45.5002C57.6239 45.4031 57.806 45.1603 57.8363 44.8811L58.0124 43.3089C58.0184 43.2603 58.0427 43.2179 58.0913 43.1936L59.4813 42.447C59.7363 42.3074 59.888 42.0403 59.8759 41.7489Z" fill="#333333" style="fill:#333333;fill:color(display-p3 0.2000 0.2000 0.2000);fill-opacity:1;"/>
<path d="M3.1998 7.12518C3.24837 7.38618 3.43655 7.58651 3.6854 7.65327L4.94799 7.99927C4.97229 8.00534 4.99048 8.02353 4.99656 8.04176L5.43358 9.28004C5.51857 9.52893 5.73105 9.69888 5.98598 9.72922C6.01632 9.7353 6.04667 9.7353 6.07097 9.7353C6.3016 9.7353 6.508 9.62604 6.63548 9.43179L7.35782 8.33311C7.36993 8.31492 7.39424 8.30277 7.41243 8.30277L8.72358 8.27846C8.98459 8.27243 9.21526 8.12067 9.32451 7.88393C9.43377 7.64719 9.40343 7.38011 9.23952 7.17375L8.42008 6.15394C8.40793 6.13575 8.40185 6.11149 8.40793 6.08718L8.78427 4.83067C8.86318 4.58182 8.79035 4.32081 8.60218 4.13871C8.40793 3.96266 8.14084 3.90805 7.89803 4.00515L6.6719 4.46648C6.6476 4.47256 6.62333 4.47256 6.6051 4.45433L5.53072 3.70773C5.31825 3.56205 5.04513 3.54382 4.81446 3.67131C4.58987 3.79879 4.45631 4.0355 4.46846 4.29651L4.52915 5.60766C4.52915 5.63193 4.51703 5.65015 4.49881 5.66835L3.45477 6.45745C3.24837 6.61527 3.15127 6.87024 3.1998 7.12518Z" fill="#333333" style="fill:#333333;fill:color(display-p3 0.2000 0.2000 0.2000);fill-opacity:1;"/>
<path d="M57.7934 4.90651L57.1324 4.24549C56.9693 4.0824 56.7049 4.0824 56.5418 4.24549C56.3787 4.40861 56.3787 4.67306 56.5418 4.83619L57.2028 5.49718C57.3659 5.6603 57.6303 5.6603 57.7934 5.49718C57.9566 5.33405 57.9566 5.0696 57.7934 4.90651Z" fill="#333333" style="fill:#333333;fill:color(display-p3 0.2000 0.2000 0.2000);fill-opacity:1;"/>
<path d="M59.3737 6.48685C59.2105 6.32372 58.9461 6.32372 58.783 6.48685C58.6199 6.64997 58.6199 6.91443 58.783 7.07751L59.444 7.73854C59.6071 7.90163 59.8715 7.90163 60.0347 7.73854C60.1978 7.57541 60.1978 7.31096 60.0347 7.14783L59.3737 6.48685Z" fill="#333333" style="fill:#333333;fill:color(display-p3 0.2000 0.2000 0.2000);fill-opacity:1;"/>
<path d="M60.0347 4.24549C59.8715 4.0824 59.6071 4.0824 59.444 4.24549L58.783 4.90651C58.6199 5.0696 58.6199 5.33405 58.783 5.49718C58.9461 5.6603 59.2105 5.6603 59.3737 5.49718L60.0347 4.83619C60.1978 4.67306 60.1978 4.40861 60.0347 4.24549Z" fill="#333333" style="fill:#333333;fill:color(display-p3 0.2000 0.2000 0.2000);fill-opacity:1;"/>
<path d="M57.2028 6.48685L56.5418 7.14783C56.3787 7.31096 56.3787 7.57541 56.5418 7.73854C56.7049 7.90163 56.9693 7.90163 57.1324 7.73854L57.7934 7.07751C57.9566 6.91443 57.9566 6.64997 57.7934 6.48685C57.6303 6.32372 57.3659 6.32372 57.2028 6.48685Z" fill="#333333" style="fill:#333333;fill:color(display-p3 0.2000 0.2000 0.2000);fill-opacity:1;"/>
<path d="M58.2878 6.35513C58.4883 6.35513 58.6508 6.19261 58.6508 5.99214C58.6508 5.79167 58.4883 5.62915 58.2878 5.62915C58.0873 5.62915 57.9248 5.79167 57.9248 5.99214C57.9248 6.19261 58.0873 6.35513 58.2878 6.35513Z" fill="#333333" style="fill:#333333;fill:color(display-p3 0.2000 0.2000 0.2000);fill-opacity:1;"/>
<path d="M50.5766 49.2995L49.9157 48.6384C49.7525 48.4753 49.4881 48.4753 49.325 48.6384C49.1619 48.8016 49.1619 49.066 49.325 49.2291L49.986 49.8901C50.1491 50.0532 50.4135 50.0532 50.5766 49.8901C50.7398 49.727 50.7398 49.4625 50.5766 49.2995Z" fill="#333333" style="fill:#333333;fill:color(display-p3 0.2000 0.2000 0.2000);fill-opacity:1;"/>
<path d="M51.5662 51.4706L52.2272 52.1316C52.3903 52.2947 52.6548 52.2947 52.8179 52.1316C52.981 51.9685 52.981 51.704 52.8179 51.5409L52.1569 50.8799C51.9938 50.7168 51.7293 50.7168 51.5662 50.8799C51.4031 51.043 51.4031 51.3075 51.5662 51.4706Z" fill="#333333" style="fill:#333333;fill:color(display-p3 0.2000 0.2000 0.2000);fill-opacity:1;"/>
<path d="M52.2272 48.6384L51.5662 49.2995C51.4031 49.4625 51.4031 49.727 51.5662 49.8901C51.7293 50.0532 51.9938 50.0532 52.1569 49.8901L52.8179 49.2291C52.981 49.066 52.981 48.8016 52.8179 48.6384C52.6548 48.4753 52.3903 48.4753 52.2272 48.6384Z" fill="#333333" style="fill:#333333;fill:color(display-p3 0.2000 0.2000 0.2000);fill-opacity:1;"/>
<path d="M49.986 50.8799L49.325 51.5409C49.1619 51.704 49.1619 51.9685 49.325 52.1316C49.4881 52.2947 49.7525 52.2947 49.9157 52.1316L50.5766 51.4706C50.7398 51.3075 50.7398 51.043 50.5766 50.8799C50.4135 50.7168 50.1491 50.7168 49.986 50.8799Z" fill="#333333" style="fill:#333333;fill:color(display-p3 0.2000 0.2000 0.2000);fill-opacity:1;"/>
<path d="M51.3281 50.6417C51.4699 50.5 51.4699 50.2702 51.3281 50.1284C51.1864 49.9867 50.9566 49.9867 50.8148 50.1284C50.673 50.2702 50.673 50.5 50.8148 50.6417C50.9566 50.7835 51.1864 50.7835 51.3281 50.6417Z" fill="#333333" style="fill:#333333;fill:color(display-p3 0.2000 0.2000 0.2000);fill-opacity:1;"/>
<path d="M9.6178 42.4775C9.78093 42.6406 10.0454 42.6406 10.2085 42.4775C10.3716 42.3144 10.3716 42.05 10.2085 41.8869L9.54748 41.2258C9.38436 41.0627 9.11991 41.0627 8.95682 41.2258C8.79369 41.389 8.79369 41.6534 8.95682 41.8165L9.6178 42.4775Z" fill="#333333" style="fill:#333333;fill:color(display-p3 0.2000 0.2000 0.2000);fill-opacity:1;"/>
<path d="M11.1985 44.0579L11.8595 44.7189C12.0226 44.882 12.2871 44.882 12.4502 44.7189C12.6133 44.5558 12.6133 44.2913 12.4502 44.1282L11.7892 43.4672C11.6261 43.3041 11.3616 43.3041 11.1985 43.4672C11.0354 43.6303 11.0354 43.8948 11.1985 44.0579Z" fill="#333333" style="fill:#333333;fill:color(display-p3 0.2000 0.2000 0.2000);fill-opacity:1;"/>
<path d="M11.7892 42.4775L12.4502 41.8165C12.6133 41.6534 12.6133 41.389 12.4502 41.2258C12.2871 41.0627 12.0226 41.0627 11.8595 41.2258L11.1985 41.8869C11.0354 42.05 11.0354 42.3144 11.1985 42.4775C11.3616 42.6406 11.6261 42.6406 11.7892 42.4775Z" fill="#333333" style="fill:#333333;fill:color(display-p3 0.2000 0.2000 0.2000);fill-opacity:1;"/>
<path d="M8.95682 44.7189C9.11991 44.882 9.38436 44.882 9.54748 44.7189L10.2085 44.0579C10.3716 43.8948 10.3716 43.6303 10.2085 43.4672C10.0454 43.3041 9.78093 43.3041 9.6178 43.4672L8.95682 44.1282C8.79369 44.2913 8.79369 44.5558 8.95682 44.7189Z" fill="#333333" style="fill:#333333;fill:color(display-p3 0.2000 0.2000 0.2000);fill-opacity:1;"/>
<path d="M10.9602 43.229C11.102 43.0872 11.102 42.8574 10.9602 42.7157C10.8185 42.5739 10.5886 42.5739 10.4469 42.7157C10.3051 42.8574 10.3051 43.0872 10.4469 43.229C10.5886 43.3708 10.8185 43.3708 10.9602 43.229Z" fill="#333333" style="fill:#333333;fill:color(display-p3 0.2000 0.2000 0.2000);fill-opacity:1;"/>
<path d="M9.20832 50.8546C9.01641 50.8546 8.86084 51.0102 8.86084 51.2021V52.5772C8.86084 52.7691 9.01641 52.9247 9.20832 52.9247C9.4002 52.9247 9.55576 52.7691 9.55576 52.5772V51.2021C9.55576 51.0102 9.4002 50.8546 9.20832 50.8546Z" fill="#333333" style="fill:#333333;fill:color(display-p3 0.2000 0.2000 0.2000);fill-opacity:1;"/>
<path d="M8.13467 53.2124C8.30095 53.1164 8.35778 52.9038 8.26194 52.7377L7.57431 51.5468C7.4781 51.3807 7.26551 51.3237 7.09957 51.4196C6.93333 51.5156 6.8765 51.7282 6.97234 51.8943L7.65997 53.0852C7.72443 53.1966 7.84117 53.2589 7.96128 53.2589C8.02016 53.2589 8.08006 53.2439 8.13467 53.2124Z" fill="#333333" style="fill:#333333;fill:color(display-p3 0.2000 0.2000 0.2000);fill-opacity:1;"/>
<path d="M5.55582 52.9633C5.45994 53.1296 5.51696 53.342 5.68305 53.438L6.87405 54.1255C6.92889 54.157 6.98861 54.172 7.04748 54.172C7.16759 54.172 7.28429 54.1097 7.3488 53.9983C7.44464 53.832 7.38762 53.6196 7.22153 53.5235L6.03053 52.8361C5.8634 52.74 5.65167 52.7971 5.55582 52.9633Z" fill="#333333" style="fill:#333333;fill:color(display-p3 0.2000 0.2000 0.2000);fill-opacity:1;"/>
<path d="M4.99097 55.0718C4.99097 55.2637 5.14653 55.4193 5.33845 55.4193H6.7137C6.90561 55.4193 7.06118 55.2637 7.06118 55.0718C7.06118 54.8799 6.90561 54.7244 6.7137 54.7244H5.33845C5.14653 54.7244 4.99097 54.8799 4.99097 55.0718Z" fill="#333333" style="fill:#333333;fill:color(display-p3 0.2000 0.2000 0.2000);fill-opacity:1;"/>
<path d="M7.3488 56.1456C7.2524 55.9794 7.04051 55.9222 6.87405 56.0184L5.68305 56.7059C5.51696 56.8019 5.45994 57.0143 5.55582 57.1806C5.62029 57.292 5.73699 57.3543 5.85714 57.3543C5.91601 57.3543 5.97573 57.3394 6.03053 57.3078L7.22153 56.6203C7.38762 56.5244 7.44464 56.3119 7.3488 56.1456Z" fill="#333333" style="fill:#333333;fill:color(display-p3 0.2000 0.2000 0.2000);fill-opacity:1;"/>
<path d="M7.09957 58.7242C7.15422 58.7558 7.21412 58.7707 7.27299 58.7707C7.39311 58.7707 7.50981 58.7085 7.57431 58.597L8.26194 57.4061C8.35778 57.2401 8.30095 57.0275 8.13467 56.9314C7.96858 56.8353 7.75585 56.8926 7.65997 57.0587L6.97234 58.2495C6.8765 58.4157 6.93333 58.6282 7.09957 58.7242Z" fill="#333333" style="fill:#333333;fill:color(display-p3 0.2000 0.2000 0.2000);fill-opacity:1;"/>
<path d="M8.86084 57.5667V58.9418C8.86084 59.1337 9.01641 59.2893 9.20832 59.2893C9.4002 59.2893 9.55576 59.1337 9.55576 58.9418V57.5667C9.55576 57.3748 9.4002 57.2192 9.20832 57.2192C9.01641 57.2192 8.86084 57.3748 8.86084 57.5667Z" fill="#333333" style="fill:#333333;fill:color(display-p3 0.2000 0.2000 0.2000);fill-opacity:1;"/>
<path d="M10.8424 58.597C10.9068 58.7085 11.0236 58.7707 11.1437 58.7707C11.2026 58.7707 11.2624 58.7558 11.3171 58.7242C11.4833 58.6282 11.5402 58.4157 11.4443 58.2495L10.7567 57.0587C10.6605 56.8926 10.4477 56.8353 10.282 56.9314C10.1157 57.0275 10.0589 57.2401 10.1547 57.4061L10.8424 58.597Z" fill="#333333" style="fill:#333333;fill:color(display-p3 0.2000 0.2000 0.2000);fill-opacity:1;"/>
<path d="M12.5593 57.3543C12.6794 57.3543 12.7961 57.292 12.8606 57.1806C12.9564 57.0143 12.8994 56.8019 12.7333 56.7059L11.5425 56.0184C11.3754 55.9222 11.1638 55.9794 11.0678 56.1456C10.9719 56.3119 11.0289 56.5244 11.195 56.6203L12.3859 57.3078C12.4407 57.3394 12.5004 57.3543 12.5593 57.3543Z" fill="#333333" style="fill:#333333;fill:color(display-p3 0.2000 0.2000 0.2000);fill-opacity:1;"/>
<path d="M13.4257 55.0718C13.4257 54.8799 13.2702 54.7244 13.0783 54.7244H11.7032C11.5113 54.7244 11.3557 54.8799 11.3557 55.0718C11.3557 55.2637 11.5113 55.4193 11.7032 55.4193H13.0783C13.2702 55.4193 13.4257 55.2637 13.4257 55.0718Z" fill="#333333" style="fill:#333333;fill:color(display-p3 0.2000 0.2000 0.2000);fill-opacity:1;"/>
<path d="M12.3859 52.8361L11.195 53.5235C11.0289 53.6196 10.9719 53.832 11.0678 53.9983C11.1323 54.1097 11.249 54.172 11.3691 54.172C11.428 54.172 11.4877 54.157 11.5425 54.1255L12.7333 53.438C12.8994 53.342 12.9564 53.1296 12.8606 52.9633C12.7644 52.7971 12.552 52.74 12.3859 52.8361Z" fill="#333333" style="fill:#333333;fill:color(display-p3 0.2000 0.2000 0.2000);fill-opacity:1;"/>
<path d="M10.282 53.2124C10.3366 53.2439 10.3965 53.2589 10.4554 53.2589C10.5755 53.2589 10.6922 53.1966 10.7567 53.0852L11.4443 51.8943C11.5402 51.7282 11.4833 51.5156 11.3171 51.4196C11.1508 51.3237 10.9384 51.3807 10.8424 51.5468L10.1547 52.7377C10.0589 52.9038 10.1157 53.1164 10.282 53.2124Z" fill="#333333" style="fill:#333333;fill:color(display-p3 0.2000 0.2000 0.2000);fill-opacity:1;"/>
<path d="M10.7023 55.0727C10.7023 54.2472 10.0346 53.5795 9.20907 53.5795C8.38355 53.5795 7.71582 54.2472 7.71582 55.0727C7.71582 55.8982 8.38355 56.566 9.20907 56.566C10.0346 56.566 10.7023 55.8982 10.7023 55.0727ZM9.20907 55.874C8.76597 55.874 8.40782 55.5158 8.40782 55.0727C8.40782 54.6296 8.76597 54.2715 9.20907 54.2715C9.65217 54.2715 10.0103 54.6296 10.0103 55.0727C10.0103 55.5158 9.65217 55.874 9.20907 55.874Z" fill="#333333" style="fill:#333333;fill:color(display-p3 0.2000 0.2000 0.2000);fill-opacity:1;"/>
<path d="M56.2944 54.672C55.2686 54.672 54.4309 55.5097 54.4309 56.5355C54.4309 57.5613 55.2686 58.399 56.2944 58.399C57.3203 58.399 58.1579 57.5613 58.1579 56.5355C58.1579 55.5097 57.3203 54.672 56.2944 54.672ZM56.2944 57.531C55.7481 57.531 55.2989 57.0879 55.2989 56.5355C55.2989 55.9892 55.7481 55.54 56.2944 55.54C56.8468 55.54 57.2899 55.9892 57.2899 56.5355C57.2899 57.0879 56.8468 57.531 56.2944 57.531Z" fill="#333333" style="fill:#333333;fill:color(display-p3 0.2000 0.2000 0.2000);fill-opacity:1;"/>
</svg>
