<svg width="100%" height="100%" style="overflow:visible;" preserveAspectRatio="none" viewBox="0 0 36.01 36.01" fill="none" xmlns="http://www.w3.org/2000/svg">
<g clip-path="url(#clip0_2941_708)">
<path d="M31.5898 3.6244H28.3541V1.93624C28.3541 1.31471 27.8503 0.810791 27.2287 0.810791C26.6071 0.810791 26.1032 1.31471 26.1032 1.93624V3.6244H10.347V1.93624C10.347 1.31471 9.84317 0.810791 9.22157 0.810791C8.59998 0.810791 8.09613 1.31471 8.09613 1.93624V3.6244H4.86048C2.30058 3.6244 0.218018 5.70697 0.218018 8.26686V32.1826C0.218018 34.7425 2.30058 36.825 4.86048 36.825H31.5898C34.1497 36.825 36.2322 34.7425 36.2322 32.1826V8.26686C36.2322 5.70697 34.1497 3.6244 31.5898 3.6244ZM33.9814 32.1826C33.9814 33.5034 32.9106 34.5741 31.5898 34.5741H4.86048C3.53963 34.5741 2.46891 33.5034 2.46891 32.1826V13.5424C2.46891 13.3482 2.6264 13.1907 2.82061 13.1907H33.6297C33.8239 13.1907 33.9814 13.3482 33.9814 13.5424V32.1826Z" fill="#1699F8" style="fill:#1699F8;fill:color(display-p3 0.0863 0.6000 0.9725);fill-opacity:1;"/>
</g>
<defs>
<clipPath id="clip0_2941_708">
<rect width="36.0142" height="36.0142" fill="white" style="fill:white;fill-opacity:1;" transform="translate(0.217896 0.810791)"/>
</clipPath>
</defs>
</svg>
