<svg width="100%" height="100%" style="overflow:visible;" preserveAspectRatio="none" viewBox="0 0 36.01 36.01" fill="none" xmlns="http://www.w3.org/2000/svg">
<g clip-path="url(#clip0_2941_722)">
<path d="M31.4423 3.6244H28.2067V1.93624C28.2067 1.31471 27.7028 0.810791 27.0812 0.810791C26.4596 0.810791 25.9558 1.31471 25.9558 1.93624V3.6244H10.1996V1.93624C10.1996 1.31471 9.69571 0.810791 9.07411 0.810791C8.45252 0.810791 7.94867 1.31471 7.94867 1.93624V3.6244H4.71302C2.15312 3.6244 0.0705566 5.70697 0.0705566 8.26686V32.1826C0.0705566 34.7425 2.15312 36.825 4.71302 36.825H31.4423C34.0022 36.825 36.0848 34.7425 36.0848 32.1826V8.26686C36.0848 5.70697 34.0022 3.6244 31.4423 3.6244ZM33.8339 32.1826C33.8339 33.5034 32.7632 34.5741 31.4423 34.5741H4.71302C3.39217 34.5741 2.32145 33.5034 2.32145 32.1826V13.5424C2.32145 13.3482 2.47894 13.1907 2.67315 13.1907H33.4822C33.6764 13.1907 33.8339 13.3482 33.8339 13.5424V32.1826Z" fill="#1699F8" style="fill:#1699F8;fill:color(display-p3 0.0863 0.6000 0.9725);fill-opacity:1;"/>
</g>
<defs>
<clipPath id="clip0_2941_722">
<rect width="36.0142" height="36.0142" fill="white" style="fill:white;fill-opacity:1;" transform="translate(0.0705566 0.810791)"/>
</clipPath>
</defs>
</svg>
