<svg width="100%" height="100%" style="overflow:visible;" preserveAspectRatio="none" viewBox="0 0 36.01 36.01" fill="none" xmlns="http://www.w3.org/2000/svg">
<g clip-path="url(#clip0_2941_733)">
<path d="M32.2949 3.6244H29.0592V1.93624C29.0592 1.31471 28.5554 0.810791 27.9338 0.810791C27.3122 0.810791 26.8083 1.31471 26.8083 1.93624V3.6244H11.0521V1.93624C11.0521 1.31471 10.5482 0.810791 9.92665 0.810791C9.30505 0.810791 8.80121 1.31471 8.80121 1.93624V3.6244H5.56555C3.00566 3.6244 0.923096 5.70697 0.923096 8.26686V32.1826C0.923096 34.7425 3.00566 36.825 5.56555 36.825H32.2949C34.8548 36.825 36.9373 34.7425 36.9373 32.1826V8.26686C36.9373 5.70697 34.8548 3.6244 32.2949 3.6244ZM34.6864 32.1826C34.6864 33.5034 33.6157 34.5741 32.2949 34.5741H5.56555C4.2447 34.5741 3.17398 33.5034 3.17398 32.1826V13.5424C3.17398 13.3482 3.33148 13.1907 3.52569 13.1907H34.3347C34.5289 13.1907 34.6864 13.3482 34.6864 13.5424V32.1826Z" fill="#1699F8" style="fill:#1699F8;fill:color(display-p3 0.0863 0.6000 0.9725);fill-opacity:1;"/>
</g>
<defs>
<clipPath id="clip0_2941_733">
<rect width="36.0142" height="36.0142" fill="white" style="fill:white;fill-opacity:1;" transform="translate(0.923096 0.810791)"/>
</clipPath>
</defs>
</svg>
