<svg width="100%" height="100%" style="overflow:visible;" preserveAspectRatio="none" viewBox="0 0 36.01 36.01" fill="none" xmlns="http://www.w3.org/2000/svg">
<g clip-path="url(#clip0_2941_745)">
<path d="M31.5898 3.18324H28.3541V1.49507C28.3541 0.873547 27.8503 0.369629 27.2287 0.369629C26.6071 0.369629 26.1032 0.873547 26.1032 1.49507V3.18324H10.347V1.49507C10.347 0.873547 9.84317 0.369629 9.22157 0.369629C8.59998 0.369629 8.09613 0.873547 8.09613 1.49507V3.18324H4.86048C2.30058 3.18324 0.218018 5.2658 0.218018 7.8257V31.7414C0.218018 34.3013 2.30058 36.3839 4.86048 36.3839H31.5898C34.1497 36.3839 36.2322 34.3013 36.2322 31.7414V7.8257C36.2322 5.2658 34.1497 3.18324 31.5898 3.18324ZM33.9814 31.7414C33.9814 33.0622 32.9106 34.133 31.5898 34.133H4.86048C3.53963 34.133 2.46891 33.0622 2.46891 31.7414V13.1012C2.46891 12.907 2.6264 12.7495 2.82061 12.7495H33.6297C33.8239 12.7495 33.9814 12.907 33.9814 13.1012V31.7414Z" fill="#1699F8" style="fill:#1699F8;fill:color(display-p3 0.0863 0.6000 0.9725);fill-opacity:1;"/>
</g>
<defs>
<clipPath id="clip0_2941_745">
<rect width="36.0142" height="36.0142" fill="white" style="fill:white;fill-opacity:1;" transform="translate(0.218018 0.369629)"/>
</clipPath>
</defs>
</svg>
