<svg width="100%" height="100%" style="overflow:visible;" preserveAspectRatio="none" viewBox="0 0 44 44" fill="none" xmlns="http://www.w3.org/2000/svg">
<g clip-path="url(#clip0_3317_384)">
<g filter="url(#filter0_d_3317_384)">
<path d="M41.0384 39.053C40.7177 38.4091 29.8715 16.6384 29.2892 15.4697V3.22607H30.8361C31.548 3.22607 32.1252 2.64892 32.1252 1.93701C32.1252 1.22511 31.548 0.647949 30.8361 0.647949C27.3715 0.647949 18.1265 0.647949 14.1642 0.647949C13.4523 0.647949 12.8752 1.22511 12.8752 1.93701C12.8752 2.64892 13.4523 3.22607 14.1642 3.22607H15.7111V15.4696C-1.75723 50.5325 6.73081 33.4952 3.96277 39.0513C2.67577 41.6254 4.54998 44.6479 7.42167 44.6479H37.5787C40.4597 44.6479 42.32 41.6164 41.0384 39.053ZM18.154 16.3478C18.2429 16.1692 18.2892 15.9724 18.2892 15.7729V3.22607H26.7111V15.7729C26.7111 15.9724 26.7574 16.1692 26.8464 16.3478L31.0554 24.7964H26.3271C25.7877 23.1997 24.2766 22.0464 22.5002 22.0464C20.7238 22.0464 19.2126 23.1997 18.6733 24.7964H13.9449L18.154 16.3478ZM23.9611 26.0854C23.9611 26.891 23.3058 27.5464 22.5002 27.5464C21.6946 27.5464 21.0392 26.891 21.0392 26.0854C21.0392 25.2799 21.6946 24.6245 22.5002 24.6245C23.3058 24.6245 23.9611 25.2799 23.9611 26.0854ZM37.5787 42.0698H7.42167C6.46329 42.0698 5.8399 41.0619 6.2695 40.2026L12.6605 27.3745H18.6733C19.2126 28.9712 20.7238 30.1245 22.5002 30.1245C24.2766 30.1245 25.7877 28.9712 26.3271 27.3745H32.3398L38.7316 40.2043C39.1604 41.0618 38.5366 42.0698 37.5787 42.0698Z" fill="#30DCFC" style="fill:#30DCFC;fill:color(display-p3 0.1882 0.8627 0.9882);fill-opacity:1;"/>
<path d="M17.0002 30.9839C14.7731 30.9839 12.9612 32.7958 12.9612 35.0229C12.9612 37.2501 14.7731 39.062 17.0002 39.062C19.2274 39.062 21.0393 37.2501 21.0393 35.0229C21.0393 32.7958 19.2274 30.9839 17.0002 30.9839ZM17.0002 36.4839C16.1947 36.4839 15.5393 35.8285 15.5393 35.0229C15.5393 34.2174 16.1947 33.562 17.0002 33.562C17.8058 33.562 18.4612 34.2174 18.4612 35.0229C18.4612 35.8285 17.8058 36.4839 17.0002 36.4839Z" fill="#30DCFC" style="fill:#30DCFC;fill:color(display-p3 0.1882 0.8627 0.9882);fill-opacity:1;"/>
<path d="M27.8893 32.0211C27.7281 31.2482 26.9569 30.8246 26.2513 31.0396C25.5399 31.2664 25.1944 31.9853 25.3919 32.6475C25.6322 33.3848 26.359 33.6964 26.9998 33.5061C27.6788 33.2841 28.0065 32.6474 27.8893 32.0211Z" fill="#30DCFC" style="fill:#30DCFC;fill:color(display-p3 0.1882 0.8627 0.9882);fill-opacity:1;"/>
<path d="M32.0143 34.771C31.8552 34.0077 31.0983 33.5741 30.3755 33.7896C29.6376 34.0301 29.3264 34.7584 29.517 35.3975C29.7543 36.1258 30.4746 36.4492 31.1249 36.256C31.8166 36.0298 32.1298 35.3881 32.0143 34.771Z" fill="#30DCFC" style="fill:#30DCFC;fill:color(display-p3 0.1882 0.8627 0.9882);fill-opacity:1;"/>
<path d="M26.5142 37.5211C26.3533 36.7494 25.5832 36.3243 24.8763 36.5397C24.1564 36.7692 23.8221 37.4946 24.0169 38.1476C24.2573 38.8855 24.9839 39.1964 25.6248 39.0061C26.3041 38.7839 26.6314 38.1471 26.5142 37.5211Z" fill="#30DCFC" style="fill:#30DCFC;fill:color(display-p3 0.1882 0.8627 0.9882);fill-opacity:1;"/>
</g>
</g>
<defs>
<filter id="filter0_d_3317_384" x="2.54932" y="0.647949" width="38.9014" height="44" filterUnits="userSpaceOnUse" color-interpolation-filters="sRGB">
<feFlood flood-opacity="0" result="BackgroundImageFix"/>
<feColorMatrix in="SourceAlpha" type="matrix" values="0 0 0 0 0 0 0 0 0 0 0 0 0 0 0 0 0 0 127 0" result="hardAlpha"/>
<feOffset dx="-1"/>
<feComposite in2="hardAlpha" operator="out"/>
<feColorMatrix type="matrix" values="0 0 0 0 0.0235294 0 0 0 0 0.0196078 0 0 0 0 0.278431 0 0 0 1 0"/>
<feBlend mode="normal" in2="BackgroundImageFix" result="effect1_dropShadow_3317_384"/>
<feBlend mode="normal" in="SourceGraphic" in2="effect1_dropShadow_3317_384" result="shape"/>
</filter>
<clipPath id="clip0_3317_384">
<rect width="44" height="44" fill="white" style="fill:white;fill-opacity:1;" transform="translate(0.5 0.647949)"/>
</clipPath>
</defs>
</svg>
