<svg width="100%" height="100%" style="overflow:visible;" preserveAspectRatio="none" viewBox="0 0 19 19" fill="none" xmlns="http://www.w3.org/2000/svg">
<g clip-path="url(#clip0_2945_2568)">
<path d="M17.5146 11.5975C17.2804 11.8686 16.9908 12.0863 16.6654 12.2361C16.3399 12.3859 15.9862 12.4642 15.628 12.4659C15.6012 12.4659 15.576 12.4659 15.5493 12.4644C15.5099 12.4638 15.4724 12.4475 15.445 12.4193C15.4176 12.391 15.4025 12.353 15.4031 12.3136C15.4038 12.2743 15.42 12.2367 15.4483 12.2093C15.4765 12.1819 15.5145 12.1669 15.5539 12.1675H15.5582C15.5819 12.169 15.6042 12.169 15.628 12.169C16.8748 12.169 17.8887 11.1121 17.8887 9.81327C17.8921 9.49856 17.8325 9.18635 17.7134 8.895C17.5944 8.60365 17.4183 8.33906 17.1955 8.11678C17.1859 8.10665 17.1779 8.09514 17.1717 8.08264C17.1717 8.08116 17.1702 8.07967 17.1702 8.07819C17.1598 8.05897 17.1538 8.03764 17.1528 8.01578C17.1517 7.99393 17.1557 7.97213 17.1643 7.95202C17.2402 7.71297 17.2788 7.46362 17.2786 7.2128C17.2786 5.911 16.2633 4.85427 15.0165 4.85427C13.7698 4.85427 12.7544 5.911 12.7544 7.2128C12.7544 7.25217 12.7387 7.28992 12.7109 7.31776C12.683 7.3456 12.6453 7.36124 12.6059 7.36124C12.5665 7.36124 12.5288 7.3456 12.501 7.31776C12.4731 7.28992 12.4575 7.25217 12.4575 7.2128C12.4575 5.74772 13.6049 4.5574 15.0165 4.5574H15.0284C15.1057 4.34265 15.1454 4.11618 15.1457 3.88795C15.1457 2.88896 14.4169 2.07552 13.5233 2.07552C13.2252 2.08283 12.935 2.17292 12.6852 2.33571C12.4353 2.4985 12.2357 2.72758 12.1086 2.99732C12.1002 3.01493 12.0882 3.03064 12.0735 3.04352C12.0588 3.0564 12.0417 3.06618 12.0231 3.07228C12.0045 3.07837 11.9849 3.08066 11.9654 3.07901C11.946 3.07735 11.927 3.07178 11.9097 3.06263C11.8748 3.04484 11.8483 3.01393 11.836 2.97666C11.8238 2.93938 11.8268 2.89878 11.8444 2.86373C11.9923 2.55355 12.2213 2.28915 12.5071 2.09854C12.793 1.90793 13.1252 1.79821 13.4683 1.78102C12.7656 1.29118 11.4036 0.471063 10.47 0.733797C10.0841 0.843641 9.81544 1.12419 9.64771 1.59473V5.09489C9.79661 4.88835 10.001 4.72825 10.2372 4.63314C10.4734 4.53804 10.7317 4.51183 10.9822 4.55755C11.0213 4.56247 11.0569 4.58275 11.0812 4.61393C11.1054 4.6451 11.1162 4.68463 11.1113 4.7238C11.1064 4.76297 11.0861 4.79858 11.0549 4.8228C11.0237 4.84702 10.9842 4.85786 10.945 4.85294C9.9238 4.7238 9.67591 5.64693 9.64771 5.76568V16.699C9.64771 18.3435 10.8545 19.6826 12.3387 19.6826C13.3095 19.6826 14.2001 19.0918 14.6618 18.1418C14.6633 18.1388 14.6662 18.1374 14.6677 18.1344C14.6727 18.1263 14.6787 18.1188 14.6855 18.1121C14.6912 18.1045 14.6976 18.0975 14.7048 18.0913C14.7117 18.086 14.7192 18.0815 14.7271 18.078C14.7358 18.0725 14.7453 18.0685 14.7553 18.0661L14.7642 18.0616C15.2845 17.9379 15.7473 17.641 16.0768 17.2198C16.4063 16.7986 16.583 16.278 16.578 15.7432C16.5766 15.5612 16.5547 15.38 16.5126 15.2029C16.5134 15.1975 16.5134 15.192 16.5126 15.1866C16.5119 15.1772 16.5119 15.1677 16.5126 15.1584C16.5128 15.1504 16.5138 15.1424 16.5156 15.1346C16.519 15.1217 16.524 15.1092 16.5305 15.0975C16.5319 15.0937 16.5339 15.0902 16.5364 15.0871C16.5458 15.0735 16.5573 15.0615 16.5705 15.0515L16.5735 15.0485C16.5809 15.0441 16.5854 15.0381 16.5928 15.0337C16.8895 14.8792 17.1508 14.6647 17.3602 14.4038C17.5696 14.1429 17.7225 13.8414 17.8092 13.5183C17.8959 13.1952 17.9144 12.8576 17.8637 12.5269C17.813 12.1963 17.6941 11.8798 17.5146 11.5975ZM14.0205 14.7977C13.8174 14.8043 13.6155 14.8316 13.4179 14.8793C13.3906 14.904 13.3552 14.9178 13.3184 14.9179H13.3149C13.3052 14.9173 13.2957 14.9153 13.2867 14.912C12.5875 15.1064 11.6405 15.6319 11.6524 17.0495C11.6523 17.0889 11.6367 17.1268 11.6089 17.1549C11.5811 17.183 11.5434 17.1989 11.5039 17.1994C11.4845 17.1995 11.4653 17.1958 11.4473 17.1885C11.4293 17.1811 11.413 17.1703 11.3992 17.1567C11.3854 17.143 11.3745 17.1268 11.367 17.1089C11.3595 17.091 11.3556 17.0718 11.3555 17.0524C11.3423 15.4834 12.3842 14.8793 13.1679 14.6463C13.1397 12.1957 10.9489 11.9671 10.8539 11.9582C10.8147 11.9543 10.7786 11.9351 10.7533 11.9049C10.7281 11.8746 10.7157 11.8357 10.7188 11.7964C10.7226 11.7572 10.7417 11.7212 10.7721 11.6961C10.8024 11.6711 10.8415 11.6591 10.8806 11.6628C10.9059 11.6643 13.3906 11.9137 13.4634 14.5722C13.6456 14.5324 13.8308 14.5086 14.0171 14.5009H14.0186C14.058 14.5007 14.0958 14.5162 14.1238 14.5439C14.1518 14.5716 14.1676 14.6093 14.1678 14.6486C14.168 14.688 14.1525 14.7258 14.1248 14.7538C14.0971 14.7818 14.0594 14.7976 14.0201 14.7978L14.0205 14.7977ZM15.0165 10.9637H15.0062C13.4891 10.8553 13.1566 9.65445 13.0883 9.25233C12.4324 9.19106 11.825 8.8802 11.3917 8.38397C11.3673 8.35407 11.3556 8.31585 11.3589 8.27742C11.3622 8.23898 11.3804 8.20335 11.4095 8.17808C11.4386 8.1528 11.4765 8.13985 11.515 8.14199C11.5535 8.14412 11.5897 8.16117 11.6158 8.18952C11.831 8.43548 12.0965 8.63235 12.3943 8.7668C12.6921 8.90125 13.0154 8.97015 13.3422 8.96881C13.9299 8.97763 14.4971 8.75304 14.9195 8.34428C15.3418 7.93551 15.5849 7.37595 15.5953 6.78827C15.5953 6.7489 15.6109 6.71114 15.6388 6.68331C15.6666 6.65547 15.7044 6.63983 15.7437 6.63983C15.7831 6.63983 15.8209 6.65547 15.8487 6.68331C15.8765 6.71114 15.8922 6.7489 15.8922 6.78827C15.8818 7.44622 15.6139 8.07389 15.1459 8.53647C14.6779 8.99904 14.0471 9.25963 13.3891 9.26227C13.4618 9.64509 13.7676 10.5773 15.0263 10.6663C15.0657 10.6677 15.1029 10.6847 15.1298 10.7135C15.1566 10.7423 15.171 10.7806 15.1696 10.82C15.1682 10.8593 15.1512 10.8966 15.1224 10.9234C15.0936 10.9503 15.0553 10.9646 15.0159 10.9632L15.0165 10.9637Z" fill="white" style="fill:white;fill-opacity:1;"/>
<path d="M8.01793 4.55686C8.26837 4.51086 8.52672 4.53701 8.76287 4.63225C8.99901 4.7275 9.2032 4.88791 9.35164 5.0948V1.59464C9.18539 1.12424 8.91524 0.843695 8.53079 0.733703C7.59489 0.469632 6.23238 1.29123 5.53027 1.78108C5.87353 1.79838 6.20575 1.90805 6.49184 2.09852C6.77793 2.28898 7.00728 2.55317 7.15566 2.86319C7.17338 2.89842 7.17637 2.93925 7.16398 2.97669C7.15159 3.01413 7.12484 3.04512 7.08961 3.06284C7.05437 3.08055 7.01354 3.08354 6.9761 3.07116C6.93866 3.05877 6.90767 3.03202 6.88996 2.99678C6.76303 2.72723 6.56366 2.49827 6.31411 2.33549C6.06457 2.17271 5.77468 2.08251 5.47683 2.07498C4.58175 2.07498 3.85441 2.88842 3.85441 3.88741C3.85398 4.1157 3.89368 4.3423 3.97168 4.55686H3.98355C5.39371 4.55686 6.54261 5.74718 6.54261 7.21226C6.54261 7.25163 6.52697 7.28938 6.49914 7.31722C6.4713 7.34506 6.43354 7.36069 6.39418 7.36069C6.35481 7.36069 6.31705 7.34506 6.28921 7.31722C6.26138 7.28938 6.24574 7.25163 6.24574 7.21226C6.24574 5.91046 5.23042 4.85373 3.98355 4.85373C2.73668 4.85373 1.72003 5.91105 1.72003 7.21285C1.71982 7.46367 1.75837 7.71302 1.83432 7.95207C1.84315 7.97207 1.84733 7.99382 1.84656 8.01567C1.84579 8.03752 1.84009 8.05891 1.82987 8.07824C1.82876 8.08048 1.82725 8.08249 1.82542 8.08418C1.82028 8.09646 1.81271 8.10757 1.80315 8.11684C1.5805 8.33916 1.4046 8.6038 1.2858 8.89516C1.167 9.18652 1.10772 9.4987 1.11143 9.81333C1.11143 11.1122 2.12526 12.169 3.37214 12.169C3.39425 12.169 3.418 12.169 3.44027 12.1675C3.47915 12.168 3.51644 12.1831 3.54475 12.2098C3.57306 12.2364 3.59034 12.2727 3.59316 12.3115C3.59393 12.3311 3.59081 12.3505 3.58397 12.3688C3.57713 12.3872 3.5667 12.4039 3.55331 12.4181C3.53992 12.4324 3.52383 12.4438 3.50598 12.4517C3.48812 12.4597 3.46886 12.464 3.44932 12.4644C3.42394 12.4659 3.39722 12.4659 3.37214 12.4659C3.01375 12.4642 2.65988 12.3859 2.33429 12.2361C2.0087 12.0863 1.71893 11.8686 1.48446 11.5975C1.30545 11.88 1.18698 12.1964 1.13654 12.527C1.08611 12.8575 1.1048 13.1949 1.19143 13.5179C1.27807 13.8408 1.43076 14.1423 1.63987 14.4032C1.84897 14.6641 2.10993 14.8788 2.40625 15.0337C2.41296 15.0383 2.4194 15.0433 2.42555 15.0486C2.42703 15.0501 2.42852 15.0501 2.43 15.0515C2.44285 15.0619 2.45433 15.0739 2.46414 15.0872C2.46555 15.0909 2.46756 15.0944 2.47008 15.0976C2.47607 15.1093 2.48056 15.1218 2.48344 15.1347C2.48577 15.1424 2.48727 15.1504 2.48789 15.1584C2.48814 15.1678 2.48764 15.1773 2.48641 15.1866C2.48715 15.192 2.48715 15.1975 2.48641 15.2029C2.44513 15.3802 2.42323 15.5613 2.4211 15.7433C2.41608 16.2782 2.59293 16.7989 2.92266 17.2202C3.25238 17.6414 3.71543 17.9381 4.23589 18.0617C4.2387 18.0635 4.24169 18.065 4.2448 18.0662C4.25397 18.0695 4.2629 18.0735 4.27152 18.078C4.27974 18.0819 4.28768 18.0864 4.29527 18.0914C4.3016 18.0974 4.30755 18.1039 4.31308 18.1107C4.32067 18.1182 4.32716 18.1266 4.33238 18.1359C4.33386 18.1374 4.33683 18.1389 4.33683 18.1419C4.79996 19.0919 5.6891 19.6826 6.66136 19.6826C8.1441 19.6826 9.35164 18.3437 9.35164 16.699V5.76559C9.32493 5.64684 9.07703 4.72519 8.0543 4.85284C8.01513 4.85757 7.97569 4.84654 7.94465 4.82218C7.91361 4.79782 7.89352 4.76213 7.88879 4.72296C7.88407 4.68379 7.8951 4.64435 7.91946 4.61331C7.94381 4.58227 7.9795 4.56218 8.01868 4.55745L8.01793 4.55686ZM3.99394 10.9637H3.98355C3.94418 10.9651 3.90588 10.9508 3.87707 10.9239C3.84826 10.8971 3.8313 10.8598 3.82992 10.8205C3.82854 10.7811 3.84286 10.7428 3.86972 10.714C3.89658 10.6852 3.93379 10.6682 3.97316 10.6668C5.23043 10.5778 5.53769 9.64559 5.61043 9.26277C4.95218 9.26029 4.32118 8.99971 3.85298 8.53703C3.38477 8.07435 3.11673 7.44649 3.10643 6.78832C3.10643 6.74895 3.12207 6.7112 3.14991 6.68336C3.17775 6.65552 3.2155 6.63988 3.25487 6.63988C3.29424 6.63988 3.33199 6.65552 3.35983 6.68336C3.38767 6.7112 3.40331 6.74895 3.40331 6.78832C3.41377 7.37602 3.65685 7.93558 4.07924 8.34434C4.50163 8.75309 5.06887 8.97768 5.65659 8.96887C5.98341 8.9705 6.30676 8.90174 6.60465 8.76727C6.90253 8.6328 7.16797 8.43577 7.38292 8.18957C7.3954 8.17393 7.41091 8.16098 7.42853 8.15149C7.44615 8.142 7.4655 8.13617 7.48542 8.13435C7.50535 8.13253 7.52544 8.13475 7.54448 8.14089C7.56353 8.14703 7.58113 8.15696 7.59624 8.17008C7.61135 8.18319 7.62365 8.19923 7.63241 8.21722C7.64116 8.23522 7.64619 8.25479 7.64718 8.27478C7.64818 8.29476 7.64513 8.31474 7.63821 8.33351C7.63128 8.35229 7.62064 8.36947 7.60691 8.38402C7.17425 8.88023 6.56739 9.19112 5.9119 9.25238C5.84199 9.6545 5.51097 10.8554 3.99394 10.9637ZM8.11961 11.6629C8.13895 11.6609 8.15849 11.6628 8.17708 11.6685C8.19568 11.6741 8.21295 11.6835 8.22788 11.6959C8.24282 11.7084 8.25511 11.7237 8.26405 11.7409C8.27299 11.7582 8.27838 11.7771 8.27993 11.7965C8.28335 11.8358 8.27107 11.8749 8.24576 11.9052C8.22045 11.9355 8.18417 11.9546 8.14485 11.9582C8.05133 11.9672 5.85891 12.1957 5.83085 14.6463C6.6146 14.8794 7.65664 15.4835 7.64461 17.0525C7.64422 17.0916 7.62841 17.129 7.60062 17.1565C7.57282 17.184 7.53529 17.1994 7.49618 17.1994H7.49469C7.4752 17.1992 7.45593 17.1952 7.438 17.1876C7.42006 17.1799 7.40381 17.1688 7.39016 17.1549C7.37652 17.141 7.36575 17.1245 7.35847 17.1064C7.35119 17.0883 7.34754 17.069 7.34774 17.0495C7.35813 15.6304 6.4157 15.1065 5.71493 14.912C5.70472 14.9148 5.69429 14.9168 5.68375 14.9179H5.68227C5.66306 14.9182 5.644 14.9147 5.62617 14.9075C5.60834 14.9004 5.59209 14.8898 5.57836 14.8764C5.38217 14.8298 5.18172 14.8035 4.98016 14.7977C4.94079 14.7975 4.90311 14.7817 4.87542 14.7537C4.84772 14.7257 4.83227 14.6879 4.83246 14.6485C4.83266 14.6092 4.84849 14.5715 4.87647 14.5438C4.90444 14.5161 4.94228 14.5006 4.98164 14.5008H4.98313C5.16891 14.5085 5.35368 14.5323 5.53532 14.5721C5.60894 11.9137 8.09215 11.6643 8.11961 11.6629Z" fill="white" style="fill:white;fill-opacity:1;"/>
</g>
<defs>
<clipPath id="clip0_2945_2568">
<rect width="19" height="19" fill="white" style="fill:white;fill-opacity:1;" transform="translate(0 0.682617)"/>
</clipPath>
</defs>
</svg>
