<svg width="100%" height="100%" style="overflow:visible;" preserveAspectRatio="none" viewBox="0 0 101.97 101.6" fill="none" xmlns="http://www.w3.org/2000/svg" xmlns:xlink="http://www.w3.org/1999/xlink">
<path d="M0.741699 2.80238C0.741699 1.3926 1.88455 0.249756 3.29433 0.249756H95.1914C96.6012 0.249756 97.744 1.39261 97.744 2.80239V94.059C97.744 95.8212 96.3154 97.2498 94.5532 97.2498H3.93249C2.17026 97.2498 0.741699 95.8212 0.741699 94.059V2.80238Z" fill="url(#pattern0_2835_3110)" style=""/>
<path fill-rule="evenodd" clip-rule="evenodd" d="M102.709 2.42422C102.709 6.1641 99.6768 9.19586 95.9369 9.19586C92.197 9.19586 89.1653 6.1641 89.1653 2.42422C89.1653 -1.31565 92.197 -4.34741 95.9369 -4.34741C99.6768 -4.34741 102.709 -1.31565 102.709 2.42422ZM91.347 3.07676L93.8236 5.72746L94.4902 6.44067L95.9926 5.03697L95.9972 5.04193L100.34 0.984009C100.703 0.644947 100.723 0.070744 100.384 -0.292099C100.045 -0.654994 99.4704 -0.674509 99.1075 -0.335447L97.6856 0.993126C97.6562 1.01456 97.6278 1.03786 97.6006 1.0633L94.5767 3.88856L92.6664 1.84395C92.3273 1.48111 91.7532 1.4616 91.3903 1.80066C91.0274 2.13972 91.0079 2.71387 91.347 3.07676Z" fill="#1699F8" style="fill:#1699F8;fill:color(display-p3 0.0863 0.6000 0.9725);fill-opacity:1;"/>
<defs>
<pattern id="pattern0_2835_3110" patternContentUnits="objectBoundingBox" width="1" height="1">
<use xlink:href="#image0_2835_3110" transform="scale(0.00181818)"/>
</pattern>
<image id="image0_2835_3110" width="550" height="550" preserveAspectRatio="none" xlink:href="/assets/frame-15.png"/>
</defs>
</svg>
