<svg width="100%" height="100%" style="overflow:visible;" preserveAspectRatio="none" viewBox="0 0 101.66 101.6" fill="none" xmlns="http://www.w3.org/2000/svg" xmlns:xlink="http://www.w3.org/1999/xlink">
<path d="M0.398926 2.80238C0.398926 1.3926 1.54178 0.249756 2.95156 0.249756H94.8486C96.2584 0.249756 97.4012 1.39261 97.4012 2.80239V94.059C97.4012 95.8212 95.9727 97.2498 94.2104 97.2498H3.58972C1.82749 97.2498 0.398926 95.8212 0.398926 94.059V2.80238Z" fill="url(#pattern0_2835_3130)" style=""/>
<path fill-rule="evenodd" clip-rule="evenodd" d="M102.062 2.42422C102.062 6.1641 99.0301 9.19586 95.2902 9.19586C91.5503 9.19586 88.5186 6.1641 88.5186 2.42422C88.5186 -1.31565 91.5503 -4.34741 95.2902 -4.34741C99.0301 -4.34741 102.062 -1.31565 102.062 2.42422ZM90.7003 3.07676L93.1769 5.72746L93.8435 6.44067L95.3459 5.03697L95.3505 5.04193L99.6936 0.984009C100.056 0.644947 100.076 0.070744 99.7369 -0.292099C99.3979 -0.654994 98.8237 -0.674509 98.4608 -0.335447L97.0388 0.993126C97.0095 1.01456 96.981 1.03786 96.9539 1.0633L93.93 3.88856L92.0197 1.84395C91.6806 1.48111 91.1065 1.4616 90.7436 1.80066C90.3807 2.13972 90.3612 2.71387 90.7003 3.07676Z" fill="#1699F8" style="fill:#1699F8;fill:color(display-p3 0.0863 0.6000 0.9725);fill-opacity:1;"/>
<defs>
<pattern id="pattern0_2835_3130" patternContentUnits="objectBoundingBox" width="1" height="1">
<use xlink:href="#image0_2835_3130" transform="scale(0.00181818)"/>
</pattern>
<image id="image0_2835_3130" width="550" height="550" preserveAspectRatio="none" xlink:href="/assets/frame-17.png"/>
</defs>
</svg>
