<svg width="100%" height="100%" style="overflow:visible;" preserveAspectRatio="none" viewBox="0 0 32.57 32.57" fill="none" xmlns="http://www.w3.org/2000/svg">
<path d="M9.41357 14.3641C8.35057 13.5988 7.20254 15.2145 8.26553 15.9799C9.28601 16.7452 10.4766 15.172 9.41357 14.3641Z" fill="white" style="fill:white;fill-opacity:1;"/>
<path d="M7.45766 10.4949C8.60569 9.89958 7.71278 8.11375 6.56475 8.70903C5.79939 9.0917 5.88443 10.2823 6.69231 10.5374C6.94743 10.6224 7.24506 10.6224 7.45766 10.4949Z" fill="white" style="fill:white;fill-opacity:1;"/>
<path d="M11.7522 7.1358C12.2923 7.1358 12.7301 6.69795 12.7301 6.15784C12.7301 5.61774 12.2923 5.17989 11.7522 5.17989C11.212 5.17989 10.7742 5.61774 10.7742 6.15784C10.7742 6.69795 11.212 7.1358 11.7522 7.1358Z" fill="white" style="fill:white;fill-opacity:1;"/>
<path d="M14.5159 16.15C15.3663 16.2775 16.0041 15.2996 15.4939 14.5767C15.2813 14.3216 14.9836 14.1515 14.686 14.1515C13.4529 14.1941 13.3679 15.9799 14.5159 16.15Z" fill="white" style="fill:white;fill-opacity:1;"/>
<path d="M11.7521 12.1106C12.2218 12.1106 12.6025 11.7299 12.6025 11.2602C12.6025 10.7905 12.2218 10.4098 11.7521 10.4098C11.2825 10.4098 10.9018 10.7905 10.9018 11.2602C10.9018 11.7299 11.2825 12.1106 11.7521 12.1106Z" fill="white" style="fill:white;fill-opacity:1;"/>
<path d="M17.4498 9.3043C17.0246 8.07123 15.1537 8.66651 15.5789 9.89958C15.9616 11.1326 17.8325 10.5374 17.4498 9.3043Z" fill="white" style="fill:white;fill-opacity:1;"/>
<path d="M20.171 11.2602C20.171 6.62556 16.3868 2.84131 11.7521 2.84131C7.1175 2.84131 3.33325 6.62556 3.33325 11.2602C3.33325 15.8949 7.1175 19.6791 11.7521 19.6791C16.3868 19.6791 20.171 15.8949 20.171 11.2602ZM10.0514 11.2602C10.0514 10.3248 10.8167 9.55942 11.7521 9.55942C12.6876 9.55942 13.4529 10.3248 13.4529 11.2602C13.4529 12.1956 12.6876 12.961 11.7521 12.961C10.8167 12.961 10.0514 12.1956 10.0514 11.2602ZM15.9191 7.85863C16.897 7.56099 17.9175 8.07123 18.2577 9.04918C18.7679 10.6224 17.1096 11.983 15.664 11.2602C14.2183 10.4949 14.3458 8.36887 15.9191 7.85863ZM16.1742 14.109C17.0671 15.3421 16.1742 17.0429 14.686 17.0429C12.9002 17.0429 12.1773 14.7468 13.5805 13.7263C14.4309 13.0886 15.5789 13.2586 16.1742 14.109ZM11.7521 4.3295C12.7726 4.3295 13.5805 5.13737 13.5805 6.15784C13.5805 7.17832 12.7726 7.98619 11.7521 7.98619C10.7317 7.98619 9.9238 7.17832 9.9238 6.15784C9.9238 5.13737 10.7317 4.3295 11.7521 4.3295ZM5.24664 9.04918C5.54428 8.07123 6.60727 7.56099 7.58522 7.85863C9.88128 8.58147 8.81829 12.1106 6.43719 11.3452C5.50176 11.0476 4.949 10.0271 5.24664 9.04918ZM10.3065 16.2775C9.71121 17.0854 8.56317 17.298 7.71278 16.7027C6.90491 16.1075 6.69231 14.9594 7.28758 14.109C7.88286 13.3012 9.03089 13.0886 9.88128 13.6838C10.7317 14.2791 10.9018 15.4271 10.3065 16.2775Z" fill="white" style="fill:white;fill-opacity:1;"/>
<path d="M30.2482 19.7641L28.0797 15.8098C28.76 12.1956 27.5695 8.49643 24.8907 5.94525C22.4671 3.60666 19.2356 2.58619 15.8766 2.96887C18.938 4.49958 21.064 7.64603 21.064 11.3027C21.064 16.4051 16.897 20.572 11.7947 20.572C10.434 20.572 9.15845 20.2744 7.9679 19.7641C8.86081 21.1673 10.0939 22.4004 11.5396 23.2933V29.6712C11.5396 29.9263 11.7521 30.0964 11.9647 30.0964H22.1695C22.3821 30.0964 22.5947 29.9263 22.5947 29.6712V26.8649H25.0183C26.2088 26.8649 27.1868 25.887 27.1868 24.6964V21.5075L30.0781 20.4019C30.2057 20.3594 30.2907 20.2744 30.3333 20.1468C30.2907 20.0193 30.2907 19.8917 30.2482 19.7641Z" fill="white" style="fill:white;fill-opacity:1;"/>
</svg>
