<svg width="100%" height="100%" style="overflow:visible;" preserveAspectRatio="none" viewBox="0 0 101.66 101.6" fill="none" xmlns="http://www.w3.org/2000/svg" xmlns:xlink="http://www.w3.org/1999/xlink">
<path d="M0.413086 2.80238C0.413086 1.3926 1.55594 0.249756 2.96572 0.249756H94.8628C96.2725 0.249756 97.4154 1.39261 97.4154 2.80239V94.059C97.4154 95.8212 95.9868 97.2498 94.2246 97.2498H3.60388C1.84165 97.2498 0.413086 95.8212 0.413086 94.059V2.80238Z" fill="#EDEDED" style="fill:#EDEDED;fill:color(display-p3 0.9292 0.9292 0.9292);fill-opacity:1;"/>
<path d="M0.413086 2.80238C0.413086 1.3926 1.55594 0.249756 2.96572 0.249756H94.8628C96.2725 0.249756 97.4154 1.39261 97.4154 2.80239V94.059C97.4154 95.8212 95.9868 97.2498 94.2246 97.2498H3.60388C1.84165 97.2498 0.413086 95.8212 0.413086 94.059V2.80238Z" fill="url(#pattern0_2835_3100)" style=""/>
<path fill-rule="evenodd" clip-rule="evenodd" d="M102.072 2.42422C102.072 6.1641 99.0403 9.19586 95.3004 9.19586C91.5606 9.19586 88.5288 6.1641 88.5288 2.42422C88.5288 -1.31565 91.5606 -4.34741 95.3004 -4.34741C99.0403 -4.34741 102.072 -1.31565 102.072 2.42422ZM90.7106 3.07676L93.1872 5.72746L93.8539 6.44067L95.3562 5.03697L95.3609 5.04193L99.704 0.984009C100.067 0.644947 100.086 0.070744 99.7473 -0.292099C99.4083 -0.654994 98.8341 -0.674509 98.4712 -0.335447L97.0492 0.993126C97.0198 1.01456 96.9914 1.03786 96.9642 1.0633L93.9404 3.88856L92.03 1.84395C91.691 1.48111 91.1168 1.4616 90.7539 1.80066C90.391 2.13972 90.3716 2.71387 90.7106 3.07676Z" fill="#1699F8" style="fill:#1699F8;fill:color(display-p3 0.0863 0.6000 0.9725);fill-opacity:1;"/>
<defs>
<pattern id="pattern0_2835_3100" patternContentUnits="objectBoundingBox" width="1" height="1">
<use xlink:href="#image0_2835_3100" transform="scale(0.00181818)"/>
</pattern>
<image id="image0_2835_3100" width="550" height="550" preserveAspectRatio="none" xlink:href="/assets/frame-14.png"/>
</defs>
</svg>
