<svg width="100%" height="100%" style="overflow:visible;" preserveAspectRatio="none" viewBox="0 0 101.66 101.6" fill="none" xmlns="http://www.w3.org/2000/svg" xmlns:xlink="http://www.w3.org/1999/xlink">
<path d="M0.227295 2.80238C0.227295 1.3926 1.37015 0.249756 2.77993 0.249756H94.677C96.0867 0.249756 97.2296 1.39261 97.2296 2.80239V94.059C97.2296 95.8212 95.801 97.2498 94.0388 97.2498H3.41808C1.65586 97.2498 0.227295 95.8212 0.227295 94.059V2.80238Z" fill="url(#pattern0_3292_489)" style=""/>
<path fill-rule="evenodd" clip-rule="evenodd" d="M101.89 2.42422C101.89 6.1641 98.8584 9.19586 95.1186 9.19586C91.3787 9.19586 88.3469 6.1641 88.3469 2.42422C88.3469 -1.31565 91.3787 -4.34741 95.1186 -4.34741C98.8584 -4.34741 101.89 -1.31565 101.89 2.42422ZM90.5286 3.07676L93.0053 5.72746L93.6719 6.44067L95.1743 5.03697L95.1789 5.04193L99.522 0.984009C99.8849 0.644947 99.9044 0.070744 99.5653 -0.292099C99.2263 -0.654994 98.6521 -0.674509 98.2892 -0.335447L96.8672 0.993126C96.8378 1.01456 96.8094 1.03786 96.7822 1.0633L93.7584 3.88856L91.848 1.84395C91.509 1.48111 90.9348 1.4616 90.5719 1.80066C90.209 2.13972 90.1896 2.71387 90.5286 3.07676Z" fill="#1699F8" style="fill:#1699F8;fill:color(display-p3 0.0863 0.6000 0.9725);fill-opacity:1;"/>
<defs>
<pattern id="pattern0_3292_489" patternContentUnits="objectBoundingBox" width="1" height="1">
<use xlink:href="#image0_3292_489" transform="scale(0.00181818)"/>
</pattern>
<image id="image0_3292_489" width="550" height="550" preserveAspectRatio="none" xlink:href="/assets/frame-18.png"/>
</defs>
</svg>
