<svg width="100%" height="100%" style="overflow:visible;" preserveAspectRatio="none" viewBox="0 0 101.35 101.6" fill="none" xmlns="http://www.w3.org/2000/svg" xmlns:xlink="http://www.w3.org/1999/xlink">
<path d="M0.0703125 2.80238C0.0703125 1.3926 1.21316 0.249756 2.62294 0.249756H94.52C95.9298 0.249756 97.0726 1.39261 97.0726 2.80239V94.059C97.0726 95.8212 95.6441 97.2498 93.8818 97.2498H3.2611C1.49888 97.2498 0.0703125 95.8212 0.0703125 94.059V2.80238Z" fill="#EDEDED" style="fill:#EDEDED;fill:color(display-p3 0.9292 0.9292 0.9292);fill-opacity:1;"/>
<path d="M0.0703125 2.80238C0.0703125 1.3926 1.21316 0.249756 2.62294 0.249756H94.52C95.9298 0.249756 97.0726 1.39261 97.0726 2.80239V94.059C97.0726 95.8212 95.6441 97.2498 93.8818 97.2498H3.2611C1.49888 97.2498 0.0703125 95.8212 0.0703125 94.059V2.80238Z" fill="url(#pattern0_2835_3120)" style=""/>
<path fill-rule="evenodd" clip-rule="evenodd" d="M101.425 2.42422C101.425 6.1641 98.3936 9.19586 94.6537 9.19586C90.9138 9.19586 87.8821 6.1641 87.8821 2.42422C87.8821 -1.31565 90.9138 -4.34741 94.6537 -4.34741C98.3936 -4.34741 101.425 -1.31565 101.425 2.42422ZM90.0639 3.07676L92.5405 5.72746L93.2072 6.44067L94.7095 5.03697L94.7142 5.04193L99.0573 0.984009C99.4201 0.644947 99.4396 0.070744 99.1006 -0.292099C98.7616 -0.654994 98.1874 -0.674509 97.8245 -0.335447L96.4025 0.993126C96.3731 1.01456 96.3447 1.03786 96.3175 1.0633L93.2937 3.88856L91.3833 1.84395C91.0443 1.48111 90.4701 1.4616 90.1072 1.80066C89.7443 2.13972 89.7248 2.71387 90.0639 3.07676Z" fill="#1699F8" style="fill:#1699F8;fill:color(display-p3 0.0863 0.6000 0.9725);fill-opacity:1;"/>
<defs>
<pattern id="pattern0_2835_3120" patternContentUnits="objectBoundingBox" width="1" height="1">
<use xlink:href="#image0_2835_3120" transform="scale(0.00181818)"/>
</pattern>
<image id="image0_2835_3120" width="550" height="550" preserveAspectRatio="none" xlink:href="/assets/frame-16.png"/>
</defs>
</svg>
