<svg width="100%" height="100%" style="overflow:visible;" preserveAspectRatio="none" viewBox="0 0 32.57 32.57" fill="none" xmlns="http://www.w3.org/2000/svg">
<path d="M13.198 11.4069C14.124 12.1843 15.2967 12.6124 16.5 12.6124C17.7033 12.6124 18.876 12.1843 19.802 11.4069L20.5053 10.8167H24.9719L28.3106 7.18772L22.9642 1.84131L12.8679 11.13L13.198 11.4069Z" fill="#060346" style="fill:#060346;fill:color(display-p3 0.0235 0.0118 0.2745);fill-opacity:1;"/>
<path d="M20.0166 28.2015H12.9834C11.4441 28.2015 9.97389 27.9011 8.62706 27.3569C8.44112 27.9147 8.34028 28.511 8.34028 29.1305V30.513H24.6597V29.1305C24.6597 28.511 24.5589 27.9147 24.3729 27.3569C23.0261 27.9011 21.5559 28.2015 20.0166 28.2015Z" fill="#060346" style="fill:#060346;fill:color(display-p3 0.0235 0.0118 0.2745);fill-opacity:1;"/>
<path d="M21.1171 12.4976L20.8828 12.6942C19.613 13.7602 18.0564 14.2933 16.5 14.2933C14.9436 14.2933 13.387 13.7602 12.1172 12.6942L11.8829 12.4976H3V16.5372C3 22.042 7.47863 26.5206 12.9834 26.5206H20.0166C25.5214 26.5206 30 22.042 30 16.5372V12.4976H21.1171Z" fill="#060346" style="fill:#060346;fill:color(display-p3 0.0235 0.0118 0.2745);fill-opacity:1;"/>
</svg>
