<svg width="100%" height="100%" style="overflow:visible;" preserveAspectRatio="none" viewBox="0 0 80 80" fill="none" xmlns="http://www.w3.org/2000/svg" xmlns:xlink="http://www.w3.org/1999/xlink">
<circle cx="40.5" cy="40.6479" r="39" fill="white" style="fill:white;fill-opacity:1;"/>
<circle cx="40.5" cy="40.6479" r="39" fill="url(#pattern0_3317_405)" style=""/>
<circle cx="40.5" cy="40.6479" r="39" stroke="#060346" style="stroke:#060346;stroke:color(display-p3 0.0235 0.0118 0.2745);stroke-opacity:1;" stroke-width="2"/>
<g filter="url(#filter0_d_3317_405)">
<path d="M38.9264 24.5387C38.3555 23.9348 37.7221 23.3853 37.0312 22.8993C34.937 21.4265 32.4724 20.6479 29.9038 20.6479C23.0644 20.6479 17.5 26.2123 17.5 33.0519C17.5 34.2338 17.7236 35.4482 18.1141 36.6679H38.9264V24.5387ZM29.0578 25.7505C29.7923 25.7505 30.3914 26.3496 30.3914 27.084C30.3914 27.8186 29.7923 28.4176 29.0578 28.4176C28.3233 28.4176 27.7242 27.8186 27.7242 27.084C27.7242 26.3495 28.3233 25.7505 29.0578 25.7505ZM23.7234 25.7505C24.458 25.7505 25.057 26.3496 25.057 27.084C25.057 27.8186 24.458 28.4176 23.7234 28.4176C22.9889 28.4176 22.3898 27.8186 22.3898 27.084C22.3898 26.3495 22.9889 25.7505 23.7234 25.7505ZM23.7234 33.7521C22.9889 33.7521 22.3898 33.153 22.3898 32.4185C22.3898 31.684 22.9889 31.0849 23.7234 31.0849C24.458 31.0849 25.057 31.684 25.057 32.4185C25.057 33.153 24.458 33.7521 23.7234 33.7521ZM26.3906 30.996C25.6561 30.996 25.057 30.3969 25.057 29.6624C25.057 28.9279 25.6562 28.3288 26.3906 28.3288C27.1252 28.3288 27.7242 28.928 27.7242 29.6624C27.7242 30.3969 27.1252 30.996 26.3906 30.996ZM29.0578 33.7521C28.3233 33.7521 27.7242 33.153 27.7242 32.4185C27.7242 31.684 28.3233 31.0849 29.0578 31.0849C29.7923 31.0849 30.3914 31.684 30.3914 32.4185C30.3914 33.153 29.7923 33.7521 29.0578 33.7521ZM31.725 30.996C30.9904 30.996 30.3914 30.3969 30.3914 29.6624C30.3914 28.9279 30.9904 28.3288 31.725 28.3288C32.4595 28.3288 33.0586 28.928 33.0586 29.6624C33.0586 30.3969 32.4595 30.996 31.725 30.996ZM34.3922 33.7521C33.6576 33.7521 33.0586 33.153 33.0586 32.4185C33.0586 31.684 33.6577 31.0849 34.3922 31.0849C35.1267 31.0849 35.7258 31.684 35.7258 32.4185C35.7258 33.153 35.1267 33.7521 34.3922 33.7521ZM34.3922 28.4176C33.6576 28.4176 33.0586 27.8186 33.0586 27.084C33.0586 26.3495 33.6577 25.7505 34.3922 25.7505C35.1267 25.7505 35.7258 26.3496 35.7258 27.084C35.7258 27.8186 35.1267 28.4176 34.3922 28.4176Z" fill="#30DCFC" style="fill:#30DCFC;fill:color(display-p3 0.1882 0.8627 0.9882);fill-opacity:1;"/>
<path d="M24.8549 47.3368H55.3465C56.1638 46.4306 56.9204 45.5405 57.6131 44.6696H22.6379C23.36 45.6038 24.1103 46.4984 24.8549 47.3368Z" fill="#30DCFC" style="fill:#30DCFC;fill:color(display-p3 0.1882 0.8627 0.9882);fill-opacity:1;"/>
<path d="M62.2185 28.6665H41.5936V31.3337H62.9004C62.7715 30.4082 62.5404 29.5154 62.2185 28.6665Z" fill="#30DCFC" style="fill:#30DCFC;fill:color(display-p3 0.1882 0.8627 0.9882);fill-opacity:1;"/>
<path d="M30.1747 52.671H50.0229C50.9458 51.8269 51.8825 50.9342 52.8111 50.0039H27.3712C28.2963 50.932 29.2373 51.8244 30.1747 52.671Z" fill="#30DCFC" style="fill:#30DCFC;fill:color(display-p3 0.1882 0.8627 0.9882);fill-opacity:1;"/>
<path d="M20.7431 42.0024H59.5756C59.7557 41.7351 59.9303 41.4695 60.0965 41.2068C60.5003 40.5687 60.8621 39.9448 61.1828 39.3352L19.213 39.3351C19.6615 40.2359 20.1793 41.1287 20.7431 42.0024Z" fill="#30DCFC" style="fill:#30DCFC;fill:color(display-p3 0.1882 0.8627 0.9882);fill-opacity:1;"/>
<path d="M39.5932 59.7994C39.7995 59.9185 40.0297 59.9781 40.26 59.9781C40.4902 59.9781 40.7205 59.9185 40.9268 59.7994C42.177 59.0775 44.3948 57.4854 46.9702 55.3381H33.2927C35.7018 57.2882 37.927 58.8374 39.5932 59.7994Z" fill="#30DCFC" style="fill:#30DCFC;fill:color(display-p3 0.1882 0.8627 0.9882);fill-opacity:1;"/>
<path d="M50.616 20.6479C48.0475 20.6479 45.583 21.4264 43.4888 22.8993C42.7979 23.3852 42.1644 23.9348 41.5936 24.5387V25.9993H60.8139C58.5725 22.7683 54.8376 20.6479 50.616 20.6479Z" fill="#30DCFC" style="fill:#30DCFC;fill:color(display-p3 0.1882 0.8627 0.9882);fill-opacity:1;"/>
<path d="M41.5936 34.0008V36.668H62.3525C62.6733 35.7351 62.8789 34.8449 62.9682 34.0008H41.5936Z" fill="#30DCFC" style="fill:#30DCFC;fill:color(display-p3 0.1882 0.8627 0.9882);fill-opacity:1;"/>
</g>
<defs>
<pattern id="pattern0_3317_405" patternContentUnits="objectBoundingBox" width="1" height="1">
<use xlink:href="#image0_3317_405" transform="matrix(-0.000166911 -0.00101984 0.00133557 -0.000642696 0.0318599 2.36507)"/>
</pattern>
<filter id="filter0_d_3317_405" x="15.5" y="20.6479" width="47.4683" height="39.3301" filterUnits="userSpaceOnUse" color-interpolation-filters="sRGB">
<feFlood flood-opacity="0" result="BackgroundImageFix"/>
<feColorMatrix in="SourceAlpha" type="matrix" values="0 0 0 0 0 0 0 0 0 0 0 0 0 0 0 0 0 0 127 0" result="hardAlpha"/>
<feOffset dx="-2"/>
<feComposite in2="hardAlpha" operator="out"/>
<feColorMatrix type="matrix" values="0 0 0 0 0.0235294 0 0 0 0 0.0196078 0 0 0 0 0.278431 0 0 0 1 0"/>
<feBlend mode="normal" in2="BackgroundImageFix" result="effect1_dropShadow_3317_405"/>
<feBlend mode="normal" in="SourceGraphic" in2="effect1_dropShadow_3317_405" result="shape"/>
</filter>
<image id="image0_3317_405" width="1704" height="1203" preserveAspectRatio="none" xlink:href="/assets/group-6.png"/>
</defs>
</svg>
