<svg width="100%" height="100%" style="overflow:visible;" preserveAspectRatio="none" viewBox="0 0 98.85 66.07" fill="none" xmlns="http://www.w3.org/2000/svg">
<path d="M30.3683 27.4042C34.6638 28.6753 38.1574 30.8988 40.8499 34.0745C43.5415 37.2513 44.8882 41.0778 44.8882 45.5549C44.8882 52.089 42.6951 57.2028 38.3087 60.893C33.9214 64.5843 28.5524 66.4294 22.1999 66.4294C17.2385 66.4294 12.8067 65.2945 8.90462 63.0257C5.0025 60.7568 2.17276 57.4146 0.419434 52.997L11.1281 46.826C12.7008 51.7269 16.3921 54.1773 22.1999 54.1773C25.4059 54.1773 27.9017 53.4056 29.6873 51.8631C31.4709 50.3206 32.3647 48.2192 32.3647 45.5559C32.3647 42.8926 31.4709 40.8679 29.6873 39.2942C27.9017 37.7214 25.4059 36.9345 22.1999 36.9345L14.5712 36.8205L14.668 29.6741L27.1925 13.3382H2.3251V1.63086H42.2572V11.9773L30.3683 27.4052V27.4042Z" fill="#1699F8" style="fill:#1699F8;fill:color(display-p3 0.0863 0.6000 0.9725);fill-opacity:1;"/>
<path d="M73.8565 66.4291C65.9292 66.4291 59.7128 63.4198 55.2064 57.3991C50.699 51.3795 48.4453 43.3775 48.4453 33.3942C48.4453 23.4109 50.699 15.411 55.2064 9.38933C59.7128 3.3697 65.9302 0.359375 73.8565 0.359375C81.7828 0.359375 88.0738 3.3697 92.552 9.38933C97.0291 15.41 99.2677 23.4109 99.2677 33.3942C99.2677 43.3775 97.0291 51.3795 92.552 57.3991C88.0738 63.4198 81.8433 66.4291 73.8565 66.4291ZM64.2364 48.8685C66.4144 52.4085 69.6205 54.1779 73.8565 54.1779C78.0925 54.1779 81.3127 52.3944 83.522 48.8231C85.7303 45.2539 86.835 40.1109 86.835 33.3952C86.835 26.6795 85.7303 21.4468 83.522 17.8765C81.3127 14.3073 78.0905 12.5217 73.8565 12.5217C69.6225 12.5217 66.4144 14.3073 64.2364 17.8765C62.0583 21.4468 60.9688 26.62 60.9688 33.3952C60.9688 40.1705 62.0583 45.3296 64.2364 48.8685Z" fill="#1699F8" style="fill:#1699F8;fill:color(display-p3 0.0863 0.6000 0.9725);fill-opacity:1;"/>
</svg>
