<svg width="100%" height="100%" style="overflow:visible;" preserveAspectRatio="none" viewBox="0 0 60.54 19.6" fill="none" xmlns="http://www.w3.org/2000/svg">
<path d="M35.3658 11.0119L36.4379 17.2174L30.8592 14.2963L25.2901 17.2324L26.3457 11.0255L21.8323 6.63635L28.061 5.72272L30.8373 0.0703125L33.6355 5.71454L39.8684 6.61039L35.3658 11.0119Z" fill="#F58720" style="fill:#F58720;fill:color(display-p3 0.9608 0.5294 0.1255);fill-opacity:1;"/>
<path d="M57.8376 15.0738L58.6174 19.5873L54.5614 17.4623L50.5082 19.6009L51.277 15.0848L47.9927 11.8905L52.5239 11.2268L54.5464 7.11621L56.5798 11.22L61.1124 11.8727L57.8376 15.0738Z" fill="#F58720" style="fill:#F58720;fill:color(display-p3 0.9608 0.5294 0.1255);fill-opacity:1;"/>
<path d="M10.4173 15.1451L11.1998 19.6586L7.14385 17.5336L3.09062 19.6722L3.85812 15.1561L0.57373 11.9618L5.10632 11.2981L7.12473 7.1875L9.15954 11.2913L13.6935 11.9441L10.4173 15.1451Z" fill="#F58720" style="fill:#F58720;fill:color(display-p3 0.9608 0.5294 0.1255);fill-opacity:1;"/>
</svg>
