<svg width="100%" height="100%" style="overflow:visible;" preserveAspectRatio="none" viewBox="0 0 20 20" fill="none" xmlns="http://www.w3.org/2000/svg">
<path d="M0.598884 19.5468L19.5465 0.599216C19.6836 0.462222 19.6837 0.239993 19.5466 0.102882C19.4096 -0.0342289 19.1874 -0.034307 19.0503 0.102726L0.102745 19.0503C-0.0342484 19.1873 -0.0342484 19.4094 0.102745 19.5464C0.241575 19.6789 0.459898 19.679 0.598884 19.5468Z" fill="#3A31C5" style="fill:#3A31C5;fill:color(display-p3 0.2280 0.1915 0.7728);fill-opacity:1;"/>
<path d="M9.12789 3.22981H9.14121C9.31918 3.22403 9.46461 3.08587 9.47946 2.90841L9.68996 0.382077C9.69813 0.28407 9.66481 0.187156 9.59809 0.114929C9.53137 0.0427024 9.43742 0.00176494 9.3391 0.00207744H8.90578C8.80746 0.00172588 8.71348 0.0426634 8.6468 0.114929C8.58008 0.187156 8.54676 0.284109 8.55492 0.382077L8.76543 2.91016C8.78192 3.09622 8.94125 3.23673 9.12789 3.22981Z" fill="#3A31C5" style="fill:#3A31C5;fill:color(display-p3 0.2280 0.1915 0.7728);fill-opacity:1;"/>
<path d="M0.380005 9.6899L2.89649 9.47939C3.07883 9.4642 3.21887 9.31146 3.21825 9.12853V9.09345C3.21879 8.90974 3.07754 8.75674 2.89438 8.74259L0.377544 8.55033C0.279966 8.54291 0.183716 8.57654 0.111998 8.64318C0.0403179 8.70982 -0.00030708 8.80334 5.42004e-06 8.90123V9.33841C-0.000541455 9.43685 0.0403179 9.53103 0.112584 9.59787C0.184849 9.66466 0.28188 9.69806 0.380005 9.6899Z" fill="#3A31C5" style="fill:#3A31C5;fill:color(display-p3 0.2280 0.1915 0.7728);fill-opacity:1;"/>
<path d="M5.707 3.91888C5.81356 4.07231 6.02165 4.11536 6.18032 4.01677L6.19153 4.00974C6.3429 3.91575 6.39981 3.72321 6.3238 3.562L5.24239 1.26763C5.20047 1.17935 5.12364 1.11255 5.0304 1.08333C4.93715 1.05411 4.83594 1.06505 4.75114 1.1136L4.37501 1.33079C4.29001 1.37981 4.22946 1.4622 4.20797 1.55794C4.18649 1.65368 4.2061 1.75403 4.262 1.83466L5.707 3.91888Z" fill="#3A31C5" style="fill:#3A31C5;fill:color(display-p3 0.2280 0.1915 0.7728);fill-opacity:1;"/>
<path d="M3.99543 12.051C3.90352 11.8921 3.70465 11.8309 3.5393 11.9106L1.26317 13.0018C1.17528 13.0441 1.10895 13.1211 1.08012 13.2143C1.05129 13.3075 1.06258 13.4085 1.11125 13.4931L1.32985 13.8717C1.37887 13.9567 1.46125 14.0172 1.55699 14.0387C1.65274 14.0602 1.75309 14.0406 1.83371 13.9847L3.90844 12.5461C4.05817 12.4419 4.10313 12.2405 4.01196 12.0826L3.99543 12.051Z" fill="#3A31C5" style="fill:#3A31C5;fill:color(display-p3 0.2280 0.1915 0.7728);fill-opacity:1;"/>
<path d="M13.4962 1.11366C13.4112 1.06452 13.3096 1.05323 13.2159 1.08249C13.1222 1.11175 13.0451 1.17894 13.0032 1.26769L11.9218 3.56241C11.8421 3.73136 11.9087 3.93312 12.0733 4.02136L12.0853 4.02769C12.2422 4.11171 12.4373 4.0648 12.5389 3.91855L13.9853 1.83468C14.0412 1.75405 14.0608 1.6537 14.0393 1.55796C14.0178 1.46222 13.9572 1.37983 13.8722 1.33081L13.4962 1.11366Z" fill="#3A31C5" style="fill:#3A31C5;fill:color(display-p3 0.2280 0.1915 0.7728);fill-opacity:1;"/>
<path d="M3.91758 5.68138L1.83442 4.25646C1.75375 4.20127 1.65368 4.18224 1.55836 4.20396C1.46305 4.22568 1.38114 4.28615 1.33231 4.37088L1.11372 4.74947C1.0652 4.83427 1.05422 4.93549 1.08344 5.02873C1.11266 5.12197 1.17946 5.19881 1.26774 5.24072L3.55231 6.3172C3.71696 6.39521 3.91387 6.33424 4.00563 6.17685L4.02317 6.14634C4.11485 5.98752 4.06883 5.78494 3.91758 5.68138Z" fill="#3A31C5" style="fill:#3A31C5;fill:color(display-p3 0.2280 0.1915 0.7728);fill-opacity:1;"/>
<path d="M19.1054 7.71587L17.1546 8.23869L18.2037 6.67023C18.3509 6.45968 18.373 6.18608 18.2614 5.95467C18.1499 5.72327 17.9221 5.57006 17.6658 5.55401C17.4094 5.53795 17.1643 5.66155 17.0248 5.87725L15.0669 8.79658L11.344 9.79308L9.79662 11.3405L8.79661 15.0669L5.87727 17.0248C5.64415 17.1795 5.52383 17.4568 5.57008 17.7328C5.61633 18.0087 5.82052 18.2317 6.09134 18.302C6.28951 18.3532 6.50013 18.3175 6.67029 18.2037L8.23875 17.1546L7.71593 19.1055C7.65011 19.3505 7.72003 19.6121 7.89937 19.7916C8.07871 19.9712 8.34019 20.0414 8.58535 19.9759C8.83051 19.9103 9.02208 19.719 9.08786 19.4739L9.61068 17.523L10.4423 19.2142C10.532 19.3994 10.6989 19.5355 10.8984 19.5862C11.0641 19.6358 11.2427 19.6194 11.3966 19.5405C11.7475 19.3664 11.8918 18.9414 11.7195 18.5897L10.1686 15.4353L11.0703 12.0738L13.53 14.5335L13.7651 18.0423C13.7968 18.43 14.1343 18.7202 14.5224 18.6933C14.9105 18.6663 15.2048 18.3324 15.1827 17.9441L15.0563 16.0633L16.4844 17.4915C16.7625 17.7695 17.2134 17.7695 17.4915 17.4915C17.7696 17.2134 17.7696 16.7625 17.4915 16.4844L16.0634 15.0563L17.9441 15.1826C18.3325 15.2047 18.6664 14.9104 18.6933 14.5224C18.7202 14.1343 18.43 13.7968 18.0423 13.7651L14.5335 13.53L12.0738 11.0703L15.4353 10.1686L18.5897 11.7194C18.6309 11.7409 18.6744 11.7574 18.7195 11.7686C19.0731 11.8621 19.4401 11.6723 19.5679 11.3296C19.6957 10.9869 19.5428 10.6031 19.2143 10.4423L17.523 9.61069L19.4739 9.08788C19.719 9.02205 19.9103 8.83049 19.9759 8.58537C20.0414 8.34025 19.9712 8.07872 19.7917 7.89938C19.6121 7.71997 19.3505 7.65005 19.1054 7.71587Z" fill="#3A31C5" style="fill:#3A31C5;fill:color(display-p3 0.2280 0.1915 0.7728);fill-opacity:1;"/>
</svg>
