<svg width="100%" height="100%" style="overflow:visible;" preserveAspectRatio="none" viewBox="0 0 24.05 24.05" fill="none" xmlns="http://www.w3.org/2000/svg">
<path d="M12.9677 0.589478C6.33576 0.589478 0.940674 5.98456 0.940674 12.6165C0.940674 19.2483 6.33576 24.6434 12.9677 24.6434C19.5995 24.6434 24.9946 19.2483 24.9946 12.6165C24.9946 5.98456 19.5995 0.589478 12.9677 0.589478ZM16.683 13.3251L11.6717 18.3363C11.4763 18.5317 11.2197 18.6299 10.9631 18.6299C10.7066 18.6299 10.45 18.5317 10.2545 18.3363C9.86267 17.9444 9.86267 17.311 10.2545 16.9191L14.5572 12.6165L10.2546 8.3138C9.86272 7.92194 9.86272 7.2885 10.2546 6.89664C10.6464 6.50478 11.2799 6.50478 11.6717 6.89664L16.683 11.9079C17.0749 12.2998 17.0749 12.9332 16.683 13.3251Z" fill="#1699F8" style="fill:#1699F8;fill:color(display-p3 0.0863 0.6000 0.9725);fill-opacity:1;"/>
</svg>
