<svg width="100%" height="100%" style="overflow:visible;" preserveAspectRatio="none" viewBox="0 0 99.66 31.02" fill="none" xmlns="http://www.w3.org/2000/svg">
<path d="M11.8585 1.31934C15.9492 1.31934 19.3641 2.75389 22.1061 5.62298C24.847 8.49207 26.218 12.029 26.218 16.2327C26.218 20.4365 24.847 23.9734 22.1061 26.8425C19.3641 29.7116 15.9492 31.1461 11.8585 31.1461H0.013916V1.32035H11.8585V1.31934ZM11.8585 25.521C14.4431 25.521 16.5455 24.6624 18.1646 22.9434C19.7838 21.2254 20.5939 18.9878 20.5939 16.2327C20.5939 13.4776 19.7838 11.2411 18.1646 9.52206C16.5455 7.80404 14.4431 6.94452 11.8585 6.94452H5.89331V25.522H11.8585V25.521Z" fill="#1699F8" style="fill:#1699F8;fill:color(display-p3 0.0863 0.6000 0.9725);fill-opacity:1;"/>
<path d="M48.9323 31.1451L47.0368 25.7762H34.7846L32.995 31.1451H26.6465L37.0858 1.31934H44.3715L54.8935 31.1451H48.9323ZM36.6994 20.2801H45.0938L40.7891 8.09459L36.6984 20.2801H36.6994Z" fill="#1699F8" style="fill:#1699F8;fill:color(display-p3 0.0863 0.6000 0.9725);fill-opacity:1;"/>
<path d="M77.5177 1.31934L67.2923 19.5134V31.1451H61.4553V19.5144L51.2722 1.31934H57.9193L64.3818 13.7369L70.8726 1.31934H77.5197H77.5177Z" fill="#1699F8" style="fill:#1699F8;fill:color(display-p3 0.0863 0.6000 0.9725);fill-opacity:1;"/>
<path d="M88.852 31.739C85.8971 31.739 83.4124 31.0782 81.3958 29.7577C79.3781 28.4371 77.9587 26.6404 77.1345 24.3675L82.1625 21.4278C83.3267 24.4674 85.6137 25.9867 89.0225 25.9867C90.6699 25.9867 91.8774 25.6881 92.6441 25.0919C93.4108 24.4957 93.7942 23.7431 93.7942 22.8331C93.7942 21.7829 93.3251 20.9658 92.3879 20.3827C91.4507 19.8006 89.774 19.1681 87.3599 18.4871C86.0242 18.0896 84.8954 17.6922 83.9723 17.2937C83.0492 16.8962 82.1252 16.3635 81.2031 15.6957C80.28 15.0289 79.5769 14.1835 79.0936 13.1605C78.6104 12.1376 78.3693 10.9452 78.3693 9.58125C78.3693 6.88265 79.3277 4.73084 81.2455 3.12581C83.1632 1.52178 85.4704 0.71875 88.169 0.71875C90.5831 0.71875 92.7067 1.30891 94.5387 2.48722C96.3707 3.66653 97.7982 5.30687 98.8211 7.40825L93.8789 10.2632C92.6855 7.70686 90.7828 6.42869 88.169 6.42869C86.9473 6.42869 85.9889 6.70611 85.2928 7.25995C84.5968 7.8138 84.2487 8.53105 84.2487 9.41175C84.2487 10.3489 84.6391 11.1096 85.421 11.6917C86.2018 12.2738 87.7009 12.9063 89.9163 13.5873C90.8252 13.8718 91.5142 14.0917 91.9823 14.2481C92.4514 14.4044 93.09 14.6465 93.9001 14.9724C94.7102 15.2992 95.3336 15.6049 95.7745 15.8884C96.2143 16.1729 96.7188 16.5562 97.2867 17.0384C97.8547 17.5217 98.2885 18.018 98.5861 18.5295C98.8847 19.041 99.1399 19.6583 99.3528 20.3827C99.5656 21.107 99.6726 21.8949 99.6726 22.7474C99.6726 25.5035 98.6708 27.6896 96.6683 29.3087C94.6658 30.9279 92.059 31.737 88.8499 31.737L88.852 31.739Z" fill="#1699F8" style="fill:#1699F8;fill:color(display-p3 0.0863 0.6000 0.9725);fill-opacity:1;"/>
</svg>
