<svg width="100%" height="100%" style="overflow:visible;" preserveAspectRatio="none" viewBox="0 0 32.57 32.57" fill="none" xmlns="http://www.w3.org/2000/svg">
<path d="M31.4299 10.4548H29.7014V4.34741H23.594V2.6189H31.4299V10.4548Z" fill="white" style="fill:white;fill-opacity:1;"/>
<path d="M3.65845 10.4548H1.92993V2.6189H9.76587V4.34741H3.65845V10.4548Z" fill="white" style="fill:white;fill-opacity:1;"/>
<path d="M31.4299 32.1189H23.594V30.3904H29.7014V24.283H31.4299V32.1189Z" fill="white" style="fill:white;fill-opacity:1;"/>
<path d="M9.76587 32.1189H1.92993V24.283H3.65845V30.3904H9.76587V32.1189Z" fill="white" style="fill:white;fill-opacity:1;"/>
<path d="M15.8157 14.3595C14.7828 14.6566 13.9677 15.4717 13.6705 16.5046H15.8157V14.3595Z" fill="white" style="fill:white;fill-opacity:1;"/>
<path d="M19.6893 16.5046C19.3922 15.4717 18.5771 14.6566 17.5442 14.3595V16.5046H19.6893Z" fill="white" style="fill:white;fill-opacity:1;"/>
<path d="M25.1026 10.7028C26.5566 12.536 27.4261 14.8528 27.4261 17.3689C27.4261 19.8851 26.5565 22.2018 25.1025 24.035C27.4348 22.6276 29.6084 20.644 31.0068 18.2102L31.4299 17.3634L30.9496 16.5275C29.5513 14.0938 27.4348 12.1102 25.1026 10.7028Z" fill="white" style="fill:white;fill-opacity:1;"/>
<path d="M8.25728 24.035C6.80331 22.2018 5.93375 19.885 5.93375 17.3689C5.93375 14.8527 6.80337 12.536 8.25734 10.7028C5.92511 12.1102 3.8086 14.0992 2.41023 16.533L1.92993 17.3689L2.41023 18.2048C3.8086 20.6386 5.92511 22.6276 8.25728 24.035Z" fill="white" style="fill:white;fill-opacity:1;"/>
<path d="M13.6705 18.2332C13.9677 19.2661 14.7828 20.0812 15.8157 20.3783V18.2332H13.6705Z" fill="white" style="fill:white;fill-opacity:1;"/>
<path d="M25.6976 17.3689C25.6976 12.3965 21.6523 8.35123 16.6799 8.35123C11.7076 8.35123 7.66227 12.3965 7.66227 17.3689C7.66227 22.3413 11.7076 26.3866 16.6799 26.3866C21.6523 26.3866 25.6976 22.3413 25.6976 17.3689ZM17.5442 24.2522H15.8157V22.1506C13.8275 21.7921 12.2567 20.2213 11.8982 18.2332H9.79658V16.5046H11.8982C12.2567 14.5165 13.8275 12.9457 15.8157 12.5872V10.4855H17.5442V12.5872C19.5323 12.9457 21.1031 14.5165 21.4616 16.5046H23.5633V18.2332H21.4616C21.1031 20.2213 19.5323 21.7921 17.5442 22.1506V24.2522Z" fill="white" style="fill:white;fill-opacity:1;"/>
<path d="M17.5442 18.2332V20.3783C18.5771 20.0812 19.3922 19.2661 19.6893 18.2332H17.5442Z" fill="white" style="fill:white;fill-opacity:1;"/>
</svg>
