<svg width="100%" height="100%" style="overflow:visible;" preserveAspectRatio="none" viewBox="0 0 22.13 22.13" fill="none" xmlns="http://www.w3.org/2000/svg">
<path fill-rule="evenodd" clip-rule="evenodd" d="M22 5.63135C22 5.06583 21.7755 4.52376 21.3755 4.12449C20.9755 3.7245 20.4335 3.5 19.8687 3.5H7.11182C6.41487 3.5 5.76126 3.84102 5.3627 4.41364L1.38205 10.1292C0.870527 10.8645 0.872659 11.8407 1.38844 12.5739C2.39728 14.0083 4.47108 16.9559 5.36412 18.2248C5.76339 18.7924 6.41416 19.1299 7.10756 19.1299H19.8687C20.4335 19.1299 20.9755 18.9054 21.3755 18.5054C21.7755 18.1061 22 17.5641 22 16.9985V5.63135ZM11.361 15.5776H17.7551C18.1472 15.5776 18.4655 15.2594 18.4655 14.8672C18.4655 14.475 18.1472 14.1567 17.7551 14.1567H11.361C10.9689 14.1567 10.6506 14.475 10.6506 14.8672C10.6506 15.2594 10.9689 15.5776 11.361 15.5776ZM6.37012 9.18359C5.19361 9.18359 4.23877 10.1384 4.23877 11.3149C4.23877 12.4914 5.19361 13.4463 6.37012 13.4463C7.54662 13.4463 8.50146 12.4914 8.50146 11.3149C8.50146 10.1384 7.54662 9.18359 6.37012 9.18359ZM11.361 12.0254H17.7551C18.1472 12.0254 18.4655 11.7071 18.4655 11.3149C18.4655 10.9228 18.1472 10.6045 17.7551 10.6045H11.361C10.9689 10.6045 10.6506 10.9228 10.6506 11.3149C10.6506 11.7071 10.9689 12.0254 11.361 12.0254ZM11.361 8.47315H17.7551C18.1472 8.47315 18.4655 8.15486 18.4655 7.7627C18.4655 7.37053 18.1472 7.05225 17.7551 7.05225H11.361C10.9689 7.05225 10.6506 7.37053 10.6506 7.7627C10.6506 8.15486 10.9689 8.47315 11.361 8.47315Z" fill="#333333" style="fill:#333333;fill:color(display-p3 0.2000 0.2000 0.2000);fill-opacity:1;"/>
</svg>
