<svg width="100%" height="100%" style="overflow:visible;" preserveAspectRatio="none" viewBox="0 0 32.57 32.57" fill="none" xmlns="http://www.w3.org/2000/svg">
<g clip-path="url(#clip0_2835_3318)">
<path d="M25.7383 19.3696C24.9093 19.3696 24.0989 19.6154 23.4096 20.076C22.7203 20.5366 22.183 21.1913 21.8658 21.9572C21.5486 22.7231 21.4656 23.5659 21.6273 24.379C21.789 25.192 22.1883 25.9389 22.7745 26.5251C23.3607 27.1113 24.1075 27.5105 24.9206 27.6722C25.7337 27.834 26.5765 27.7509 27.3424 27.4337C28.1083 27.1164 28.763 26.5792 29.2235 25.8899C29.6841 25.2006 29.9299 24.3902 29.9299 23.5612C29.9299 22.4495 29.4883 21.3833 28.7022 20.5973C27.9161 19.8112 26.85 19.3696 25.7383 19.3696ZM28.1384 24.49H26.6671V25.9611H24.8095V24.4898H23.3383V22.6322H24.8095V21.161H26.6671V22.6322H28.1383L28.1384 24.49ZM20.6236 23.561C20.6227 24.2348 20.7554 24.902 21.014 25.5242C21.2726 26.1464 21.6519 26.7112 22.1301 27.1859C21.8176 27.8704 21.3153 28.4508 20.6827 28.8582C20.0501 29.2656 19.3139 29.4829 18.5614 29.4842H15.2341V30.2598C15.2315 30.661 15.0702 31.045 14.7855 31.3278C14.5008 31.6106 14.1159 31.7693 13.7146 31.7693C13.3133 31.7693 12.9283 31.6106 12.6436 31.3278C12.359 31.045 12.1977 30.661 12.1951 30.2598V29.1043C12.1957 28.3992 12.476 27.7232 12.9746 27.2246C13.4731 26.726 14.1491 26.4455 14.8542 26.4448H18.5614C18.6773 26.4448 18.7921 26.422 18.8992 26.3776C19.0063 26.3333 19.1036 26.2683 19.1855 26.1863C19.2675 26.1043 19.3325 26.0071 19.3768 25.9C19.4212 25.7929 19.444 25.6781 19.444 25.5622C19.444 25.4463 19.4212 25.3315 19.3768 25.2245C19.3325 25.1174 19.2675 25.0201 19.1855 24.9381C19.1036 24.8562 19.0063 24.7912 18.8992 24.7468C18.7921 24.7025 18.6773 24.6796 18.5614 24.6796H8.86772C7.83041 24.6754 6.83704 24.2603 6.10505 23.5253C5.37307 22.7903 4.96209 21.7953 4.96209 20.758C4.96209 19.7206 5.37307 18.7256 6.10505 17.9906C6.83704 17.2556 7.83041 16.8405 8.86772 16.8363H18.5614C18.7955 16.8363 19.02 16.7433 19.1855 16.5778C19.351 16.4123 19.444 16.1878 19.444 15.9537C19.444 15.7196 19.351 15.4951 19.1855 15.3296C19.02 15.1641 18.7955 15.0711 18.5614 15.0711H8.86772C8.35136 15.0732 7.83967 14.9733 7.36201 14.7772C6.88436 14.5811 6.45013 14.2925 6.08426 13.9282C5.7184 13.5638 5.42808 13.1308 5.22999 12.6539C5.0319 12.1771 4.92993 11.6658 4.92993 11.1494C4.92993 10.6331 5.0319 10.1218 5.22999 9.64495C5.42808 9.16809 5.7184 8.73506 6.08426 8.37069C6.45013 8.00631 6.88436 7.71778 7.36201 7.52165C7.83967 7.32551 8.35136 7.22564 8.86772 7.22776H18.5614C18.7955 7.22776 19.02 7.13477 19.1855 6.96925C19.351 6.80373 19.444 6.57924 19.444 6.34517C19.444 6.11109 19.351 5.8866 19.1855 5.72108C19.02 5.55556 18.7955 5.46258 18.5614 5.46258H14.8542C14.1492 5.46184 13.4732 5.18145 12.9747 4.68291C12.4762 4.18438 12.1958 3.50843 12.1951 2.8034V1.64822C12.1937 1.44783 12.2321 1.24916 12.3078 1.06364C12.3836 0.878128 12.4953 0.709431 12.6366 0.567265C12.7778 0.4251 12.9457 0.312273 13.1308 0.235281C13.3158 0.158289 13.5142 0.118652 13.7146 0.118652C13.915 0.118652 14.1134 0.158289 14.2984 0.235281C14.4834 0.312273 14.6514 0.4251 14.7926 0.567265C14.9338 0.709431 15.0455 0.878128 15.1213 1.06364C15.1971 1.24916 15.2354 1.44783 15.2341 1.64822V2.42373H18.5614C19.6015 2.42373 20.599 2.8369 21.3345 3.57237C22.07 4.30783 22.4831 5.30533 22.4831 6.34543C22.4831 7.38553 22.07 8.38303 21.3345 9.1185C20.599 9.85396 19.6015 10.2671 18.5614 10.2671H8.86772C8.63364 10.2671 8.40915 10.3601 8.24363 10.5256C8.07812 10.6912 7.98513 10.9157 7.98513 11.1497C7.98513 11.3838 8.07812 11.6083 8.24363 11.7738C8.40915 11.9393 8.63364 12.0323 8.86772 12.0323H18.5614C19.5987 12.0366 20.5921 12.4516 21.3241 13.1866C22.0561 13.9216 22.4671 14.9167 22.4671 15.954C22.4671 16.9913 22.0561 17.9864 21.3241 18.7214C20.5921 19.4564 19.5987 19.8714 18.5614 19.8757H8.86772C8.63364 19.8757 8.40915 19.9686 8.24363 20.1342C8.07812 20.2997 7.98513 20.5242 7.98513 20.7583C7.98513 20.9923 8.07812 21.2168 8.24363 21.3823C8.40915 21.5479 8.63364 21.6408 8.86772 21.6408H18.5614C19.3514 21.6402 20.1229 21.8797 20.7737 22.3275C20.6738 22.7311 20.6234 23.1453 20.6236 23.561Z" fill="white" style="fill:white;fill-opacity:1;"/>
</g>
<defs>
<clipPath id="clip0_2835_3318">
<rect width="32.573" height="32.573" fill="white" style="fill:white;fill-opacity:1;" transform="translate(0.713623 0.074707)"/>
</clipPath>
</defs>
</svg>
