<svg width="100%" height="100%" style="overflow:visible;" preserveAspectRatio="none" viewBox="0 0 18 18" fill="none" xmlns="http://www.w3.org/2000/svg">
<path d="M14.2108 1H3.7891C2.80257 1 2 1.80257 2 2.7891V10.6053C2 12.7791 3.20519 14.6815 5.48534 16.1065C7.15966 17.1531 8.81244 17.5734 8.88199 17.5908C8.92063 17.6005 8.96028 17.6054 8.99994 17.6054C9.03959 17.6054 9.07924 17.6005 9.11801 17.5908C9.18756 17.5734 10.8402 17.1531 12.5145 16.1065C14.7948 14.6815 16 12.7791 16 10.6053V2.7891C15.9999 1.80257 15.1973 1 14.2108 1ZM8.34863 8.29512L9.65124 8.29499C10.6379 8.29525 11.4406 9.09782 11.4406 10.0843C11.4406 11.0709 10.6379 11.8734 9.65137 11.8734H9.48642V12.6897C9.48642 12.9584 9.26864 13.1762 8.99994 13.1762C8.73136 13.1762 8.51345 12.9584 8.51345 12.6897V11.8734H7.04589C6.77718 11.8734 6.5594 11.6557 6.5594 11.387C6.5594 11.1184 6.77718 10.9005 7.04589 10.9005H9.65124C10.1014 10.9005 10.4676 10.5343 10.4676 10.0843C10.4676 9.63422 10.1014 9.26809 9.65124 9.26796L8.34863 9.26809C7.36198 9.26809 6.5594 8.46552 6.5594 7.47887C6.5594 6.49247 7.36198 5.68989 8.34863 5.68989H8.51345V4.87351C8.51345 4.6048 8.73136 4.38703 8.99994 4.38703C9.26864 4.38703 9.48642 4.6048 9.48642 4.87351V5.68977H10.954C11.2227 5.68964 11.4405 5.90754 11.4406 6.17612C11.4406 6.44483 11.2227 6.66261 10.9541 6.66274L8.34863 6.66286C7.8985 6.66286 7.53237 7.02899 7.53237 7.47887C7.53237 7.92899 7.8985 8.29512 8.34863 8.29512Z" fill="white" style="fill:white;fill-opacity:1;"/>
</svg>
