<svg width="100%" height="100%" style="overflow:visible;" preserveAspectRatio="none" viewBox="0 0 18 18" fill="none" xmlns="http://www.w3.org/2000/svg">
<path d="M15.945 14.1994L12.8187 17H2.625C2.625 17 3.32125 14.3294 3.34563 14.2656C3.72813 12.9338 4.94 12 6.33938 12H9.94938C10.6119 12 11.1506 12.5388 11.1506 13.2013C11.1506 13.795 10.7075 14.3069 10.1194 14.39L7.12063 14.8188L7.2975 16.0562L10.2963 15.6275C11.1663 15.5031 11.875 14.9181 12.2025 14.1456L14.2856 12.3119C14.8094 11.8556 15.6038 11.9112 16.0594 12.435C16.5113 12.955 16.4606 13.7419 15.9456 14.1987L15.945 14.1994ZM16.1213 9.5C15.6537 6.645 13.39 4.40188 10.5269 3.96063C10.6669 3.75875 10.75 3.51437 10.75 3.25C10.75 2.55937 10.1906 2 9.5 2C8.80937 2 8.25 2.55937 8.25 3.25C8.25 3.51437 8.33313 3.75875 8.47313 3.96063C5.61 4.40188 3.34625 6.645 2.87875 9.5H2V10.75H17V9.5H16.1213Z" fill="white" style="fill:white;fill-opacity:1;"/>
</svg>
