<svg width="100%" height="100%" style="overflow:visible;" preserveAspectRatio="none" viewBox="0 0 32.57 32.57" fill="none" xmlns="http://www.w3.org/2000/svg">
<path fill-rule="evenodd" clip-rule="evenodd" d="M9.129 25.1415L7.64632 31.3339H3.19132C3.19132 31.3339 2.6032 27.4314 3.19132 23.6373C3.50856 21.5916 4.18336 19.9984 3.19132 15.6694C2.18498 11.277 5.73368 9.59775 9.92638 8.78481C14.4913 7.90009 14.9806 2.11865 14.9806 2.11865H19.8792C19.8792 2.11865 20.3686 7.90009 24.9335 8.78481C29.1262 9.59775 32.6749 11.277 31.6685 15.6694C30.6765 19.9984 31.3513 21.5916 31.6685 23.6373C32.2567 27.4314 31.6685 31.3339 31.6685 31.3339H27.2135L25.7382 25.1714C26.4965 23.6293 26.8931 21.8443 26.8525 19.7701C26.8471 19.5071 26.6296 19.2978 26.3666 19.3029C26.104 19.308 25.8947 19.5259 25.8998 19.7885C25.9287 21.2572 25.7226 22.5684 25.3082 23.7405C23.8922 26.099 23.2012 28.6388 23.1313 31.3339H11.7285C11.6596 28.6737 10.9854 26.165 9.60628 23.8322C9.16964 22.6366 8.95212 21.2956 8.98165 19.7885C8.98673 19.5259 8.77746 19.308 8.51484 19.3029C8.2519 19.2978 8.03438 19.5071 8.0293 19.7701C7.98865 21.8313 8.37988 23.6065 9.129 25.1415ZM20.1174 10.6403L12.4776 18.9527H17.6964L14.1184 26.8344L22.6461 16.2087H17.8685L20.1174 10.6403Z" fill="#060346" style="fill:#060346;fill:color(display-p3 0.0235 0.0118 0.2745);fill-opacity:1;"/>
</svg>
