<svg width="100%" height="100%" style="overflow:visible;" preserveAspectRatio="none" viewBox="0 0 18 18" fill="none" xmlns="http://www.w3.org/2000/svg">
<g clip-path="url(#clip0_2835_3045)">
<path d="M13.7148 8.42957C12.8673 8.42957 12.0388 8.6809 11.3341 9.15176C10.6294 9.62263 10.0801 10.2919 9.75577 11.0749C9.43143 11.8579 9.34657 12.7195 9.51191 13.5508C9.67726 14.382 10.0854 15.1456 10.6847 15.7449C11.284 16.3442 12.0475 16.7523 12.8788 16.9177C13.71 17.083 14.5716 16.9981 15.3547 16.6738C16.1377 16.3495 16.8069 15.8002 17.2778 15.0955C17.7487 14.3908 18 13.5623 18 12.7148C18 11.5783 17.5485 10.4883 16.7449 9.68468C15.9413 8.88105 14.8513 8.42957 13.7148 8.42957ZM13.7148 12.2461C14.0465 12.246 14.3676 12.3633 14.6212 12.5771C14.8748 12.7909 15.0447 13.0875 15.1008 13.4144C15.1569 13.7414 15.0956 14.0776 14.9277 14.3637C14.7599 14.6498 14.4963 14.8674 14.1835 14.9779V15.1252C14.1835 15.2495 14.1341 15.3687 14.0462 15.4566C13.9583 15.5445 13.8391 15.5939 13.7148 15.5939C13.5905 15.5939 13.4713 15.5445 13.3834 15.4566C13.2955 15.3687 13.2461 15.2495 13.2461 15.1252V15.0583H12.7774C12.6531 15.0583 12.5339 15.0089 12.446 14.921C12.3581 14.8331 12.3087 14.7139 12.3087 14.5896C12.3087 14.4653 12.3581 14.346 12.446 14.2582C12.5339 14.1703 12.6531 14.1209 12.7774 14.1209H13.7148C13.8391 14.1209 13.9583 14.0715 14.0462 13.9836C14.1341 13.8957 14.1835 13.7765 14.1835 13.6522C14.1835 13.5279 14.1341 13.4087 14.0462 13.3208C13.9583 13.2329 13.8391 13.1835 13.7148 13.1835C13.3831 13.1835 13.062 13.0663 12.8084 12.8525C12.5547 12.6387 12.3849 12.3421 12.3288 12.0152C12.2727 11.6882 12.334 11.352 12.5018 11.0659C12.6697 10.7797 12.9333 10.5622 13.2461 10.4517V10.3044C13.2461 10.18 13.2955 10.0608 13.3834 9.97294C13.4713 9.88504 13.5905 9.83566 13.7148 9.83566C13.8391 9.83566 13.9583 9.88504 14.0462 9.97294C14.1341 10.0608 14.1835 10.18 14.1835 10.3044V10.3713H14.6522C14.7765 10.3713 14.8957 10.4207 14.9836 10.5086C15.0715 10.5965 15.1209 10.7157 15.1209 10.84C15.1209 10.9643 15.0715 11.0835 14.9836 11.1714C14.8957 11.2593 14.7765 11.3087 14.6522 11.3087H13.7148C13.5905 11.3087 13.4713 11.3581 13.3834 11.446C13.2955 11.5339 13.2461 11.6531 13.2461 11.7774C13.2461 11.9017 13.2955 12.0209 13.3834 12.1088C13.4713 12.1967 13.5905 12.2461 13.7148 12.2461Z" fill="white" style="fill:white;fill-opacity:1;"/>
<path d="M13.6125 7.49325C13.8545 6.16026 13.6644 4.78479 13.0699 3.56742C12.4753 2.35006 11.5074 1.35447 10.3073 0.725827C9.10715 0.0971881 7.73759 -0.131619 6.3983 0.0727696C5.059 0.277159 3.82003 0.904054 2.86204 1.86204C1.90405 2.82003 1.27716 4.059 1.07277 5.3983C0.868381 6.73759 1.09719 8.10715 1.72583 9.30727C2.35447 10.5074 3.35006 11.4753 4.56742 12.0699C5.78479 12.6644 7.16026 12.8545 8.49325 12.6125C8.5213 11.2636 9.06964 9.9777 10.0237 9.02367C10.9777 8.06964 12.2636 7.5213 13.6125 7.49325ZM12.3087 5.8863C12.4014 5.8863 12.4921 5.91382 12.5692 5.96536C12.6463 6.01691 12.7064 6.09018 12.7418 6.17588C12.7773 6.26159 12.7865 6.35588 12.7683 6.44683C12.7501 6.53777 12.7054 6.62129 12.6397 6.68679C12.5741 6.7523 12.4905 6.79685 12.3995 6.81481C12.3085 6.83278 12.2142 6.82334 12.1286 6.7877C12.043 6.75207 11.9698 6.69182 11.9185 6.61461C11.8671 6.53739 11.8398 6.44667 11.84 6.35392C11.8401 6.22964 11.8895 6.11047 11.9774 6.02258C12.0652 5.9347 12.1844 5.8853 12.3087 5.88523V5.8863ZM10.5261 2.51892C10.5916 2.45338 10.6751 2.40875 10.766 2.39067C10.8569 2.37259 10.9512 2.38187 11.0368 2.41735C11.1225 2.45282 11.1957 2.5129 11.2472 2.58997C11.2987 2.66705 11.3261 2.75766 11.3261 2.85036C11.3261 2.94306 11.2987 3.03367 11.2472 3.11075C11.1957 3.18782 11.1225 3.2479 11.0368 3.28337C10.9512 3.31885 10.8569 3.32813 10.766 3.31005C10.6751 3.29197 10.5916 3.24734 10.5261 3.18179C10.4382 3.09386 10.3889 2.97465 10.3889 2.85036C10.3889 2.72607 10.4382 2.60686 10.5261 2.51892ZM2.39914 6.82262C2.30645 6.82262 2.21583 6.79513 2.13875 6.74363C2.06167 6.69213 2.0016 6.61893 1.96613 6.53329C1.93065 6.44764 1.92137 6.3534 1.93946 6.26249C1.95754 6.17157 2.00218 6.08805 2.06773 6.02251C2.13328 5.95696 2.21679 5.91232 2.30771 5.89423C2.39862 5.87615 2.49286 5.88543 2.57851 5.92091C2.66415 5.95638 2.73735 6.01645 2.78885 6.09353C2.84035 6.17061 2.86784 6.26122 2.86784 6.35392C2.86777 6.47821 2.81837 6.59738 2.73048 6.68526C2.6426 6.77314 2.52343 6.82255 2.39914 6.82262ZM4.18179 10.1889C4.11624 10.2545 4.03273 10.2991 3.94181 10.3172C3.8509 10.3353 3.75666 10.326 3.67102 10.2905C3.58538 10.255 3.51218 10.195 3.46068 10.1179C3.40918 10.0408 3.3817 9.95018 3.3817 9.85749C3.3817 9.76479 3.40918 9.67418 3.46068 9.5971C3.51218 9.52002 3.58538 9.45995 3.67102 9.42447C3.75666 9.389 3.8509 9.37971 3.94181 9.39779C4.03273 9.41588 4.11624 9.46051 4.18179 9.52605C4.26964 9.61399 4.31898 9.7332 4.31898 9.85749C4.31898 9.98178 4.26964 10.101 4.18179 10.1889ZM4.18179 3.18179C4.11624 3.24734 4.03273 3.29197 3.94181 3.31005C3.8509 3.32813 3.75666 3.31885 3.67102 3.28337C3.58538 3.2479 3.51218 3.18782 3.46068 3.11075C3.40918 3.03367 3.3817 2.94306 3.3817 2.85036C3.3817 2.75766 3.40918 2.66705 3.46068 2.58997C3.51218 2.5129 3.58538 2.45282 3.67102 2.41735C3.75666 2.38187 3.8509 2.37259 3.94181 2.39067C4.03273 2.40875 4.11624 2.45338 4.18179 2.51892C4.26964 2.60686 4.31898 2.72607 4.31898 2.85036C4.31898 2.97465 4.26964 3.09386 4.18179 3.18179ZM7.35392 11.7774C7.26122 11.7774 7.17061 11.7499 7.09353 11.6984C7.01645 11.6469 6.95638 11.5737 6.92091 11.4881C6.88543 11.4024 6.87615 11.3082 6.89423 11.2173C6.91232 11.1263 6.95696 11.0428 7.02251 10.9773C7.08805 10.9117 7.17157 10.8671 7.26249 10.849C7.3534 10.8309 7.44764 10.8402 7.53329 10.8757C7.61893 10.9112 7.69213 10.9712 7.74363 11.0483C7.79513 11.1254 7.82262 11.216 7.82262 11.3087C7.82255 11.433 7.77314 11.5522 7.68526 11.64C7.59738 11.7279 7.47821 11.7773 7.35392 11.7774ZM7.82262 6.35392C7.82255 6.47821 7.77314 6.59738 7.68526 6.68526C7.59738 6.77314 7.47821 6.82255 7.35392 6.82262H4.94349C4.81918 6.82262 4.69997 6.77324 4.61207 6.68534C4.52418 6.59744 4.4748 6.47823 4.4748 6.35392C4.4748 6.22962 4.52418 6.1104 4.61207 6.02251C4.69997 5.93461 4.81918 5.88523 4.94349 5.88523H6.88523V3.14001C6.88523 3.01571 6.93461 2.89649 7.02251 2.80859C7.1104 2.7207 7.22962 2.67132 7.35392 2.67132C7.47823 2.67132 7.59744 2.7207 7.68534 2.80859C7.77324 2.89649 7.82262 3.01571 7.82262 3.14001V6.35392ZM7.35392 1.86784C7.26122 1.86784 7.17061 1.84035 7.09353 1.78885C7.01645 1.73735 6.95638 1.66415 6.92091 1.57851C6.88543 1.49286 6.87615 1.39862 6.89423 1.30771C6.91232 1.21679 6.95696 1.13328 7.02251 1.06773C7.08805 1.00218 7.17157 0.95754 7.26249 0.939455C7.3534 0.92137 7.44764 0.930652 7.53329 0.966127C7.61893 1.0016 7.69213 1.06167 7.74363 1.13875C7.79513 1.21583 7.82262 1.30645 7.82262 1.39914C7.82255 1.52343 7.77314 1.6426 7.68526 1.73048C7.59738 1.81837 7.47821 1.86777 7.35392 1.86784Z" fill="white" style="fill:white;fill-opacity:1;"/>
</g>
<defs>
<clipPath id="clip0_2835_3045">
<rect width="18" height="18" fill="white" style="fill:white;fill-opacity:1;"/>
</clipPath>
</defs>
</svg>
