<svg width="100%" height="100%" style="overflow:visible;" preserveAspectRatio="none" viewBox="0 0 32 32" fill="none" xmlns="http://www.w3.org/2000/svg">
<g clip-path="url(#clip0_2835_2973)">
<path d="M17.4305 14.6667C17.0384 14.2363 16.6544 13.8147 16.3267 13.3911C15.9956 13.8153 15.6075 14.2373 15.2112 14.6682C14.2519 15.7113 13.1646 16.8935 12.9971 18.053C12.8306 19.2054 13.2924 20.021 13.7091 20.5022C14.3501 21.2424 15.3383 21.7024 16.2884 21.7025H16.2887C17.2539 21.7025 18.2531 21.2465 18.8966 20.5122C19.314 20.0358 19.7789 19.222 19.6254 18.0488C19.4547 16.889 18.3794 15.7084 17.4305 14.6667Z" fill="#060346" style="fill:#060346;fill:color(display-p3 0.0235 0.0118 0.2745);fill-opacity:1;"/>
<path d="M32.5103 15.8865H32.0946C31.8548 12.0348 30.2437 8.44669 27.495 5.69366C24.7463 2.94056 21.1637 1.32671 17.3177 1.08616V0.695708C17.3177 0.13938 16.8667 -0.311646 16.3104 -0.311646C15.754 -0.311646 15.303 0.13938 15.303 0.695708V1.08623C11.457 1.32671 7.87445 2.94063 5.12571 5.69373C2.37705 8.44676 0.765953 12.0348 0.526135 15.8865H0.140655C-0.415673 15.8865 -0.866699 16.3376 -0.866699 16.8939C-0.866699 17.4502 -0.415673 17.9012 0.140655 17.9012H0.526068C0.765885 21.753 2.37698 25.341 5.12565 28.0941C7.87438 30.8472 11.4569 32.461 15.3029 32.7016V33.0653C15.3029 33.6217 15.754 34.0727 16.3103 34.0727C16.8666 34.0727 17.3176 33.6217 17.3176 33.0653V32.7015C21.1637 32.461 24.7462 30.8471 27.4949 28.094C30.2436 25.341 31.8547 21.7529 32.0945 17.9012H32.5103C33.0666 17.9012 33.5176 17.4501 33.5176 16.8938C33.5176 16.3375 33.0666 15.8865 32.5103 15.8865ZM27.962 16.8938C27.962 17.2332 27.9466 17.569 27.918 17.9012H30.0754C29.5826 24.7228 24.1274 30.1879 17.3176 30.6823V28.5183C16.9855 28.5469 16.6497 28.5624 16.3103 28.5624C15.9709 28.5624 15.6351 28.547 15.3029 28.5183V30.6823C8.49323 30.1879 3.03794 24.7228 2.54521 17.9012H4.70262C4.67415 17.569 4.6587 17.2332 4.6587 16.8938C4.6587 16.5544 4.67408 16.2186 4.70262 15.8865H2.54521C3.03794 9.06487 8.49323 3.59977 15.3029 3.1053V5.26936C15.6351 5.24075 15.9709 5.22524 16.3103 5.22524C16.6497 5.22524 16.9855 5.24069 17.3176 5.26936V3.10537C24.1274 3.59977 29.5826 9.06494 30.0754 15.8865H27.918C27.9466 16.2186 27.962 16.5544 27.962 16.8938Z" fill="#060346" style="fill:#060346;fill:color(display-p3 0.0235 0.0118 0.2745);fill-opacity:1;"/>
<path d="M16.3103 7.24002C10.9965 7.24002 6.67334 11.5707 6.67334 16.8938C6.67334 22.2169 10.9964 26.5476 16.3103 26.5476C21.6242 26.5476 25.9472 22.2169 25.9472 16.8938C25.9472 11.5707 21.6242 7.24002 16.3103 7.24002ZM20.4345 21.8785C19.3984 23.0607 17.8485 23.7665 16.2882 23.7665H16.2877C14.7388 23.7663 13.1969 23.0534 12.1632 21.8595C11.1819 20.726 10.7601 19.2798 10.9758 17.7873C11.2341 15.9988 12.5678 14.5486 13.7444 13.2692C14.4617 12.4893 15.3544 11.5187 15.3544 11.0002C15.3543 10.4609 15.7914 10.0237 16.3307 10.0236C16.87 10.0235 17.3072 10.4607 17.3073 10.9999C17.3074 11.5217 18.1557 12.4529 18.9042 13.2746C20.069 14.5533 21.3892 16.0027 21.6476 17.788C21.6482 17.7918 21.6487 17.7957 21.6492 17.7996C21.8491 19.308 21.4176 20.7566 20.4345 21.8785Z" fill="#060346" style="fill:#060346;fill:color(display-p3 0.0235 0.0118 0.2745);fill-opacity:1;"/>
</g>
<defs>
<clipPath id="clip0_2835_2973">
<rect width="32" height="32" fill="white" style="fill:white;fill-opacity:1;" transform="translate(0.647461 0.510132)"/>
</clipPath>
</defs>
</svg>
