<svg width="100%" height="100%" style="overflow:visible;" preserveAspectRatio="none" viewBox="0 0 18 18" fill="none" xmlns="http://www.w3.org/2000/svg">
<path fill-rule="evenodd" clip-rule="evenodd" d="M14.168 0.389648H5.16797C2.69319 0.389648 0.667969 2.41397 0.667969 4.88965V13.8896C0.667969 16.3644 2.69319 18.3896 5.16797 18.3896H14.168C16.6427 18.3896 18.668 16.3644 18.668 13.8896V4.88965C18.668 2.41397 16.6427 0.389648 14.168 0.389648ZM9.66797 13.1395C7.59662 13.1395 5.91789 11.4601 5.91789 9.38965C5.91789 7.3183 7.59662 5.63957 9.66797 5.63957C11.7384 5.63957 13.418 7.3183 13.418 9.38965C13.418 11.4601 11.7384 13.1395 9.66797 13.1395ZM13.418 4.51457C13.418 5.1358 13.9211 5.63957 14.543 5.63957C15.1649 5.63957 15.668 5.1358 15.668 4.51457C15.668 3.89335 15.1649 3.38957 14.543 3.38957C13.9211 3.38957 13.418 3.89335 13.418 4.51457Z" fill="white" style="fill:white;fill-opacity:1;"/>
</svg>
