<svg width="100%" height="100%" style="overflow:visible;" preserveAspectRatio="none" viewBox="0 0 19.35 23.21" fill="none" xmlns="http://www.w3.org/2000/svg">
<path d="M10.2518 4.40813L11.2739 7.55396C11.5168 8.30151 12.2134 8.80764 12.9994 8.80764H16.3071C16.8931 8.80764 17.1367 9.55734 16.6626 9.9017L13.9866 11.8459C13.3507 12.3079 13.0847 13.1269 13.3275 13.8744L14.3497 17.0202C14.5308 17.5775 13.893 18.0407 13.4191 17.6964L10.743 15.7521C10.1071 15.2902 9.24604 15.2902 8.61014 15.7521L5.93414 17.6964C5.46016 18.0407 4.82244 17.5775 5.00348 17.0202L6.02562 13.8744C6.26851 13.1269 6.00243 12.3079 5.36653 11.8459L2.69052 9.9017C2.21655 9.55733 2.46014 8.80764 3.04601 8.80764H6.35372C7.13974 8.80764 7.83636 8.30151 8.07927 7.55396L9.10141 4.40813C9.28245 3.85094 10.0707 3.85094 10.2518 4.40813Z" fill="#F5CA20" stroke="#F5CA20" style="fill:#F5CA20;fill:color(display-p3 0.9608 0.7937 0.1255);fill-opacity:1;stroke:#F5CA20;stroke:color(display-p3 0.9608 0.7937 0.1255);stroke-opacity:1;" stroke-width="1.20956"/>
</svg>
