<svg width="100%" height="100%" style="overflow:visible;" preserveAspectRatio="none" viewBox="0 0 19.35 23.21" fill="none" xmlns="http://www.w3.org/2000/svg">
<path d="M10.9772 4.40813L11.9994 7.55396C12.2423 8.30151 12.9389 8.80764 13.7249 8.80764H17.0326C17.6185 8.80764 17.8621 9.55734 17.3881 9.9017L14.7121 11.8459C14.0762 12.3079 13.8101 13.1269 14.053 13.8744L15.0752 17.0202C15.2562 17.5775 14.6184 18.0407 14.1445 17.6964L11.4685 15.7521C10.8326 15.2902 9.97151 15.2902 9.33561 15.7521L6.6596 17.6964C6.18563 18.0407 5.5479 17.5775 5.72895 17.0202L6.75108 13.8744C6.99397 13.1269 6.7279 12.3079 6.092 11.8459L3.41598 9.9017C2.94201 9.55733 3.18561 8.80764 3.77147 8.80764H7.07919C7.86521 8.80764 8.56183 8.30151 8.80473 7.55396L9.82687 4.40813C10.0079 3.85094 10.7962 3.85094 10.9772 4.40813Z" fill="#F5CA20" stroke="#F5CA20" style="fill:#F5CA20;fill:color(display-p3 0.9608 0.7937 0.1255);fill-opacity:1;stroke:#F5CA20;stroke:color(display-p3 0.9608 0.7937 0.1255);stroke-opacity:1;" stroke-width="1.20956"/>
</svg>
