<svg width="100%" height="100%" style="overflow:visible;" preserveAspectRatio="none" viewBox="0 0 19.35 23.21" fill="none" xmlns="http://www.w3.org/2000/svg">
<path d="M10.997 4.40813L12.0191 7.55396C12.262 8.30151 12.9587 8.80764 13.7447 8.80764H17.0524C17.6383 8.80764 17.8819 9.55734 17.4079 9.9017L14.7318 11.8459C14.096 12.3079 13.8299 13.1269 14.0728 13.8744L15.095 17.0202C15.276 17.5775 14.6382 18.0407 14.1643 17.6964L11.4883 15.7521C10.8524 15.2902 9.99128 15.2902 9.35538 15.7521L6.67938 17.6964C6.2054 18.0407 5.56768 17.5775 5.74872 17.0202L6.77086 13.8744C7.01375 13.1269 6.74767 12.3079 6.11177 11.8459L3.43576 9.9017C2.96179 9.55733 3.20538 8.80764 3.79125 8.80764H7.09896C7.88498 8.80764 8.5816 8.30151 8.82451 7.55396L9.84664 4.40813C10.0277 3.85094 10.816 3.85094 10.997 4.40813Z" fill="#F5CA20" stroke="#F5CA20" style="fill:#F5CA20;fill:color(display-p3 0.9608 0.7937 0.1255);fill-opacity:1;stroke:#F5CA20;stroke:color(display-p3 0.9608 0.7937 0.1255);stroke-opacity:1;" stroke-width="1.20956"/>
</svg>
