<svg width="100%" height="100%" style="overflow:visible;" preserveAspectRatio="none" viewBox="0 0 19.35 23.21" fill="none" xmlns="http://www.w3.org/2000/svg">
<path d="M10.2719 4.40813L11.294 7.55396C11.5369 8.30151 12.2336 8.80764 13.0196 8.80764H16.3273C16.9132 8.80764 17.1568 9.55734 16.6828 9.9017L14.0067 11.8459C13.3709 12.3079 13.1048 13.1269 13.3477 13.8744L14.3699 17.0202C14.5509 17.5775 13.9131 18.0407 13.4392 17.6964L10.7632 15.7521C10.1273 15.2902 9.26619 15.2902 8.63028 15.7521L5.95428 17.6964C5.4803 18.0407 4.84258 17.5775 5.02362 17.0202L6.04576 13.8744C6.28865 13.1269 6.02257 12.3079 5.38667 11.8459L2.71066 9.9017C2.23669 9.55733 2.48029 8.80764 3.06615 8.80764H6.37387C7.15989 8.80764 7.85651 8.30151 8.09941 7.55396L9.12155 4.40813C9.30259 3.85094 10.0909 3.85094 10.2719 4.40813Z" fill="#F5CA20" stroke="#F5CA20" style="fill:#F5CA20;fill:color(display-p3 0.9608 0.7937 0.1255);fill-opacity:1;stroke:#F5CA20;stroke:color(display-p3 0.9608 0.7937 0.1255);stroke-opacity:1;" stroke-width="1.20956"/>
</svg>
