<svg width="100%" height="100%" style="overflow:visible;" preserveAspectRatio="none" viewBox="0 0 19.35 23.21" fill="none" xmlns="http://www.w3.org/2000/svg">
<path d="M10.3696 4.12932L11.3917 7.27515C11.6346 8.0227 12.3312 8.52883 13.1172 8.52883H16.4249C17.0109 8.52883 17.2545 9.27853 16.7804 9.62289L14.1044 11.5671C13.4685 12.0291 13.2025 12.8481 13.4453 13.5956L14.4675 16.7414C14.6486 17.2987 14.0108 17.7619 13.5369 17.4176L10.8608 15.4733C10.2249 15.0114 9.36384 15.0114 8.72794 15.4733L6.05194 17.4176C5.57796 17.7619 4.94023 17.2987 5.12128 16.7414L6.14342 13.5956C6.38631 12.8481 6.12023 12.0291 5.48433 11.5671L2.80831 9.62289C2.33434 9.27852 2.57794 8.52883 3.1638 8.52883H6.47152C7.25754 8.52883 7.95416 8.0227 8.19707 7.27515L9.2192 4.12932C9.40025 3.57213 10.1885 3.57213 10.3696 4.12932Z" fill="#F5CA20" stroke="#F5CA20" style="fill:#F5CA20;fill:color(display-p3 0.9608 0.7937 0.1255);fill-opacity:1;stroke:#F5CA20;stroke:color(display-p3 0.9608 0.7937 0.1255);stroke-opacity:1;" stroke-width="1.20956"/>
</svg>
