<svg width="100%" height="100%" style="overflow:visible;" preserveAspectRatio="none" viewBox="0 0 19.35 23.21" fill="none" xmlns="http://www.w3.org/2000/svg">
<path d="M10.6635 4.40813L11.6856 7.55396C11.9285 8.30151 12.6252 8.80764 13.4112 8.80764H16.7189C17.3048 8.80764 17.5484 9.55734 17.0744 9.9017L14.3983 11.8459C13.7625 12.3079 13.4964 13.1269 13.7393 13.8744L14.7615 17.0202C14.9425 17.5775 14.3047 18.0407 13.8308 17.6964L11.1548 15.7521C10.5189 15.2902 9.65779 15.2902 9.02189 15.7521L6.34588 17.6964C5.87191 18.0407 5.23418 17.5775 5.41523 17.0202L6.43736 13.8744C6.68025 13.1269 6.41418 12.3079 5.77827 11.8459L3.10226 9.9017C2.62829 9.55733 2.87189 8.80764 3.45775 8.80764H6.76547C7.55149 8.80764 8.24811 8.30151 8.49101 7.55396L9.51315 4.40813C9.6942 3.85094 10.4825 3.85094 10.6635 4.40813Z" fill="#F5CA20" stroke="#F5CA20" style="fill:#F5CA20;fill:color(display-p3 0.9608 0.7937 0.1255);fill-opacity:1;stroke:#F5CA20;stroke:color(display-p3 0.9608 0.7937 0.1255);stroke-opacity:1;" stroke-width="1.20956"/>
</svg>
