<svg width="100%" height="100%" style="overflow:visible;" preserveAspectRatio="none" viewBox="0 0 19.35 23.21" fill="none" xmlns="http://www.w3.org/2000/svg">
<path d="M10.7228 4.12932L11.745 7.27515C11.9879 8.0227 12.6845 8.52883 13.4705 8.52883H16.7782C17.3641 8.52883 17.6077 9.27853 17.1337 9.62289L14.4577 11.5671C13.8218 12.0291 13.5557 12.8481 13.7986 13.5956L14.8208 16.7414C15.0019 17.2987 14.3641 17.7619 13.8901 17.4176L11.2141 15.4733C10.5782 15.0114 9.71711 15.0114 9.08121 15.4733L6.40521 17.4176C5.93123 17.7619 5.29351 17.2987 5.47455 16.7414L6.49669 13.5956C6.73958 12.8481 6.4735 12.0291 5.8376 11.5671L3.16159 9.62289C2.68762 9.27852 2.93121 8.52883 3.51708 8.52883H6.82479C7.61081 8.52883 8.30743 8.0227 8.55034 7.27515L9.57247 4.12932C9.75352 3.57213 10.5418 3.57213 10.7228 4.12932Z" fill="#F5CA20" stroke="#F5CA20" style="fill:#F5CA20;fill:color(display-p3 0.9608 0.7937 0.1255);fill-opacity:1;stroke:#F5CA20;stroke:color(display-p3 0.9608 0.7937 0.1255);stroke-opacity:1;" stroke-width="1.20956"/>
</svg>
