<svg width="100%" height="100%" style="overflow:visible;" preserveAspectRatio="none" viewBox="0 0 19.35 23.21" fill="none" xmlns="http://www.w3.org/2000/svg">
<path d="M10.644 4.40813L11.6661 7.55396C11.909 8.30151 12.6056 8.80764 13.3917 8.80764H16.6994C17.2853 8.80764 17.5289 9.55734 17.0548 9.9017L14.3788 11.8459C13.743 12.3079 13.4769 13.1269 13.7197 13.8744L14.7419 17.0202C14.923 17.5775 14.2852 18.0407 13.8113 17.6964L11.1352 15.7521C10.4993 15.2902 9.63826 15.2902 9.00236 15.7521L6.32635 17.6964C5.85238 18.0407 5.21465 17.5775 5.39569 17.0202L6.41783 13.8744C6.66072 13.1269 6.39464 12.3079 5.75874 11.8459L3.08273 9.9017C2.60876 9.55733 2.85236 8.80764 3.43822 8.80764H6.74594C7.53196 8.80764 8.22858 8.30151 8.47148 7.55396L9.49362 4.40813C9.67466 3.85094 10.4629 3.85094 10.644 4.40813Z" fill="#F5CA20" stroke="#F5CA20" style="fill:#F5CA20;fill:color(display-p3 0.9608 0.7937 0.1255);fill-opacity:1;stroke:#F5CA20;stroke:color(display-p3 0.9608 0.7937 0.1255);stroke-opacity:1;" stroke-width="1.20956"/>
</svg>
