<svg width="100%" height="100%" style="overflow:visible;" preserveAspectRatio="none" viewBox="0 0 19.35 23.21" fill="none" xmlns="http://www.w3.org/2000/svg">
<path d="M10.605 4.40813L11.6272 7.55396C11.8701 8.30151 12.5667 8.80764 13.3527 8.80764H16.6604C17.2463 8.80764 17.4899 9.55734 17.0159 9.9017L14.3399 11.8459C13.704 12.3079 13.4379 13.1269 13.6808 13.8744L14.703 17.0202C14.8841 17.5775 14.2463 18.0407 13.7724 17.6964L11.0963 15.7521C10.4604 15.2902 9.59932 15.2902 8.96341 15.7521L6.28741 17.6964C5.81343 18.0407 5.17571 17.5775 5.35675 17.0202L6.37889 13.8744C6.62178 13.1269 6.3557 12.3079 5.7198 11.8459L3.04379 9.9017C2.56982 9.55733 2.81342 8.80764 3.39928 8.80764H6.707C7.49302 8.80764 8.18964 8.30151 8.43254 7.55396L9.45468 4.40813C9.63572 3.85094 10.424 3.85094 10.605 4.40813Z" fill="#F5CA20" stroke="#F5CA20" style="fill:#F5CA20;fill:color(display-p3 0.9608 0.7937 0.1255);fill-opacity:1;stroke:#F5CA20;stroke:color(display-p3 0.9608 0.7937 0.1255);stroke-opacity:1;" stroke-width="1.20956"/>
</svg>
