<svg width="100%" height="100%" style="overflow:visible;" preserveAspectRatio="none" viewBox="0 0 19.35 23.21" fill="none" xmlns="http://www.w3.org/2000/svg">
<path d="M10.4282 4.12932L11.4503 7.27515C11.6932 8.0227 12.3898 8.52883 13.1758 8.52883H16.4835C17.0694 8.52883 17.313 9.27853 16.839 9.62289L14.163 11.5671C13.5271 12.0291 13.2611 12.8481 13.5039 13.5956L14.5261 16.7414C14.7072 17.2987 14.0694 17.7619 13.5955 17.4176L10.9194 15.4733C10.2835 15.0114 9.42244 15.0114 8.78653 15.4733L6.11053 17.4176C5.63655 17.7619 4.99883 17.2987 5.17987 16.7414L6.20201 13.5956C6.4449 12.8481 6.17882 12.0291 5.54292 11.5671L2.86691 9.62289C2.39294 9.27852 2.63654 8.52883 3.2224 8.52883H6.53012C7.31614 8.52883 8.01276 8.0227 8.25566 7.27515L9.2778 4.12932C9.45884 3.57213 10.2471 3.57213 10.4282 4.12932Z" fill="#F5CA20" stroke="#F5CA20" style="fill:#F5CA20;fill:color(display-p3 0.9608 0.7937 0.1255);fill-opacity:1;stroke:#F5CA20;stroke:color(display-p3 0.9608 0.7937 0.1255);stroke-opacity:1;" stroke-width="1.20956"/>
</svg>
