<svg width="100%" height="100%" style="overflow:visible;" preserveAspectRatio="none" viewBox="0 0 19.35 23.21" fill="none" xmlns="http://www.w3.org/2000/svg">
<path d="M10.291 4.40813L11.3131 7.55396C11.556 8.30151 12.2526 8.80764 13.0386 8.80764H16.3463C16.9322 8.80764 17.1758 9.55734 16.7018 9.9017L14.0258 11.8459C13.3899 12.3079 13.1238 13.1269 13.3667 13.8744L14.3889 17.0202C14.57 17.5775 13.9322 18.0407 13.4583 17.6964L10.7822 15.7521C10.1463 15.2902 9.28523 15.2902 8.64933 15.7521L5.97333 17.6964C5.49935 18.0407 4.86162 17.5775 5.04267 17.0202L6.0648 13.8744C6.3077 13.1269 6.04162 12.3079 5.40572 11.8459L2.7297 9.9017C2.25573 9.55733 2.49933 8.80764 3.08519 8.80764H6.39291C7.17893 8.80764 7.87555 8.30151 8.11845 7.55396L9.14059 4.40813C9.32164 3.85094 10.1099 3.85094 10.291 4.40813Z" fill="#F5CA20" stroke="#F5CA20" style="fill:#F5CA20;fill:color(display-p3 0.9608 0.7937 0.1255);fill-opacity:1;stroke:#F5CA20;stroke:color(display-p3 0.9608 0.7937 0.1255);stroke-opacity:1;" stroke-width="1.20956"/>
</svg>
