<svg width="100%" height="100%" style="overflow:visible;" preserveAspectRatio="none" viewBox="0 0 19.35 23.21" fill="none" xmlns="http://www.w3.org/2000/svg">
<path d="M10.5854 4.40813L11.6075 7.55396C11.8504 8.30151 12.547 8.80764 13.3331 8.80764H16.6408C17.2267 8.80764 17.4703 9.55734 16.9962 9.9017L14.3202 11.8459C13.6844 12.3079 13.4183 13.1269 13.6611 13.8744L14.6833 17.0202C14.8644 17.5775 14.2266 18.0407 13.7527 17.6964L11.0766 15.7521C10.4407 15.2902 9.57966 15.2902 8.94376 15.7521L6.26776 17.6964C5.79378 18.0407 5.15605 17.5775 5.3371 17.0202L6.35924 13.8744C6.60213 13.1269 6.33605 12.3079 5.70015 11.8459L3.02414 9.9017C2.55016 9.55733 2.79376 8.80764 3.37962 8.80764H6.68734C7.47336 8.80764 8.16998 8.30151 8.41289 7.55396L9.43502 4.40813C9.61607 3.85094 10.4043 3.85094 10.5854 4.40813Z" fill="#F5CA20" stroke="#F5CA20" style="fill:#F5CA20;fill:color(display-p3 0.9608 0.7937 0.1255);fill-opacity:1;stroke:#F5CA20;stroke:color(display-p3 0.9608 0.7937 0.1255);stroke-opacity:1;" stroke-width="1.20956"/>
</svg>
