<svg width="100%" height="100%" style="overflow:visible;" preserveAspectRatio="none" viewBox="0 0 19.35 23.21" fill="none" xmlns="http://www.w3.org/2000/svg">
<path d="M10.9186 4.40813L11.9408 7.55396C12.1837 8.30151 12.8803 8.80764 13.6663 8.80764H16.974C17.5599 8.80764 17.8035 9.55734 17.3295 9.9017L14.6535 11.8459C14.0176 12.3079 13.7515 13.1269 13.9944 13.8744L15.0166 17.0202C15.1977 17.5775 14.5599 18.0407 14.0859 17.6964L11.4099 15.7521C10.774 15.2902 9.91291 15.2902 9.27701 15.7521L6.60101 17.6964C6.12703 18.0407 5.48931 17.5775 5.67035 17.0202L6.69249 13.8744C6.93538 13.1269 6.6693 12.3079 6.0334 11.8459L3.35739 9.9017C2.88342 9.55733 3.12701 8.80764 3.71288 8.80764H7.02059C7.80661 8.80764 8.50323 8.30151 8.74614 7.55396L9.76828 4.40813C9.94932 3.85094 10.7376 3.85094 10.9186 4.40813Z" fill="#F5CA20" stroke="#F5CA20" style="fill:#F5CA20;fill:color(display-p3 0.9608 0.7937 0.1255);fill-opacity:1;stroke:#F5CA20;stroke:color(display-p3 0.9608 0.7937 0.1255);stroke-opacity:1;" stroke-width="1.20956"/>
</svg>
