<svg width="100%" height="100%" style="overflow:visible;" preserveAspectRatio="none" viewBox="0 0 19.35 23.21" fill="none" xmlns="http://www.w3.org/2000/svg">
<path d="M10.3105 4.40813L11.3326 7.55396C11.5755 8.30151 12.2721 8.80764 13.0582 8.80764H16.3659C16.9518 8.80764 17.1954 9.55734 16.7213 9.9017L14.0453 11.8459C13.4095 12.3079 13.1434 13.1269 13.3862 13.8744L14.4084 17.0202C14.5895 17.5775 13.9517 18.0407 13.4778 17.6964L10.8017 15.7521C10.1658 15.2902 9.30476 15.2902 8.66886 15.7521L5.99286 17.6964C5.51888 18.0407 4.88115 17.5775 5.0622 17.0202L6.08434 13.8744C6.32723 13.1269 6.06115 12.3079 5.42525 11.8459L2.74923 9.9017C2.27526 9.55733 2.51886 8.80764 3.10472 8.80764H6.41244C7.19846 8.80764 7.89508 8.30151 8.13798 7.55396L9.16012 4.40813C9.34117 3.85094 10.1294 3.85094 10.3105 4.40813Z" fill="#F5CA20" stroke="#F5CA20" style="fill:#F5CA20;fill:color(display-p3 0.9608 0.7937 0.1255);fill-opacity:1;stroke:#F5CA20;stroke:color(display-p3 0.9608 0.7937 0.1255);stroke-opacity:1;" stroke-width="1.20956"/>
</svg>
