<svg width="100%" height="100%" style="overflow:visible;" preserveAspectRatio="none" viewBox="0 0 19.35 23.21" fill="none" xmlns="http://www.w3.org/2000/svg">
<path d="M10.9387 4.40813L11.9608 7.55396C12.2037 8.30151 12.9003 8.80764 13.6863 8.80764H16.994C17.5799 8.80764 17.8235 9.55734 17.3495 9.9017L14.6735 11.8459C14.0376 12.3079 13.7716 13.1269 14.0144 13.8744L15.0366 17.0202C15.2177 17.5775 14.5799 18.0407 14.106 17.6964L11.4299 15.7521C10.794 15.2902 9.93293 15.2902 9.29703 15.7521L6.62103 17.6964C6.14705 18.0407 5.50933 17.5775 5.69037 17.0202L6.71251 13.8744C6.9554 13.1269 6.68932 12.3079 6.05342 11.8459L3.37741 9.9017C2.90344 9.55733 3.14703 8.80764 3.7329 8.80764H7.04061C7.82663 8.80764 8.52325 8.30151 8.76616 7.55396L9.78829 4.40813C9.96934 3.85094 10.7576 3.85094 10.9387 4.40813Z" fill="#F5CA20" stroke="#F5CA20" style="fill:#F5CA20;fill:color(display-p3 0.9608 0.7937 0.1255);fill-opacity:1;stroke:#F5CA20;stroke:color(display-p3 0.9608 0.7937 0.1255);stroke-opacity:1;" stroke-width="1.20956"/>
</svg>
