<svg width="100%" height="100%" style="overflow:visible;" preserveAspectRatio="none" viewBox="0 0 19.35 23.21" fill="none" xmlns="http://www.w3.org/2000/svg">
<path d="M11.0751 4.12932L12.0973 7.27515C12.3402 8.0227 13.0368 8.52883 13.8228 8.52883H17.1305C17.7164 8.52883 17.96 9.27853 17.486 9.62289L14.81 11.5671C14.1741 12.0291 13.908 12.8481 14.1509 13.5956L15.1731 16.7414C15.3541 17.2987 14.7163 17.7619 14.2424 17.4176L11.5664 15.4733C10.9305 15.0114 10.0694 15.0114 9.43351 15.4733L6.75751 17.4176C6.28353 17.7619 5.6458 17.2987 5.82685 16.7414L6.84898 13.5956C7.09188 12.8481 6.8258 12.0291 6.1899 11.5671L3.51388 9.62289C3.03991 9.27852 3.28351 8.52883 3.86937 8.52883H7.17709C7.96311 8.52883 8.65973 8.0227 8.90263 7.27515L9.92477 4.12932C10.1058 3.57213 10.8941 3.57213 11.0751 4.12932Z" fill="#F5CA20" stroke="#F5CA20" style="fill:#F5CA20;fill:color(display-p3 0.9608 0.7937 0.1255);fill-opacity:1;stroke:#F5CA20;stroke:color(display-p3 0.9608 0.7937 0.1255);stroke-opacity:1;" stroke-width="1.20956"/>
</svg>
