<svg width="100%" height="100%" style="overflow:visible;" preserveAspectRatio="none" viewBox="0 0 19.35 23.21" fill="none" xmlns="http://www.w3.org/2000/svg">
<path d="M10.6242 4.40813L11.6463 7.55396C11.8892 8.30151 12.5859 8.80764 13.3719 8.80764H16.6796C17.2655 8.80764 17.5091 9.55734 17.0351 9.9017L14.359 11.8459C13.7232 12.3079 13.4571 13.1269 13.7 13.8744L14.7222 17.0202C14.9032 17.5775 14.2654 18.0407 13.7915 17.6964L11.1155 15.7521C10.4796 15.2902 9.61848 15.2902 8.98258 15.7521L6.30658 17.6964C5.8326 18.0407 5.19487 17.5775 5.37592 17.0202L6.39806 13.8744C6.64095 13.1269 6.37487 12.3079 5.73897 11.8459L3.06295 9.9017C2.58898 9.55733 2.83258 8.80764 3.41844 8.80764H6.72616C7.51218 8.80764 8.2088 8.30151 8.4517 7.55396L9.47384 4.40813C9.65489 3.85094 10.4432 3.85094 10.6242 4.40813Z" fill="#F5CA20" stroke="#F5CA20" style="fill:#F5CA20;fill:color(display-p3 0.9608 0.7937 0.1255);fill-opacity:1;stroke:#F5CA20;stroke:color(display-p3 0.9608 0.7937 0.1255);stroke-opacity:1;" stroke-width="1.20956"/>
</svg>
