<svg width="100%" height="100%" style="overflow:visible;" preserveAspectRatio="none" viewBox="0 0 19.35 23.21" fill="none" xmlns="http://www.w3.org/2000/svg">
<path d="M10.7812 4.12932L11.8033 7.27515C12.0462 8.0227 12.7428 8.52883 13.5289 8.52883H16.8366C17.4225 8.52883 17.6661 9.27853 17.192 9.62289L14.516 11.5671C13.8802 12.0291 13.6141 12.8481 13.8569 13.5956L14.8791 16.7414C15.0602 17.2987 14.4224 17.7619 13.9485 17.4176L11.2724 15.4733C10.6365 15.0114 9.77546 15.0114 9.13956 15.4733L6.46356 17.4176C5.98958 17.7619 5.35185 17.2987 5.5329 16.7414L6.55504 13.5956C6.79793 12.8481 6.53185 12.0291 5.89595 11.5671L3.21994 9.62289C2.74597 9.27852 2.98956 8.52883 3.57543 8.52883H6.88314C7.66916 8.52883 8.36578 8.0227 8.60869 7.27515L9.63082 4.12932C9.81187 3.57213 10.6001 3.57213 10.7812 4.12932Z" fill="#F5CA20" stroke="#F5CA20" style="fill:#F5CA20;fill:color(display-p3 0.9608 0.7937 0.1255);fill-opacity:1;stroke:#F5CA20;stroke:color(display-p3 0.9608 0.7937 0.1255);stroke-opacity:1;" stroke-width="1.20956"/>
</svg>
