<svg width="100%" height="100%" style="overflow:visible;" preserveAspectRatio="none" viewBox="0 0 19.35 23.21" fill="none" xmlns="http://www.w3.org/2000/svg">
<path d="M10.3303 4.40813L11.3524 7.55396C11.5953 8.30151 12.2919 8.80764 13.0779 8.80764H16.3856C16.9715 8.80764 17.2151 9.55734 16.7411 9.9017L14.0651 11.8459C13.4292 12.3079 13.1632 13.1269 13.406 13.8744L14.4282 17.0202C14.6093 17.5775 13.9715 18.0407 13.4976 17.6964L10.8215 15.7521C10.1856 15.2902 9.32454 15.2902 8.68863 15.7521L6.01263 17.6964C5.53865 18.0407 4.90093 17.5775 5.08197 17.0202L6.10411 13.8744C6.347 13.1269 6.08092 12.3079 5.44502 11.8459L2.76901 9.9017C2.29504 9.55733 2.53864 8.80764 3.1245 8.80764H6.43222C7.21824 8.80764 7.91486 8.30151 8.15776 7.55396L9.1799 4.40813C9.36094 3.85094 10.1492 3.85094 10.3303 4.40813Z" fill="#F5CA20" stroke="#F5CA20" style="fill:#F5CA20;fill:color(display-p3 0.9608 0.7937 0.1255);fill-opacity:1;stroke:#F5CA20;stroke:color(display-p3 0.9608 0.7937 0.1255);stroke-opacity:1;" stroke-width="1.20956"/>
</svg>
