<svg width="100%" height="100%" style="overflow:visible;" preserveAspectRatio="none" viewBox="0 0 19.35 23.21" fill="none" xmlns="http://www.w3.org/2000/svg">
<path d="M10.9576 4.40813L11.9797 7.55396C12.2226 8.30151 12.9192 8.80764 13.7053 8.80764H17.013C17.5989 8.80764 17.8425 9.55734 17.3684 9.9017L14.6924 11.8459C14.0566 12.3079 13.7905 13.1269 14.0333 13.8744L15.0555 17.0202C15.2366 17.5775 14.5988 18.0407 14.1249 17.6964L11.4488 15.7521C10.8129 15.2902 9.95186 15.2902 9.31595 15.7521L6.63995 17.6964C6.16597 18.0407 5.52825 17.5775 5.70929 17.0202L6.73143 13.8744C6.97432 13.1269 6.70824 12.3079 6.07234 11.8459L3.39633 9.9017C2.92236 9.55733 3.16595 8.80764 3.75182 8.80764H7.05954C7.84555 8.80764 8.54218 8.30151 8.78508 7.55396L9.80722 4.40813C9.98826 3.85094 10.7765 3.85094 10.9576 4.40813Z" fill="#F5CA20" stroke="#F5CA20" style="fill:#F5CA20;fill:color(display-p3 0.9608 0.7937 0.1255);fill-opacity:1;stroke:#F5CA20;stroke:color(display-p3 0.9608 0.7937 0.1255);stroke-opacity:1;" stroke-width="1.20956"/>
</svg>
