<svg width="100%" height="100%" style="overflow:visible;" preserveAspectRatio="none" viewBox="0 0 24 24" fill="none" xmlns="http://www.w3.org/2000/svg">
<path fill-rule="evenodd" clip-rule="evenodd" d="M12.2539 23.9346C13.6984 23.9346 15.1288 23.65 16.4634 23.0972C17.798 22.5444 19.0106 21.7342 20.0321 20.7127C21.0535 19.6913 21.8638 18.4787 22.4166 17.1441C22.9694 15.8095 23.2539 14.3791 23.2539 12.9346C23.2539 11.49 22.9694 10.0596 22.4166 8.72505C21.8638 7.39047 21.0535 6.17784 20.0321 5.1564C19.0106 4.13495 17.798 3.3247 16.4634 2.7719C15.1288 2.21909 13.6984 1.93457 12.2539 1.93457C9.33652 1.93457 6.53863 3.0935 4.47573 5.1564C2.41283 7.2193 1.25391 10.0172 1.25391 12.9346C1.25391 15.852 2.41283 18.6498 4.47573 20.7127C6.53863 22.7756 9.33652 23.9346 12.2539 23.9346ZM11.9704 17.3835L18.0815 10.0501L16.2041 8.48568L10.9486 14.7911L8.22913 12.0705L6.50091 13.7987L10.1676 17.4653L11.1136 18.4113L11.9704 17.3835Z" fill="#00A620" style="fill:#00A620;fill:color(display-p3 0.0000 0.6510 0.1255);fill-opacity:1;"/>
</svg>
