<svg width="100%" height="100%" style="overflow:visible;" preserveAspectRatio="none" viewBox="0 0 24 24" fill="none" xmlns="http://www.w3.org/2000/svg">
<path fill-rule="evenodd" clip-rule="evenodd" d="M12.2539 23.4346C13.6984 23.4346 15.1288 23.15 16.4634 22.5972C17.798 22.0444 19.0106 21.2342 20.0321 20.2127C21.0535 19.1913 21.8638 17.9787 22.4166 16.6441C22.9694 15.3095 23.2539 13.8791 23.2539 12.4346C23.2539 10.99 22.9694 9.55963 22.4166 8.22505C21.8638 6.89047 21.0535 5.67784 20.0321 4.6564C19.0106 3.63495 17.798 2.8247 16.4634 2.2719C15.1288 1.71909 13.6984 1.43457 12.2539 1.43457C9.33652 1.43457 6.53863 2.5935 4.47573 4.6564C2.41283 6.7193 1.25391 9.51719 1.25391 12.4346C1.25391 15.352 2.41283 18.1498 4.47573 20.2127C6.53863 22.2756 9.33652 23.4346 12.2539 23.4346ZM11.9704 16.8835L18.0815 9.55013L16.2041 7.98568L10.9486 14.2911L8.22913 11.5705L6.50091 13.2987L10.1676 16.9653L11.1136 17.9113L11.9704 16.8835Z" fill="#00A620" style="fill:#00A620;fill:color(display-p3 0.0000 0.6510 0.1255);fill-opacity:1;"/>
</svg>
