<svg width="100%" height="100%" style="overflow:visible;" preserveAspectRatio="none" viewBox="0 0 24 24" fill="none" xmlns="http://www.w3.org/2000/svg">
<path fill-rule="evenodd" clip-rule="evenodd" d="M12.2539 23.6436C13.6984 23.6436 15.1288 23.359 16.4634 22.8062C17.798 22.2534 19.0106 21.4432 20.0321 20.4217C21.0535 19.4003 21.8638 18.1877 22.4166 16.8531C22.9694 15.5185 23.2539 14.0881 23.2539 12.6436C23.2539 11.199 22.9694 9.76862 22.4166 8.43404C21.8638 7.09946 21.0535 5.88682 20.0321 4.86538C19.0106 3.84394 17.798 3.03368 16.4634 2.48088C15.1288 1.92808 13.6984 1.64355 12.2539 1.64355C9.33652 1.64355 6.53863 2.80248 4.47573 4.86538C2.41283 6.92828 1.25391 9.72617 1.25391 12.6436C1.25391 15.5609 2.41283 18.3588 4.47573 20.4217C6.53863 22.4846 9.33652 23.6436 12.2539 23.6436ZM11.9704 17.0924L18.0815 9.75911L16.2041 8.19467L10.9486 14.5001L8.22913 11.7794L6.50091 13.5077L10.1676 17.1743L11.1136 18.1203L11.9704 17.0924Z" fill="#00A620" style="fill:#00A620;fill:color(display-p3 0.0000 0.6510 0.1255);fill-opacity:1;"/>
</svg>
