<svg width="100%" height="100%" style="overflow:visible;" preserveAspectRatio="none" viewBox="0 0 837 55.46" fill="none" xmlns="http://www.w3.org/2000/svg">
<path d="M39.4716 26.5898H786.667" stroke="#004476" style="stroke:#004476;stroke:color(display-p3 0.0000 0.2681 0.4625);stroke-opacity:1;" stroke-width="3" stroke-linecap="round"/>
<rect y="1.10791" width="52" height="52" rx="26" fill="#1699F8" style="fill:#1699F8;fill:color(display-p3 0.0863 0.6000 0.9725);fill-opacity:1;"/>
<rect y="1.10791" width="52" height="52" rx="26" stroke="#004476" style="stroke:#004476;stroke:color(display-p3 0.0000 0.2681 0.4625);stroke-opacity:1;" stroke-width="3"/>
<path d="M27.6758 14.7886H30.1718V39.4273H26.9627V20.9928C25.4651 22.4191 24.0388 22.4191 21.8281 22.4191V20.1014C26.1426 20.1014 27.3192 17.9977 27.6758 14.7886Z" fill="white" style="fill:white;fill-opacity:1;"/>
<rect x="388" y="1.10791" width="52" height="52" rx="26" fill="#1699F8" style="fill:#1699F8;fill:color(display-p3 0.0863 0.6000 0.9725);fill-opacity:1;"/>
<rect x="388" y="1.10791" width="52" height="52" rx="26" stroke="#004476" style="stroke:#004476;stroke:color(display-p3 0.0000 0.2681 0.4625);stroke-opacity:1;" stroke-width="3"/>
<path d="M409.324 23.8228H406.195C406.195 18.9547 408.907 15.1079 414.852 15.1079C418.954 15.1079 422.5 17.6611 422.5 22.1547C422.5 30.2228 410.784 30.6994 409.289 36.3164V36.3845H422.152V39.1079H405.5C405.5 34.8526 408.246 31.5164 412.662 28.9973C417.146 26.4441 419.371 25.6271 419.371 22.1888C419.371 20.2143 418.467 17.8313 414.782 17.8313C410.576 17.8313 409.324 20.5888 409.324 23.8228Z" fill="white" style="fill:white;fill-opacity:1;"/>
<rect x="782" y="0.647949" width="52" height="52" rx="26" fill="#1699F8" style="fill:#1699F8;fill:color(display-p3 0.0863 0.6000 0.9725);fill-opacity:1;"/>
<rect x="782" y="0.647949" width="52" height="52" rx="26" stroke="#004476" style="stroke:#004476;stroke:color(display-p3 0.0000 0.2681 0.4625);stroke-opacity:1;" stroke-width="3"/>
<path d="M803.038 22.0249H800.09C800.09 17.7856 802.808 14.6479 808.409 14.6479C812.275 14.6479 815.681 16.9511 815.681 21.0235C815.681 23.4602 814.502 24.9957 812.209 25.9303V25.997C815.419 26.8983 816.5 29.0012 816.5 31.705C816.5 36.2446 813.323 38.6479 808.475 38.6479C802.71 38.6479 799.5 35.577 799.5 30.3698H802.448C802.448 33.7078 803.955 35.9776 808.246 35.9776C812.144 35.9776 813.552 34.4755 813.552 31.705C813.552 28.1 810.964 27.4658 808.77 27.4658H806.346V24.7954H808.639C810.964 24.7954 812.733 23.6938 812.733 21.0235C812.733 19.1542 811.488 17.3183 808.409 17.3183C803.987 17.3183 803.038 19.755 803.038 22.0249Z" fill="white" style="fill:white;fill-opacity:1;"/>
</svg>
