<svg width="100%" height="100%" style="overflow:visible;" preserveAspectRatio="none" viewBox="0 0 12.41 8" fill="none" xmlns="http://www.w3.org/2000/svg">
<path d="M12.7703 1.37796C12.7743 1.19454 12.7212 1.01442 12.6181 0.862637C12.515 0.710856 12.3672 0.59496 12.1952 0.53106C12.0232 0.467161 11.8356 0.458434 11.6584 0.506092C11.4813 0.553751 11.3234 0.655426 11.2067 0.796984L6.57956 6.1982L1.95405 0.796984C1.88208 0.699061 1.79071 0.617054 1.68558 0.556097C1.58045 0.495139 1.46383 0.456546 1.34309 0.442733C1.22235 0.42892 1.10009 0.440184 0.983906 0.475822C0.867723 0.511459 0.760116 0.570701 0.66789 0.649838C0.575663 0.728975 0.500851 0.826302 0.44798 0.935724C0.39511 1.04515 0.365415 1.16431 0.360729 1.28574C0.356044 1.40718 0.376414 1.52827 0.420696 1.64144C0.464978 1.75461 0.532147 1.85742 0.618002 1.94343L5.90894 8.12733C5.99181 8.22444 6.09468 8.30242 6.2106 8.35589C6.32653 8.40936 6.45271 8.43705 6.58038 8.43705C6.70804 8.43705 6.83422 8.40936 6.95015 8.35589C7.06608 8.30242 7.16904 8.22444 7.25191 8.12733L12.5479 1.94343C12.6867 1.78721 12.7654 1.58685 12.7703 1.37796Z" fill="#333333" style="fill:#333333;fill:color(display-p3 0.2000 0.2000 0.2000);fill-opacity:1;"/>
</svg>
