<svg width="100%" height="100%" style="overflow:visible;" preserveAspectRatio="none" viewBox="0 0 15 18" fill="none" xmlns="http://www.w3.org/2000/svg">
<mask id="path-1-inside-1_3394_498" fill="white">
<path fill-rule="evenodd" clip-rule="evenodd" d="M8.81836 0.389648C8.61136 0.389648 8.44336 0.550929 8.44336 0.749649V12.9896C8.44336 13.9832 7.60336 14.7896 6.56836 14.7896C5.53336 14.7896 4.69336 13.9832 4.69336 12.9896C4.69336 11.996 5.53336 11.1896 6.56836 11.1896C6.77536 11.1896 6.94336 11.0284 6.94336 10.8296V7.94965C6.94336 7.75093 6.77536 7.58965 6.56836 7.58965C3.46373 7.58965 0.943359 10.0092 0.943359 12.9896C0.943359 15.9701 3.46373 18.3896 6.56836 18.3896C9.67299 18.3896 12.1934 15.9701 12.1934 12.9896V7.04749C12.9944 7.39561 13.8827 7.58965 14.8184 7.58965H15.5684C15.7754 7.58965 15.9434 7.42837 15.9434 7.22965V4.34965C15.9434 4.15093 15.7754 3.98965 15.5684 3.98965H14.8184C13.3697 3.98965 12.1934 2.86033 12.1934 1.46965V0.749649C12.1934 0.550929 12.0254 0.389648 11.8184 0.389648H8.81836ZM9.19336 1.10965H11.4434V1.46965C11.4434 3.25777 12.9557 4.70965 14.8184 4.70965H15.1934V6.86965H14.8184C13.7942 6.86965 12.8339 6.60649 12.0062 6.14641C11.8904 6.08197 11.7471 6.08197 11.6312 6.14605C11.515 6.21049 11.4434 6.32929 11.4434 6.45817V12.9896C11.4434 15.5726 9.25898 17.6696 6.56836 17.6696C3.87773 17.6696 1.69336 15.5726 1.69336 12.9896C1.69336 10.528 3.67786 8.50729 6.19336 8.32333V10.4952C4.92211 10.6702 3.94336 11.721 3.94336 12.9896C3.94336 14.3803 5.11973 15.5096 6.56836 15.5096C8.01698 15.5096 9.19336 14.3803 9.19336 12.9896V1.10965Z"/>
</mask>
<path fill-rule="evenodd" clip-rule="evenodd" d="M8.81836 0.389648C8.61136 0.389648 8.44336 0.550929 8.44336 0.749649V12.9896C8.44336 13.9832 7.60336 14.7896 6.56836 14.7896C5.53336 14.7896 4.69336 13.9832 4.69336 12.9896C4.69336 11.996 5.53336 11.1896 6.56836 11.1896C6.77536 11.1896 6.94336 11.0284 6.94336 10.8296V7.94965C6.94336 7.75093 6.77536 7.58965 6.56836 7.58965C3.46373 7.58965 0.943359 10.0092 0.943359 12.9896C0.943359 15.9701 3.46373 18.3896 6.56836 18.3896C9.67299 18.3896 12.1934 15.9701 12.1934 12.9896V7.04749C12.9944 7.39561 13.8827 7.58965 14.8184 7.58965H15.5684C15.7754 7.58965 15.9434 7.42837 15.9434 7.22965V4.34965C15.9434 4.15093 15.7754 3.98965 15.5684 3.98965H14.8184C13.3697 3.98965 12.1934 2.86033 12.1934 1.46965V0.749649C12.1934 0.550929 12.0254 0.389648 11.8184 0.389648H8.81836ZM9.19336 1.10965H11.4434V1.46965C11.4434 3.25777 12.9557 4.70965 14.8184 4.70965H15.1934V6.86965H14.8184C13.7942 6.86965 12.8339 6.60649 12.0062 6.14641C11.8904 6.08197 11.7471 6.08197 11.6312 6.14605C11.515 6.21049 11.4434 6.32929 11.4434 6.45817V12.9896C11.4434 15.5726 9.25898 17.6696 6.56836 17.6696C3.87773 17.6696 1.69336 15.5726 1.69336 12.9896C1.69336 10.528 3.67786 8.50729 6.19336 8.32333V10.4952C4.92211 10.6702 3.94336 11.721 3.94336 12.9896C3.94336 14.3803 5.11973 15.5096 6.56836 15.5096C8.01698 15.5096 9.19336 14.3803 9.19336 12.9896V1.10965Z" fill="white" stroke="white" style="fill:white;fill-opacity:1;stroke:white;stroke-opacity:1;" stroke-width="2" mask="url(#path-1-inside-1_3394_498)"/>
</svg>
