<svg width="100%" height="100%" style="overflow:visible;" preserveAspectRatio="none" viewBox="0 0 206.05 206.17" fill="none" xmlns="http://www.w3.org/2000/svg" xmlns:xlink="http://www.w3.org/1999/xlink">
<path d="M21 3.09804C44.8279 -7.68031 206.552 18.7151 206.552 18.7151V196.905C206.552 196.905 25.6368 213.804 15.0722 203.166C4.50763 192.527 22.9841 192.48 6.67173 143.291C-9.64063 94.1021 11.0932 62.7642 15.0722 42.2039C19.0512 21.6436 -2.82795 13.8764 21 3.09804Z" fill="#1699F8" style="fill:#1699F8;fill:color(display-p3 0.0863 0.6000 0.9725);fill-opacity:1;"/>
<path d="M21 3.09804C44.8279 -7.68031 206.552 18.7151 206.552 18.7151V196.905C206.552 196.905 25.6368 213.804 15.0722 203.166C4.50763 192.527 22.9841 192.48 6.67173 143.291C-9.64063 94.1021 11.0932 62.7642 15.0722 42.2039C19.0512 21.6436 -2.82795 13.8764 21 3.09804Z" fill="url(#pattern0_2835_3562)" style=""/>
<defs>
<pattern id="pattern0_2835_3562" patternContentUnits="objectBoundingBox" width="1" height="1">
<use xlink:href="#image0_2835_3562" transform="translate(-0.000284586) scale(0.00100057)"/>
</pattern>
<image id="image0_2835_3562" width="1000" height="1000" preserveAspectRatio="none" xlink:href="/assets/bg-rectangle-7.png"/>
</defs>
</svg>
