<svg width="100%" height="100%" style="overflow:visible;" preserveAspectRatio="none" viewBox="0 0 206.05 212.8" fill="none" xmlns="http://www.w3.org/2000/svg" xmlns:xlink="http://www.w3.org/1999/xlink">
<path d="M21 3.18071C44.8279 -7.94417 206.552 19.2999 206.552 19.2999V203.218C206.552 203.218 25.6368 220.661 15.0722 209.681C4.50763 198.7 22.9841 198.652 6.67173 147.881C-9.64063 97.1106 11.0932 64.7652 15.0722 43.5439C19.0512 22.3225 -2.82795 14.3056 21 3.18071Z" fill="#1699F8" style="fill:#1699F8;fill:color(display-p3 0.0863 0.6000 0.9725);fill-opacity:1;"/>
<path d="M21 3.18071C44.8279 -7.94417 206.552 19.2999 206.552 19.2999V203.218C206.552 203.218 25.6368 220.661 15.0722 209.681C4.50763 198.7 22.9841 198.652 6.67173 147.881C-9.64063 97.1106 11.0932 64.7652 15.0722 43.5439C19.0512 22.3225 -2.82795 14.3056 21 3.18071Z" fill="url(#pattern0_2835_3498)" style=""/>
<defs>
<pattern id="pattern0_2835_3498" patternContentUnits="objectBoundingBox" width="1" height="1">
<use xlink:href="#image0_2835_3498" transform="matrix(0.000321417 0 0 0.000311228 0.097215 0.143109)"/>
</pattern>
<image id="image0_2835_3498" width="2500" height="2500" preserveAspectRatio="none" xlink:href="/assets/bg-rectangle-4.png"/>
</defs>
</svg>
