<svg width="100%" height="100%" style="overflow:visible;" preserveAspectRatio="none" viewBox="0 0 24.05 24.05" fill="none" xmlns="http://www.w3.org/2000/svg">
<path d="M12.0323 24.6433C18.6642 24.6433 24.0593 19.2482 24.0593 12.6163C24.0593 5.98444 18.6642 0.589355 12.0323 0.589355C5.40046 0.589355 0.00537109 5.98444 0.00537109 12.6163C0.00537109 19.2482 5.40046 24.6433 12.0323 24.6433ZM8.317 11.9077L13.3283 6.89652C13.5237 6.70108 13.7803 6.60284 14.0369 6.60284C14.2934 6.60284 14.55 6.70108 14.7455 6.89652C15.1373 7.28838 15.1373 7.92182 14.7455 8.31368L10.4428 12.6163L14.7454 16.919C15.1373 17.3108 15.1373 17.9443 14.7454 18.3361C14.3536 18.728 13.7201 18.728 13.3283 18.3361L8.317 13.3249C7.92513 12.933 7.92513 12.2996 8.317 11.9077Z" fill="#1699F8" style="fill:#1699F8;fill:color(display-p3 0.0863 0.6000 0.9725);fill-opacity:1;"/>
</svg>
