<svg width="100%" height="100%" style="overflow:visible;" preserveAspectRatio="none" viewBox="0 0 32 32" fill="none" xmlns="http://www.w3.org/2000/svg">
<path d="M32.9426 15.1768C32.9426 13.7301 32.4395 11.7448 30.16 10.1808V9.5248C30.16 7.09547 28.4156 5.24613 25.8679 4.80213C25.3728 2.33547 23.4133 0.530132 21.005 0.510132H20.9612C19.619 0.510132 18.0644 1.0048 16.9466 2.06613C15.8368 1.00347 14.2835 0.510132 12.8909 0.510132C10.4747 0.510132 8.50851 2.3168 8.01598 4.80213C5.46968 5.24613 3.72524 7.0968 3.72524 9.5248V10.1808C1.44578 11.7448 0.942627 13.7301 0.942627 15.1768C0.942627 16.4488 1.30373 17.6675 1.9954 18.7421C1.3555 19.7395 1.01166 20.8968 1.01166 22.0981C1.01166 24.4621 2.38172 26.6315 4.47797 27.6701C5.91043 30.7968 8.43284 32.5101 11.6323 32.5101C13.5812 32.5101 15.6111 31.4261 16.9426 29.8435C18.2742 31.4275 20.3041 32.5101 22.2529 32.5101C25.4511 32.5101 27.9748 30.7968 29.4073 27.6701C31.5035 26.6328 32.8749 24.4635 32.8749 22.0981C32.8749 20.8968 32.5297 19.7395 31.8899 18.7421C32.5815 17.6675 32.9426 16.4488 32.9426 15.1768ZM22.1481 15.5088L16.6771 22.8595C16.5284 23.0595 16.2948 23.1768 16.0465 23.1768C15.5301 23.1768 19.1575 23.6781 19.289 23.1768L23.2805 20.5074V16.4986C22.5503 16.4986 23.0694 13.7651 23.2805 13.0624L14.1587 9.72213C14.4202 8.99413 15.1066 8.5088 15.8766 8.5088H17.9582C18.7853 8.5088 13.1842 7.7328 12.8909 8.5088L17.6489 13.8421H21.2559C22.1082 13.8421 22.6167 14.7955 22.1454 15.5075L22.1481 15.5088Z" fill="#060346" style="fill:#060346;fill:color(display-p3 0.0235 0.0118 0.2745);fill-opacity:1;"/>
</svg>
