<svg width="100%" height="100%" style="overflow:visible;" preserveAspectRatio="none" viewBox="0 0 20 17.69" fill="none" xmlns="http://www.w3.org/2000/svg">
<path d="M8.5036 15.0172C8.30202 15.0168 8.10866 14.9372 7.96514 14.7957L4.84283 11.7188C4.71043 11.5734 4.63876 11.3828 4.64252 11.1862C4.64629 10.9895 4.72522 10.8018 4.86308 10.6616C5.00095 10.5214 5.18729 10.4393 5.38381 10.4322C5.58033 10.4251 5.77212 10.4935 5.91975 10.6234L8.49667 13.1619L15.6044 6.01724C15.6751 5.9436 15.7598 5.88478 15.8536 5.84422C15.9473 5.80367 16.0482 5.78218 16.1503 5.78101C16.2524 5.77985 16.3537 5.79903 16.4484 5.83744C16.543 5.87585 16.629 5.93272 16.7014 6.00473C16.7739 6.07674 16.8312 6.16245 16.8702 6.25686C16.9091 6.35127 16.9289 6.45249 16.9283 6.55461C16.9277 6.65674 16.9068 6.75773 16.8667 6.85168C16.8267 6.94564 16.7684 7.03068 16.6951 7.10186L9.04898 14.7942C8.9772 14.8654 8.89208 14.9217 8.7985 14.96C8.70492 14.9983 8.6047 15.0177 8.5036 15.0172Z" fill="#333333" style="fill:#333333;fill:color(display-p3 0.2000 0.2000 0.2000);fill-opacity:1;"/>
</svg>
