<svg width="100%" height="100%" style="overflow:visible;" preserveAspectRatio="none" viewBox="0 0 20 20" fill="none" xmlns="http://www.w3.org/2000/svg">
<path d="M8.19354 15.0172C7.99196 15.0168 7.7986 14.9372 7.65508 14.7957L4.53277 11.7188C4.40038 11.5734 4.3287 11.3828 4.33247 11.1862C4.33623 10.9895 4.41516 10.8018 4.55302 10.6616C4.69089 10.5214 4.87723 10.4393 5.07375 10.4322C5.27027 10.4251 5.46206 10.4935 5.60969 10.6234L8.18662 13.1619L15.2943 6.01724C15.3651 5.9436 15.4498 5.88478 15.5435 5.84422C15.6372 5.80367 15.7381 5.78218 15.8402 5.78101C15.9423 5.77985 16.0437 5.79903 16.1383 5.83744C16.2329 5.87585 16.319 5.93272 16.3914 6.00473C16.4638 6.07674 16.5212 6.16245 16.5601 6.25686C16.599 6.35127 16.6188 6.45249 16.6182 6.55461C16.6176 6.65674 16.5967 6.75773 16.5567 6.85168C16.5167 6.94564 16.4583 7.03068 16.3851 7.10186L8.73892 14.7942C8.66714 14.8654 8.58202 14.9217 8.48844 14.96C8.39486 14.9983 8.29465 15.0177 8.19354 15.0172Z" fill="#333333" style="fill:#333333;fill:color(display-p3 0.2000 0.2000 0.2000);fill-opacity:1;"/>
</svg>
