<svg width="100%" height="100%" style="overflow:visible;" preserveAspectRatio="none" viewBox="0 0 24 32" fill="none" xmlns="http://www.w3.org/2000/svg">
<path d="M15.1713 19.9241C15.0508 19.6779 14.806 19.5241 14.5298 19.5241L11.2638 19.5254L14.1445 11.0005C14.2236 10.7655 14.1257 10.5192 13.9085 10.4017C13.6889 10.283 13.429 10.338 13.2759 10.5317L4.01855 22.2527C3.84784 22.469 3.81646 22.7564 3.93696 23.0027C4.05872 23.249 4.30347 23.4027 4.57838 23.4027H7.87945L5.02635 31.8489C4.94727 32.0839 5.04518 32.3301 5.26358 32.4476C5.34141 32.4889 5.42425 32.5101 5.50458 32.5101C5.6527 32.5101 5.79705 32.4426 5.89623 32.3164L15.0906 20.6728C15.26 20.4591 15.2918 20.1716 15.1713 19.9241Z" fill="#060346" style="fill:#060346;fill:color(display-p3 0.0235 0.0118 0.2745);fill-opacity:1;"/>
<path d="M24.2792 15.4279C24.1587 15.1816 23.9139 15.0279 23.639 15.0279H20.3717L23.2524 6.50299C23.3315 6.26799 23.2335 6.02175 23.0164 5.90425C22.7967 5.7855 22.5369 5.8405 22.3838 6.03425L13.1255 17.7552C12.9548 17.9715 12.9234 18.259 13.0439 18.5052C13.1656 18.7515 13.4104 18.9052 13.6853 18.9052H16.9864L14.1345 27.3524C14.0554 27.5874 14.1533 27.8336 14.3705 27.9511C14.4483 27.9936 14.5312 28.0136 14.6128 28.0136C14.7596 28.0136 14.904 27.9461 15.0031 27.8211L24.1975 16.1763C24.3694 15.9613 24.4009 15.6741 24.2792 15.4279Z" fill="#060346" style="fill:#060346;fill:color(display-p3 0.0235 0.0118 0.2745);fill-opacity:1;"/>
<path d="M11.6594 10.0943C11.5389 9.84802 11.2929 9.69427 11.018 9.69427L7.75194 9.69552L10.6314 1.1706C10.7117 0.935607 10.6138 0.690615 10.3941 0.571866C10.1757 0.454368 9.91591 0.508117 9.76279 0.703114L0.505461 12.4241C0.336009 12.6404 0.304627 12.9278 0.425128 13.1741C0.545628 13.4204 0.791642 13.5741 1.06654 13.5741H4.36761L1.51452 22.0203C1.43544 22.2553 1.53209 22.5003 1.75175 22.619C1.82958 22.6615 1.91116 22.6803 1.99275 22.6803C2.14087 22.6803 2.28522 22.614 2.38439 22.4878L11.5787 10.8442C11.7482 10.6292 11.7799 10.3418 11.6594 10.0943Z" fill="#060346" style="fill:#060346;fill:color(display-p3 0.0235 0.0118 0.2745);fill-opacity:1;"/>
</svg>
