<svg width="100%" height="100%" style="overflow:visible;" preserveAspectRatio="none" viewBox="0 0 302.66 360.85" fill="none" xmlns="http://www.w3.org/2000/svg">
<mask id="path-1-inside-1_3059_1050" fill="white">
<path fill-rule="evenodd" clip-rule="evenodd" d="M118.712 137.423L139.572 158.283L184.968 112.434C190.341 107.006 199.108 106.991 204.519 112.373C209.93 117.753 209.947 126.495 204.579 131.913C197.752 138.803 190.943 145.71 184.133 152.617C172.581 164.335 161.029 176.052 149.393 187.687C143.987 193.094 135.217 193.094 129.811 187.687L99.1281 157.006C93.7219 151.6 93.7219 142.83 99.1281 137.423C104.535 132.017 113.305 132.017 118.712 137.423ZM151.834 57.8326C177.299 57.8326 200.353 68.1541 217.041 84.8415C233.728 101.529 244.05 124.583 244.05 150.049C244.05 175.514 233.728 198.568 217.041 215.255C200.353 231.943 177.299 242.264 151.834 242.264C126.369 242.264 103.314 231.943 86.6269 215.255C69.9394 198.568 59.6179 175.514 59.6179 150.049C59.6179 124.583 69.9394 101.529 86.6269 84.8415C103.314 68.1541 126.369 57.8326 151.834 57.8326ZM213.671 360.119L184.048 298.138C199.388 299.045 200.555 283.903 219.982 285.06L233.124 264.965L270.24 333.784C270.594 334.545 270.502 335.382 269.991 336.048C269.481 336.715 268.696 337.021 267.869 336.876L234.555 331.055L217.564 360.295C217.142 361.022 216.403 361.425 215.564 361.387C214.725 361.349 214.025 360.88 213.671 360.119ZM82.929 283.903C91.8446 297.536 103.968 299.379 119.619 298.138L90.8492 360.118C90.4946 360.88 89.7949 361.348 88.956 361.386C88.1171 361.424 87.3779 361.021 86.9559 360.295L69.9644 331.055L36.6502 336.876C35.823 337.021 35.0384 336.715 34.5277 336.048C34.0163 335.382 33.9248 334.545 34.2794 333.784L69.9644 264.106L82.929 283.903Z"/>
<path fill-rule="evenodd" clip-rule="evenodd" d="M170.954 7.00597L190.176 21.3944C195.434 25.3294 200.967 27.3435 207.524 27.7084L231.497 29.0418C245.853 29.8404 257.511 39.6234 260.791 53.622L266.267 77C267.765 83.3938 270.709 88.4938 275.497 92.9871L293.005 109.42C303.489 119.258 306.131 134.247 299.645 147.078L288.813 168.508C285.851 174.368 284.828 180.168 285.608 186.687L288.458 210.529C290.164 224.805 282.554 237.985 269.338 243.645L247.265 253.098C241.228 255.684 236.717 259.468 233.124 264.965L219.982 285.06C214.475 298.138 197.811 302.297 184.048 298.138L161.064 291.192C154.778 289.292 148.889 289.292 142.603 291.192L119.619 298.138C105.856 302.297 91.5547 297.092 83.6853 285.06L70.5431 264.965C66.9488 259.468 62.4379 255.684 56.4009 253.099L34.3299 243.645C21.1137 237.985 13.5037 224.804 15.2101 210.528L18.06 186.687C18.8389 180.166 17.8168 174.367 14.854 168.507L4.02182 147.078C-2.4643 134.247 0.179091 119.258 10.6618 109.419L28.1698 92.9864C32.9577 88.4923 35.9022 83.3931 37.3997 76.9993L42.8762 53.6213C46.1556 39.6226 57.8141 29.8396 72.1696 29.041L96.1433 27.7076C102.7 27.3428 108.234 25.3287 113.491 21.3937L132.713 7.00524C144.224 -1.60994 159.444 -1.60994 170.954 7.00597ZM78.3385 76.5531C97.1484 57.7439 123.133 46.1102 151.834 46.1102C180.535 46.1102 206.52 57.7446 225.329 76.5531C244.138 95.3624 255.771 121.346 255.771 150.048C255.771 178.748 244.138 204.734 225.329 223.542C206.52 242.351 180.535 253.985 151.834 253.985C123.132 253.985 97.1477 242.352 78.3385 223.542C59.53 204.734 47.8956 178.748 47.8956 150.048C47.8956 121.347 59.5293 95.3624 78.3385 76.5531Z"/>
<path fill-rule="evenodd" clip-rule="evenodd" d="M170.954 7.00597L190.176 21.3944C195.434 25.3294 200.967 27.3435 207.524 27.7084L231.497 29.0418C245.853 29.8404 257.511 39.6234 260.791 53.622L266.267 77C267.765 83.3938 270.709 88.4938 275.497 92.9871L293.005 109.42C303.489 119.258 306.131 134.247 299.645 147.078L288.813 168.508C285.851 174.368 284.828 180.168 285.608 186.687L288.458 210.529C290.164 224.805 282.554 237.985 269.338 243.645L247.265 253.098C241.228 255.684 236.717 259.468 233.124 264.965L219.982 285.06C214.475 298.138 197.811 302.297 184.048 298.138L161.064 291.192C154.778 289.292 148.889 289.292 142.603 291.192L119.619 298.138C105.856 302.297 91.5547 297.092 83.6853 285.06L70.5431 264.965C66.9488 259.468 62.4379 255.684 56.4009 253.099L34.3299 243.645C21.1137 237.985 13.5037 224.804 15.2101 210.528L18.06 186.687C18.8389 180.166 17.8168 174.367 14.854 168.507L4.02182 147.078C-2.4643 134.247 0.179091 119.258 10.6618 109.419L28.1698 92.9864C32.9577 88.4923 35.9022 83.3931 37.3997 76.9993L42.8762 53.6213C46.1556 39.6226 57.8141 29.8396 72.1696 29.041L96.1433 27.7076C102.7 27.3428 108.234 25.3287 113.491 21.3937L132.713 7.00524C144.224 -1.60994 159.444 -1.60994 170.954 7.00597ZM78.3385 76.5531C97.1484 57.7439 123.133 46.1102 151.834 46.1102C180.535 46.1102 206.52 57.7446 225.329 76.5531C244.138 95.3624 255.771 121.346 255.771 150.048C255.771 178.748 244.138 204.734 225.329 223.542C206.52 242.351 180.535 253.985 151.834 253.985C123.132 253.985 97.1477 242.352 78.3385 223.542C59.53 204.734 47.8956 178.748 47.8956 150.048C47.8956 121.347 59.5293 95.3624 78.3385 76.5531Z"/>
</mask>
<path d="M170.954 7.00597L170.076 8.17901L170.076 8.17904L170.954 7.00597ZM190.176 21.3944L189.298 22.5675L189.298 22.5675L190.176 21.3944ZM207.524 27.7084L207.442 29.1714L207.442 29.1714L207.524 27.7084ZM231.497 29.0418L231.579 27.5787H231.579L231.497 29.0418ZM260.791 53.622L262.217 53.2878L260.791 53.622ZM266.267 77L267.694 76.6659V76.6658L266.267 77ZM275.497 92.9871L276.5 91.9187L276.5 91.9186L275.497 92.9871ZM293.005 109.42L292.002 110.488L292.002 110.488L293.005 109.42ZM299.645 147.078L300.953 147.739L299.645 147.078ZM288.813 168.508L287.505 167.846L287.505 167.847L288.813 168.508ZM285.608 186.687L287.063 186.514V186.513L285.608 186.687ZM288.458 210.529L289.913 210.355V210.355L288.458 210.529ZM269.338 243.645L269.915 244.992L269.915 244.992L269.338 243.645ZM247.265 253.098L246.689 251.751H246.689L247.265 253.098ZM233.124 264.965L234.35 265.767L234.35 265.767L233.124 264.965ZM219.982 285.06L218.755 284.258L218.683 284.369L218.631 284.491L219.982 285.06ZM184.048 298.138L183.624 299.541L184.048 298.138ZM161.064 291.192L160.64 292.595H160.64L161.064 291.192ZM142.603 291.192L143.027 292.595L142.603 291.192ZM119.619 298.138L120.043 299.541H120.043L119.619 298.138ZM83.6853 285.06L82.459 285.862L82.459 285.862L83.6853 285.06ZM70.5431 264.965L69.3168 265.767L69.3168 265.767L70.5431 264.965ZM56.4009 253.099L55.8239 254.446L55.8241 254.446L56.4009 253.099ZM34.3299 243.645L34.9069 242.298L34.9067 242.298L34.3299 243.645ZM15.2101 210.528L13.7551 210.355L13.7551 210.355L15.2101 210.528ZM18.06 186.687L19.515 186.861L19.515 186.86L18.06 186.687ZM14.854 168.507L13.5463 169.168L13.5463 169.168L14.854 168.507ZM4.02182 147.078L5.32953 146.417L5.32952 146.417L4.02182 147.078ZM10.6618 109.419L9.65901 108.35L9.65897 108.351L10.6618 109.419ZM28.1698 92.9864L29.1726 94.0548L29.1726 94.0548L28.1698 92.9864ZM37.3997 76.9993L35.973 76.6651L35.973 76.6652L37.3997 76.9993ZM42.8762 53.6213L44.3029 53.9555L42.8762 53.6213ZM72.1696 29.041L72.0882 27.578L72.0882 27.578L72.1696 29.041ZM96.1433 27.7076L96.2246 29.1707L96.2247 29.1706L96.1433 27.7076ZM113.491 21.3937L112.613 20.2206L112.613 20.2206L113.491 21.3937ZM132.713 7.00524L131.835 5.83214L131.835 5.83218L132.713 7.00524ZM78.3385 76.5531L77.3024 75.517L77.3024 75.517L78.3385 76.5531ZM78.3385 223.542L77.3024 224.579L78.3385 223.542ZM225.329 223.542L224.292 222.506L224.292 222.506L225.329 223.542ZM225.329 76.5531L224.292 77.5892L225.329 76.5531ZM170.076 8.17904L189.298 22.5675L191.054 20.2213L171.832 5.83291L170.076 8.17904ZM189.298 22.5675C194.787 26.6756 200.598 28.7905 207.442 29.1714L207.605 26.2453C201.337 25.8965 196.081 23.9833 191.054 20.2213L189.298 22.5675ZM207.442 29.1714L231.416 30.5048L231.579 27.5787L207.605 26.2453L207.442 29.1714ZM231.416 30.5048C245.122 31.2673 256.233 40.5906 259.364 53.9562L262.217 53.2878C258.79 38.6561 246.583 28.4134 231.579 27.5787L231.416 30.5048ZM259.364 53.9562L264.841 77.3343L267.694 76.6658L262.217 53.2878L259.364 53.9562ZM264.841 77.3342C266.404 84.0092 269.496 89.3646 274.494 94.0556L276.5 91.9186C271.923 87.623 269.126 82.7785 267.694 76.6659L264.841 77.3342ZM274.494 94.0555L292.002 110.488L294.008 108.351L276.5 91.9187L274.494 94.0555ZM292.002 110.488C302.012 119.882 304.53 134.166 298.337 146.417L300.953 147.739C307.732 134.328 304.966 118.635 294.008 108.351L292.002 110.488ZM298.337 146.417L287.505 167.846L290.121 169.169L300.953 147.739L298.337 146.417ZM287.505 167.847C284.413 173.965 283.339 180.055 284.153 186.861L287.063 186.513C286.317 180.28 287.289 174.771 290.121 169.169L287.505 167.847ZM284.153 186.861L287.003 210.703L289.913 210.355L287.063 186.514L284.153 186.861ZM287.003 210.703C288.632 224.333 281.379 236.894 268.761 242.299L269.915 244.992C283.729 239.076 291.696 225.277 289.913 210.355L287.003 210.703ZM268.761 242.299L246.689 251.751L247.842 254.445L269.915 244.992L268.761 242.299ZM246.689 251.751C240.386 254.45 235.649 258.425 231.897 264.163L234.35 265.767C237.786 260.512 242.071 256.917 247.842 254.445L246.689 251.751ZM231.898 264.163L218.755 284.258L221.208 285.862L234.35 265.767L231.898 264.163ZM218.631 284.491C213.532 296.602 197.846 300.777 184.472 296.736L183.624 299.541C197.776 303.818 215.418 299.674 221.332 285.628L218.631 284.491ZM184.472 296.736L161.488 289.789L160.64 292.595L183.624 299.541L184.472 296.736ZM161.488 289.789C154.925 287.806 148.742 287.806 142.179 289.789L143.027 292.595C149.037 290.778 154.63 290.778 160.64 292.595L161.488 289.789ZM142.179 289.789L119.195 296.736L120.043 299.541L143.027 292.595L142.179 289.789ZM119.195 296.736C106.054 300.707 92.4251 295.746 84.9117 284.258L82.459 285.862C90.6843 298.438 105.657 303.888 120.043 299.541L119.195 296.736ZM84.9117 284.258L71.7695 264.163L69.3168 265.767L82.459 285.862L84.9117 284.258ZM71.7695 264.163C68.017 258.425 63.2801 254.45 56.9776 251.752L55.8241 254.446C61.5956 256.917 65.8805 260.512 69.3168 265.767L71.7695 264.163ZM56.9778 251.752L34.9069 242.298L33.753 244.992L55.8239 254.446L56.9778 251.752ZM34.9067 242.298C22.2883 236.894 15.0358 224.332 16.665 210.702L13.7551 210.355C11.9716 225.276 19.9391 239.076 33.7531 244.992L34.9067 242.298ZM16.665 210.702L19.515 186.861L16.6051 186.513L13.7551 210.355L16.665 210.702ZM19.515 186.86C20.328 180.053 19.2548 173.964 16.1617 167.846L13.5463 169.168C16.3788 174.771 17.3497 180.279 16.6051 186.513L19.515 186.86ZM16.1617 167.846L5.32953 146.417L2.7141 147.739L13.5463 169.168L16.1617 167.846ZM5.32952 146.417C-0.863215 134.166 1.65592 119.882 11.6646 110.487L9.65897 108.351C-1.29773 118.635 -4.06537 134.327 2.71412 147.739L5.32952 146.417ZM11.6646 110.487L29.1726 94.0548L27.167 91.918L9.65901 108.35L11.6646 110.487ZM29.1726 94.0548C34.171 89.3632 37.263 84.0085 38.8264 77.3335L35.973 76.6652C34.5414 82.7777 31.7444 87.6215 27.167 91.918L29.1726 94.0548ZM38.8264 77.3335L44.3029 53.9555L41.4496 53.2871L35.973 76.6651L38.8264 77.3335ZM44.3029 53.9555C47.4339 40.5899 58.5448 31.2665 72.251 30.5041L72.0882 27.578C57.0835 28.4127 44.8772 38.6554 41.4496 53.2871L44.3029 53.9555ZM72.251 30.5041L96.2246 29.1707L96.0619 26.2446L72.0882 27.578L72.251 30.5041ZM96.2247 29.1706C103.07 28.7898 108.881 26.6748 114.369 22.5667L112.613 20.2206C107.587 23.9826 102.331 25.8958 96.0618 26.2446L96.2247 29.1706ZM114.369 22.5667L133.591 8.17831L131.835 5.83218L112.613 20.2206L114.369 22.5667ZM133.591 8.17834C144.581 -0.047263 159.086 -0.0472237 170.076 8.17901L171.832 5.83294C159.801 -3.17266 143.866 -3.17262 131.835 5.83214L133.591 8.17834ZM151.834 44.6449C122.729 44.6449 96.3759 56.4442 77.3024 75.517L79.3746 77.5893C97.921 59.0436 123.537 47.5755 151.834 47.5755V44.6449ZM77.3024 75.517C58.2296 94.5898 46.4303 120.943 46.4303 150.048H49.3609C49.3609 121.751 60.8289 96.1349 79.3746 77.5892L77.3024 75.517ZM46.4303 150.048C46.4303 179.153 58.2303 205.507 77.3024 224.579L79.3746 222.506C60.8297 203.961 49.3609 178.344 49.3609 150.048H46.4303ZM77.3024 224.579C96.3752 243.651 122.728 255.451 151.834 255.451V252.52C123.537 252.52 97.9203 241.052 79.3746 222.506L77.3024 224.579ZM151.834 255.451C180.939 255.451 207.293 243.651 226.365 224.579L224.292 222.506C205.747 241.051 180.13 252.52 151.834 252.52V255.451ZM226.365 224.579C245.437 205.506 257.237 179.153 257.237 150.048H254.306C254.306 178.344 242.838 203.961 224.292 222.506L226.365 224.579ZM257.237 150.048C257.237 120.942 245.437 94.5898 226.365 75.517L224.292 77.5892C242.838 96.1349 254.306 121.751 254.306 150.048H257.237ZM226.365 75.517C207.293 56.445 180.94 44.6449 151.834 44.6449V47.5755C180.131 47.5755 205.747 59.0443 224.292 77.5892L226.365 75.517ZM184.048 298.138L184.221 295.213L179.262 294.919L181.404 299.402L184.048 298.138ZM119.619 298.138L122.277 299.372L124.39 294.82L119.387 295.217L119.619 298.138ZM139.572 158.283L137.5 160.356L139.583 162.438L141.655 160.345L139.572 158.283ZM118.712 137.423L120.784 135.351L120.784 135.35L118.712 137.423ZM99.1281 137.423L97.056 135.35L97.0557 135.351L99.1281 137.423ZM99.1281 157.006L97.0558 159.078L97.0558 159.078L99.1281 157.006ZM129.811 187.687L131.883 185.615L131.883 185.615L129.811 187.687ZM204.579 131.913L202.497 129.85L202.497 129.85L204.579 131.913ZM204.519 112.373L202.453 114.451L202.453 114.451L204.519 112.373ZM184.968 112.434L187.05 114.496L187.05 114.496L184.968 112.434ZM213.671 360.119L216.327 358.881L216.321 358.868L216.315 358.855L213.671 360.119ZM217.564 360.295L215.03 358.823L215.03 358.824L217.564 360.295ZM234.555 331.055L235.059 328.168L233.047 327.817L232.021 329.583L234.555 331.055ZM267.869 336.876L267.364 339.763L267.365 339.763L267.869 336.876ZM270.24 333.784L272.896 332.546L272.86 332.468L272.819 332.393L270.24 333.784ZM82.929 283.903L85.3817 282.299L85.3807 282.298L82.929 283.903ZM69.9644 264.106L72.416 262.5L69.6541 258.283L67.3559 262.77L69.9644 264.106ZM34.2794 333.784L31.671 332.448L31.646 332.497L31.6229 332.546L34.2794 333.784ZM34.5277 336.048L36.8543 334.266L36.8521 334.263L34.5277 336.048ZM36.6502 336.876L37.1539 339.763L37.1546 339.763L36.6502 336.876ZM69.9644 331.055L72.4982 329.583L71.472 327.817L69.4599 328.168L69.9644 331.055ZM86.9559 360.295L84.4221 361.768L84.4222 361.768L86.9559 360.295ZM90.8492 360.118L93.5061 361.354L93.5073 361.352L90.8492 360.118ZM184.133 152.617L182.046 150.56L184.133 152.617ZM141.645 156.211L120.784 135.351L116.639 139.495L137.5 160.356L141.645 156.211ZM120.784 135.35C114.232 128.8 103.607 128.8 97.056 135.35L101.2 139.495C105.463 135.233 112.377 135.233 116.64 139.495L120.784 135.35ZM97.0557 135.351C90.5053 141.902 90.5051 152.527 97.0558 159.078L101.2 154.933C96.9386 150.672 96.9384 143.757 101.2 139.495L97.0557 135.351ZM97.0558 159.078L127.738 189.76L131.883 185.615L101.2 154.933L97.0558 159.078ZM127.738 189.76C134.289 196.31 144.915 196.31 151.466 189.76L147.321 185.615C143.059 189.877 136.145 189.877 131.883 185.615L127.738 189.76ZM206.661 133.975C213.162 127.414 213.146 116.819 206.586 110.295L202.453 114.451C206.713 118.688 206.731 125.577 202.497 129.85L206.661 133.975ZM206.586 110.295C200.03 103.774 189.404 103.788 182.885 110.372L187.05 114.496C191.278 110.225 198.186 110.207 202.453 114.451L206.586 110.295ZM182.885 110.372L137.49 156.222L141.655 160.345L187.05 114.496L182.885 110.372ZM219.113 82.7693C201.898 65.5547 178.108 54.902 151.834 54.902V60.7631C176.491 60.7631 198.808 70.7535 214.969 86.9138L219.113 82.7693ZM151.834 54.902C125.56 54.902 101.769 65.5547 84.5547 82.7693L88.6992 86.9138C104.859 70.7534 127.177 60.7631 151.834 60.7631V54.902ZM84.5547 82.7693C67.3401 99.9839 56.6873 123.775 56.6873 150.049H62.5485C62.5485 125.392 72.5388 103.074 88.6992 86.9138L84.5547 82.7693ZM56.6873 150.049C56.6873 176.322 67.3401 200.113 84.5547 217.328L88.6992 213.183C72.5388 197.023 62.5485 174.705 62.5485 150.049H56.6873ZM84.5547 217.328C101.769 234.542 125.56 245.195 151.834 245.195V239.334C127.177 239.334 104.859 229.344 88.6992 213.183L84.5547 217.328ZM151.834 245.195C178.108 245.195 201.898 234.542 219.113 217.328L214.969 213.183C198.808 229.344 176.491 239.334 151.834 239.334V245.195ZM219.113 217.328C236.328 200.113 246.98 176.322 246.98 150.049H241.119C241.119 174.705 231.129 197.023 214.969 213.183L219.113 217.328ZM246.98 150.049C246.98 123.775 236.328 99.9839 219.113 82.7693L214.969 86.9138C231.129 103.074 241.119 125.392 241.119 150.049H246.98ZM181.404 299.402L211.027 361.382L216.315 358.855L186.692 296.875L181.404 299.402ZM211.014 361.356C211.829 363.106 213.501 364.227 215.431 364.314L215.697 358.459C215.793 358.464 215.93 358.497 216.067 358.589C216.204 358.681 216.287 358.795 216.327 358.881L211.014 361.356ZM215.431 364.314C217.36 364.402 219.127 363.439 220.098 361.767L215.03 358.824C215.078 358.741 215.171 358.635 215.317 358.555C215.462 358.476 215.601 358.455 215.697 358.459L215.431 364.314ZM220.098 361.768L237.089 332.528L232.021 329.583L215.03 358.823L220.098 361.768ZM234.05 333.942L267.364 339.763L268.373 333.989L235.059 328.168L234.05 333.942ZM267.365 339.763C269.266 340.095 271.142 339.365 272.318 337.83L267.665 334.266C267.724 334.189 267.83 334.096 267.984 334.036C268.138 333.976 268.279 333.973 268.373 333.989L267.365 339.763ZM272.318 337.83C273.491 336.299 273.713 334.299 272.896 332.546L267.583 335.021C267.542 334.934 267.509 334.796 267.527 334.631C267.545 334.467 267.607 334.341 267.665 334.266L272.318 337.83ZM272.819 332.393L235.703 263.574L230.545 266.356L267.66 335.175L272.819 332.393ZM220.156 282.134C214.891 281.821 210.739 282.611 207.232 284.025C203.766 285.423 201.058 287.385 198.708 289.173C193.963 292.782 190.662 295.594 184.221 295.213L183.875 301.064C192.774 301.59 197.726 297.284 202.256 293.838C204.544 292.098 206.729 290.548 209.425 289.461C212.08 288.39 215.359 287.72 219.808 287.985L220.156 282.134ZM119.387 295.217C111.682 295.828 105.207 295.64 99.665 293.815C94.2372 292.027 89.5016 288.599 85.3817 282.299L80.4764 285.507C85.2721 292.84 91.0559 297.15 97.8313 299.382C104.493 301.576 111.905 301.69 119.85 301.06L119.387 295.217ZM85.3807 282.298L72.416 262.5L67.5127 265.711L80.4774 285.509L85.3807 282.298ZM67.3559 262.77L31.671 332.448L36.8878 335.12L72.5728 265.442L67.3559 262.77ZM31.6229 332.546C30.8074 334.297 31.0256 336.299 32.2034 337.833L36.8521 334.263C36.9112 334.34 36.9739 334.468 36.9919 334.632C37.01 334.797 36.9764 334.934 36.9359 335.021L31.6229 332.546ZM32.2012 337.83C33.3771 339.365 35.2533 340.095 37.1539 339.763L36.1465 333.989C36.2402 333.973 36.381 333.976 36.5348 334.036C36.6887 334.096 36.7954 334.189 36.8543 334.266L32.2012 337.83ZM37.1546 339.763L70.4688 333.942L69.4599 328.168L36.1458 333.989L37.1546 339.763ZM67.4305 332.528L84.4221 361.768L89.4897 358.823L72.4982 329.583L67.4305 332.528ZM84.4222 361.768C85.3932 363.438 87.1605 364.401 89.089 364.314L88.823 358.459C88.9183 358.454 89.0577 358.475 89.2027 358.554C89.3477 358.633 89.4413 358.739 89.4896 358.823L84.4222 361.768ZM89.089 364.314C91.0175 364.226 92.6904 363.107 93.5061 361.354L88.1922 358.881C88.2326 358.795 88.3161 358.68 88.4535 358.588C88.5909 358.496 88.7279 358.463 88.823 358.459L89.089 364.314ZM93.5073 361.352L122.277 299.372L116.961 296.904L88.191 358.884L93.5073 361.352ZM202.497 129.85C195.668 136.743 188.855 143.653 182.046 150.56L186.22 154.675C193.03 147.767 199.837 140.863 206.661 133.975L202.497 129.85ZM182.046 150.56C170.493 162.279 158.948 173.988 147.321 185.615L151.466 189.76C163.11 178.116 174.669 166.391 186.22 154.675L182.046 150.56Z" fill="white" style="fill:white;fill-opacity:1;" mask="url(#path-1-inside-1_3059_1050)"/>
</svg>
