<svg width="100%" height="100%" style="overflow:visible;" preserveAspectRatio="none" viewBox="0 0 32 32" fill="none" xmlns="http://www.w3.org/2000/svg">
<path d="M11.0364 2.72757C13.7411 1.7448 16.6751 1.57924 19.4731 2.25148C22.2712 2.92372 24.8097 4.40408 26.7727 6.50827H24.0589C23.882 6.50827 23.7124 6.57852 23.5874 6.70357C23.4623 6.82862 23.3921 6.99822 23.3921 7.17506C23.3921 7.35191 23.4623 7.52151 23.5874 7.64656C23.7124 7.7716 23.882 7.84185 24.0589 7.84185H28.0596C28.2364 7.84185 28.406 7.7716 28.5311 7.64656C28.6561 7.52151 28.7264 7.35191 28.7264 7.17506V3.17432C28.7264 2.99748 28.6561 2.82787 28.5311 2.70283C28.406 2.57778 28.2364 2.50753 28.0596 2.50753C27.8827 2.50753 27.7131 2.57778 27.5881 2.70283C27.4631 2.82787 27.3928 2.99748 27.3928 3.17432V5.22137C25.2397 3.05911 22.5133 1.5575 19.535 0.893549C16.5567 0.229602 13.4507 0.431001 10.583 1.474C10.4984 1.50194 10.4202 1.54658 10.3531 1.60527C10.2859 1.66395 10.2313 1.7355 10.1923 1.81568C10.1533 1.89586 10.1308 1.98304 10.1261 2.07207C10.1214 2.1611 10.1346 2.25016 10.165 2.334C10.1953 2.41784 10.2421 2.49474 10.3027 2.56016C10.3632 2.62559 10.4363 2.6782 10.5176 2.7149C10.5988 2.75159 10.6866 2.77162 10.7757 2.77379C10.8648 2.77597 10.9535 2.76025 11.0364 2.72757Z" fill="#060346" style="fill:#060346;fill:color(display-p3 0.0235 0.0118 0.2745);fill-opacity:1;"/>
<path d="M1.38799 16.5101C1.38083 14.2042 1.92109 11.9296 2.96436 9.87317C4.00763 7.81676 5.52411 6.03736 7.3891 4.68127V7.17506C7.3891 7.35191 7.45935 7.52151 7.5844 7.64656C7.70945 7.7716 7.87905 7.84185 8.05589 7.84185C8.23274 7.84185 8.40234 7.7716 8.52739 7.64656C8.65243 7.52151 8.72268 7.35191 8.72268 7.17506V3.17432C8.72268 2.99748 8.65243 2.82787 8.52739 2.70283C8.40234 2.57778 8.23274 2.50753 8.05589 2.50753H4.05515C3.87831 2.50753 3.70871 2.57778 3.58366 2.70283C3.45861 2.82787 3.38836 2.99748 3.38836 3.17432C3.38836 3.35116 3.45861 3.52076 3.58366 3.64581C3.70871 3.77086 3.87831 3.84111 4.05515 3.84111H6.2889C3.59916 5.91496 1.63899 8.7908 0.692001 12.0525C-0.254986 15.3142 -0.139672 18.7927 1.02126 21.9845C1.06785 22.1134 1.15302 22.2247 1.26517 22.3035C1.37732 22.3822 1.51101 22.4245 1.64804 22.4246C1.72536 22.4245 1.80207 22.4109 1.87475 22.3846C2.04094 22.3244 2.17643 22.2007 2.25145 22.0406C2.32647 21.8806 2.33488 21.6973 2.27482 21.5311C1.68733 19.9223 1.38715 18.2228 1.38799 16.5101Z" fill="#060346" style="fill:#060346;fill:color(display-p3 0.0235 0.0118 0.2745);fill-opacity:1;"/>
<path d="M21.0783 30.2927C18.3736 31.2755 15.4397 31.441 12.6416 30.7688C9.84359 30.0965 7.30506 28.6162 5.34206 26.512H8.05589C8.23274 26.512 8.40234 26.4417 8.52739 26.3167C8.65243 26.1916 8.72268 26.022 8.72268 25.8452C8.72268 25.6684 8.65243 25.4988 8.52739 25.3737C8.40234 25.2487 8.23274 25.1784 8.05589 25.1784H4.05515C3.87831 25.1784 3.70871 25.2487 3.58366 25.3737C3.45861 25.4988 3.38836 25.6684 3.38836 25.8452V29.8459C3.38836 30.0228 3.45861 30.1924 3.58366 30.3174C3.70871 30.4425 3.87831 30.5127 4.05515 30.5127C4.232 30.5127 4.4016 30.4425 4.52665 30.3174C4.65169 30.1924 4.72194 30.0228 4.72194 29.8459V27.7989C6.87503 29.9612 9.60143 31.4628 12.5797 32.1267C15.558 32.7907 18.6641 32.5893 21.5317 31.5463C21.6164 31.5183 21.6946 31.4737 21.7617 31.415C21.8288 31.3563 21.8835 31.2848 21.9224 31.2046C21.9614 31.1244 21.9839 31.0372 21.9886 30.9482C21.9933 30.8592 21.9801 30.7701 21.9498 30.6863C21.9195 30.6024 21.8726 30.5255 21.8121 30.4601C21.7515 30.3947 21.6784 30.3421 21.5972 30.3054C21.5159 30.2687 21.4282 30.2486 21.339 30.2465C21.2499 30.2443 21.1612 30.26 21.0783 30.2927Z" fill="#060346" style="fill:#060346;fill:color(display-p3 0.0235 0.0118 0.2745);fill-opacity:1;"/>
<path d="M28.0596 29.1792H25.8258C28.5156 27.1053 30.4758 24.2295 31.4227 20.9678C32.3697 17.706 32.2544 14.2276 31.0935 11.0358C31.0299 10.8743 30.9058 10.744 30.7476 10.6725C30.5894 10.6011 30.4095 10.5942 30.2463 10.6532C30.0831 10.7122 29.9493 10.8326 29.8734 10.9887C29.7975 11.1448 29.7855 11.3244 29.8399 11.4892C30.9259 14.4729 31.0144 17.7285 30.0922 20.7668C29.17 23.8052 27.2869 26.4623 24.7256 28.339V25.8452C24.7256 25.6684 24.6554 25.4988 24.5303 25.3737C24.4053 25.2487 24.2357 25.1784 24.0589 25.1784C23.882 25.1784 23.7124 25.2487 23.5874 25.3737C23.4623 25.4988 23.3921 25.6684 23.3921 25.8452V29.8459C23.3921 30.0228 23.4623 30.1924 23.5874 30.3174C23.7124 30.4425 23.882 30.5127 24.0589 30.5127H28.0596C28.2364 30.5127 28.406 30.4425 28.5311 30.3174C28.6561 30.1924 28.7264 30.0228 28.7264 29.8459C28.7264 29.6691 28.6561 29.4995 28.5311 29.3745C28.406 29.2494 28.2364 29.1792 28.0596 29.1792Z" fill="#060346" style="fill:#060346;fill:color(display-p3 0.0235 0.0118 0.2745);fill-opacity:1;"/>
<path d="M27.3928 11.8426C27.3928 12.1963 27.2523 12.5355 27.0022 12.7856C26.7521 13.0357 26.4129 13.1762 26.0592 13.1762H21.3917C21.038 13.1762 20.6988 13.3167 20.4487 13.5668C20.1986 13.8169 20.0581 14.1561 20.0581 14.5098V27.8456C20.0581 28.1993 19.9176 28.5385 19.6675 28.7886C19.4174 29.0387 19.0782 29.1792 18.7245 29.1792C18.3708 29.1792 18.0316 29.0387 17.7815 28.7886C17.5315 28.5385 17.391 28.1993 17.391 27.8456V21.8445C17.391 21.4908 17.2505 21.1516 17.0004 20.9015C16.7503 20.6514 16.4111 20.5109 16.0574 20.5109C15.7037 20.5109 15.3645 20.6514 15.1144 20.9015C14.8643 21.1516 14.7238 21.4908 14.7238 21.8445V27.8456C14.7238 28.1993 14.5833 28.5385 14.3332 28.7886C14.0831 29.0387 13.7439 29.1792 13.3902 29.1792C13.0365 29.1792 12.6973 29.0387 12.4472 28.7886C12.1971 28.5385 12.0566 28.1993 12.0566 27.8456V14.5098C12.0566 14.1561 11.9161 13.8169 11.666 13.5668C11.4159 13.3167 11.0767 13.1762 10.7231 13.1762H6.72231C6.36863 13.1762 6.02943 13.0357 5.77933 12.7856C5.52924 12.5355 5.38873 12.1963 5.38873 11.8426C5.38873 11.4889 5.52924 11.1497 5.77933 10.8996C6.02943 10.6495 6.36863 10.509 6.72231 10.509H26.0592C26.4129 10.509 26.7521 10.6495 27.0022 10.8996C27.2523 11.1497 27.3928 11.4889 27.3928 11.8426Z" fill="#060346" style="fill:#060346;fill:color(display-p3 0.0235 0.0118 0.2745);fill-opacity:1;"/>
<path d="M16.0574 10.509C17.8987 10.509 19.3913 9.01635 19.3913 7.17506C19.3913 5.33377 17.8987 3.84111 16.0574 3.84111C14.2161 3.84111 12.7234 5.33377 12.7234 7.17506C12.7234 9.01635 14.2161 10.509 16.0574 10.509Z" fill="#060346" style="fill:#060346;fill:color(display-p3 0.0235 0.0118 0.2745);fill-opacity:1;"/>
</svg>
