<svg width="100%" height="100%" style="overflow:visible;" preserveAspectRatio="none" viewBox="0 0 23.57 22.9" fill="none" xmlns="http://www.w3.org/2000/svg">
<path d="M1.2123 0.450806C0.662366 0.450806 0.216553 0.896619 0.216553 1.44656C0.216553 1.9965 0.662366 2.44231 1.2123 2.44231H2.98404C3.12902 2.44231 3.27032 2.48793 3.38793 2.5727C3.50554 2.65747 3.5935 2.7771 3.63933 2.91465L6.92232 12.7655C7.06811 13.2028 7.08665 13.6737 6.97483 14.121L6.7045 15.2043C6.30785 16.7909 7.54288 18.3743 9.17832 18.3743H21.1273C21.6773 18.3743 22.1231 17.9285 22.1231 17.3786C22.1231 16.8286 21.6773 16.3828 21.1273 16.3828H9.17832C8.79059 16.3828 8.54167 16.0647 8.63571 15.6885L8.83958 14.8743C8.87412 14.7363 8.95378 14.6139 9.06589 14.5264C9.17801 14.4389 9.31615 14.3913 9.45837 14.3913H20.1316C20.5603 14.3916 20.9411 14.1173 21.0768 13.7106L23.7315 5.74463C23.9465 5.09959 23.4662 4.4335 22.7863 4.43381H6.7434C6.59842 4.43381 6.45711 4.3882 6.3395 4.30343C6.22188 4.21865 6.13392 4.09903 6.08808 3.96149L5.14475 1.1315C5.00906 0.724791 4.6283 0.450582 4.19956 0.450806H1.2123ZM8.18257 19.3701C7.08269 19.3701 6.19106 20.2617 6.19106 21.3616C6.19106 22.4615 7.08269 23.3531 8.18257 23.3531C9.28244 23.3531 10.1741 22.4615 10.1741 21.3616C10.1741 20.2617 9.28244 19.3701 8.18257 19.3701ZM20.1316 19.3701C19.0317 19.3701 18.1401 20.2617 18.1401 21.3616C18.1401 22.4615 19.0317 23.3531 20.1316 23.3531C21.2315 23.3531 22.1231 22.4615 22.1231 21.3616C22.1231 20.2617 21.2315 19.3701 20.1316 19.3701Z" fill="white" style="fill:white;fill-opacity:1;"/>
</svg>
